<?xml version="1.0" encoding="UTF-8" standalone="no"?>
<!-- Created with Inkscape (http://www.inkscape.org/) -->

<svg
   xmlns:dc="http://purl.org/dc/elements/1.1/"
   xmlns:cc="http://creativecommons.org/ns#"
   xmlns:rdf="http://www.w3.org/1999/02/22-rdf-syntax-ns#"
   xmlns:svg="http://www.w3.org/2000/svg"
   xmlns="http://www.w3.org/2000/svg"
   xmlns:sodipodi="http://sodipodi.sourceforge.net/DTD/sodipodi-0.dtd"
   xmlns:inkscape="http://www.inkscape.org/namespaces/inkscape"
   width="132.29167mm"
   height="132.29167mm"
   viewBox="0 0 132.29167 132.29167"
   version="1.1"
   id="svg4781"
   inkscape:version="0.92.3 (2405546, 2018-03-11)"
   sodipodi:docname="avatar-vision.svg"
   enable-background="new">
  <defs
     id="defs4775" />
  <sodipodi:namedview
     id="base"
     pagecolor="#ffffff"
     bordercolor="#666666"
     borderopacity="1.0"
     inkscape:pageopacity="0.0"
     inkscape:pageshadow="2"
     inkscape:zoom="0.98994949"
     inkscape:cx="35.888591"
     inkscape:cy="241.2947"
     inkscape:document-units="mm"
     inkscape:current-layer="layer2"
     showgrid="false"
     inkscape:window-width="1920"
     inkscape:window-height="1017"
     inkscape:window-x="1912"
     inkscape:window-y="-8"
     inkscape:window-maximized="1" />
  <metadata
     id="metadata4778">
    <rdf:RDF>
      <cc:Work
         rdf:about="">
        <dc:format>image/svg+xml</dc:format>
        <dc:type
           rdf:resource="http://purl.org/dc/dcmitype/StillImage" />
        <dc:title />
      </cc:Work>
    </rdf:RDF>
  </metadata>
  <g
     inkscape:groupmode="layer"
     id="layer2"
     inkscape:label="graphics"
     style="display:inline">
    <path
       style="fill:#ff5722;fill-opacity:1;stroke:none;stroke-width:0.26458332px;stroke-linecap:butt;stroke-linejoin:miter;stroke-opacity:1"
       d="m 31.004309,56.283386 c 2.375167,5.617091 4.759536,11.230313 7.147885,16.841866 1.002694,-1.343072 2.005388,-2.686142 3.008085,-4.029212 -2.467552,-5.818248 -4.935101,-11.636499 -7.40265,-17.454748 -1.588707,-0.04289 -3.177411,-0.08578 -4.766117,-0.128674 0.670933,1.590256 1.341863,3.180511 2.012797,4.770768 z"
       id="path5649"
       inkscape:connector-curvature="0" />
    <path
       style="fill:#ff5722;fill-opacity:1;stroke:none;stroke-width:0.26458332px;stroke-linecap:butt;stroke-linejoin:miter;stroke-opacity:1"
       d="m 19.858736,29.250409 c 2.684603,7.145899 5.761676,14.13886 8.68164,21.190956 1.975416,0.05344 3.950843,0.106555 5.926254,0.160197 1.262975,2.97811 2.525943,5.956226 3.788915,8.934339 1.574409,-2.15043 3.148817,-4.300858 4.723226,-6.451285 C 39.47442,42.170725 35.970069,31.256835 32.465719,20.342944 28.263392,23.3121 24.061063,26.281255 19.858736,29.250409 Z"
       id="path5652"
       inkscape:connector-curvature="0" />
    <path
       style="fill:#ff5722;fill-opacity:1;stroke:none;stroke-width:0.26458332px;stroke-linecap:butt;stroke-linejoin:miter;stroke-opacity:1"
       d="m 33.372123,19.702673 c 3.593129,11.190683 7.185723,22.381536 10.779186,33.572112 -1.805422,2.464744 -3.609674,4.930346 -5.414656,7.395413 1.211739,2.857392 2.424031,5.714553 3.635436,8.572085 -1.245952,1.670928 -2.494084,3.340232 -3.740856,5.010547 0.747537,1.763789 1.49457,3.527658 2.242759,5.29115 5.811014,-7.976774 11.622029,-15.953546 17.433043,-23.930321 -4.3782,-14.749486 -8.756401,-29.498974 -13.134599,-44.248461 -3.933438,2.779158 -7.866874,5.558317 -11.800313,8.337475 z"
       id="path5639"
       inkscape:connector-curvature="0" />
    <path
       style="fill:#ff5722;fill-opacity:1;stroke:none;stroke-width:0.99999994px;stroke-linecap:butt;stroke-linejoin:miter;stroke-opacity:1"
       d="M 196.9043 24.462891 C 189.33008 29.814453 181.75586 35.166015 174.18164 40.517578 C 191.04494 97.328768 207.90807 154.14001 224.77148 210.95117 C 201.94976 242.27791 179.12827 273.60483 156.30664 304.93164 C 171.61426 340.2678 186.16263 376.00358 201.94141 411.0918 C 214.33145 427.53554 236.63472 432.7168 256.25391 432.47461 C 273.89897 431.92937 293.75881 425.38914 303.02148 409.48633 C 318.023 374.81821 333.02387 340.15053 348.02539 305.48242 C 325.07029 273.97202 302.11535 242.4615 279.16016 210.95117 C 295.60691 155.54171 312.05336 100.13215 328.5 44.722656 L 305.48828 35.320312 C 288.18597 101.90749 270.88553 168.49517 253.58203 235.08203 C 234.69008 164.87549 215.79677 94.669296 196.9043 24.462891 z M 216.02344 260.65234 L 287.11523 260.65234 L 313.44531 294.51562 L 281.84766 408.05859 L 221.28906 408.05859 L 189.69336 294.51562 L 216.02344 260.65234 z "
       transform="scale(0.26458333)"
       id="path5659" />
    <path
       style="fill:#ff5722;fill-opacity:1;stroke:none;stroke-width:0.26458332px;stroke-linecap:butt;stroke-linejoin:miter;stroke-opacity:1"
       d="m 99.741714,51.641292 c -2.467378,5.818249 -4.934755,11.6365 -7.402132,17.454748 1.016648,1.361675 2.033297,2.723348 3.049942,4.085021 3.126425,-7.225226 6.252846,-14.450451 9.379276,-21.675677 -1.6757,0.0453 -3.35139,0.0906 -5.027086,0.135908 z"
       id="path5662"
       inkscape:connector-curvature="0" />
    <path
       style="fill:#ff5722;fill-opacity:1;stroke:none;stroke-width:0.26458332px;stroke-linecap:butt;stroke-linejoin:miter;stroke-opacity:1"
       d="m 90.587234,53.084616 c 1.560456,2.131134 3.120913,4.26227 4.681368,6.393407 1.254707,-2.958819 2.509387,-5.91765 3.764113,-8.876461 2.066535,-0.05607 4.133075,-0.111578 6.199625,-0.167431 3.81406,-8.814104 5.35633,-12.48327 9.1704,-21.297376 L 101.8713,17.943607 C 98.109944,29.657275 94.34859,41.370945 90.587234,53.084616 Z"
       id="path5665"
       inkscape:connector-curvature="0"
       sodipodi:nodetypes="ccccccc" />
    <path
       style="fill:#ff5722;fill-opacity:1;stroke:none;stroke-width:0.26458332px;stroke-linecap:butt;stroke-linejoin:miter;stroke-opacity:1"
       d="m 75.024876,55.613659 c 5.848223,8.027935 11.696443,16.055866 17.544666,24.083801 0.778248,-1.798513 1.556494,-3.597024 2.334742,-5.395537 -1.258684,-1.68666 -2.51859,-3.372413 -3.776515,-5.05964 1.21952,-2.876817 2.439885,-5.75328 3.659725,-8.629962 -1.791023,-2.445779 -3.581352,-4.892069 -5.372799,-7.337536 3.824965,-11.910777 7.649081,-23.821824 11.473725,-35.732704 -4.329284,-1.768884 -8.658563,-3.537768 -12.987842,-5.306652 -4.291902,14.45941 -8.583801,28.91882 -12.875702,43.37823 z"
       id="path5537"
       inkscape:connector-curvature="0" />
    <path
       style="fill:none;stroke:#ff5722;stroke-width:1;stroke-linecap:butt;stroke-linejoin:miter;stroke-opacity:1;stroke-miterlimit:4;stroke-dasharray:none"
       d="m 55,80.291675 6,23.470835 h 11.5 l 6,-23.470835 -5,-7 H 60 Z"
       id="path5681"
       inkscape:connector-curvature="0"
       sodipodi:nodetypes="ccccccc" />
    <circle
       style="display:inline;opacity:1;fill:none;fill-opacity:1;stroke:#ff5722;stroke-width:7.17003775;stroke-linejoin:round;stroke-miterlimit:4;stroke-dasharray:none;stroke-opacity:1;paint-order:markers stroke fill"
       id="path5428"
       cx="87.902924"
       cy="31.994047"
       r="58.914276"
       transform="rotate(25)" />
  </g>
</svg>
