<?xml version="1.0" encoding="UTF-8" standalone="no"?>
<svg
   xmlns:dc="http://purl.org/dc/elements/1.1/"
   xmlns:cc="http://creativecommons.org/ns#"
   xmlns:rdf="http://www.w3.org/1999/02/22-rdf-syntax-ns#"
   xmlns:svg="http://www.w3.org/2000/svg"
   xmlns="http://www.w3.org/2000/svg"
   viewBox="0 0 400 399.99999"
   height="400"
   width="400"
   xml:space="preserve"
   id="svg5775"
   version="1.1"><metadata
     id="metadata5781"><rdf:RDF><cc:Work
         rdf:about=""><dc:format>image/svg+xml</dc:format><dc:type
           rdf:resource="http://purl.org/dc/dcmitype/StillImage" /><dc:title></dc:title></cc:Work></rdf:RDF></metadata><defs
     id="defs5779"><clipPath
       id="clipPath5809"
       clipPathUnits="userSpaceOnUse"><path
         id="path5807"
         d="M 0,800 H 800 V 0 H 0 Z" /></clipPath><clipPath
       id="clipPath5817"
       clipPathUnits="userSpaceOnUse"><path
         id="path5815"
         d="m 153.323,590.286 h 23.605 v -50.575 h -23.605 z" /></clipPath><clipPath
       id="clipPath5833"
       clipPathUnits="userSpaceOnUse"><path
         id="path5831"
         d="M 121.168,572.549 H 143.92 V 540.273 H 121.168 Z" /></clipPath><clipPath
       id="clipPath5849"
       clipPathUnits="userSpaceOnUse"><path
         id="path5847"
         d="m 193.38,563.135 h 20.794 V 539.653 H 193.38 Z" /></clipPath><clipPath
       id="clipPath5893"
       clipPathUnits="userSpaceOnUse"><path
         id="path5891"
         d="M 0,800 H 800 V 0 H 0 Z" /></clipPath><clipPath
       id="clipPath5901"
       clipPathUnits="userSpaceOnUse"><path
         id="path5899"
         d="m 373.072,588.936 h 24.537 v -17.952 h -24.537 z" /></clipPath><clipPath
       id="clipPath5917"
       clipPathUnits="userSpaceOnUse"><path
         id="path5915"
         d="m 419.792,584.793 h 24.536 v -13.809 h -24.536 z" /></clipPath><clipPath
       id="clipPath5933"
       clipPathUnits="userSpaceOnUse"><path
         id="path5931"
         d="m 324.465,584.718 h 24.536 V 570.91 h -24.536 z" /></clipPath><clipPath
       id="clipPath5989"
       clipPathUnits="userSpaceOnUse"><path
         id="path5987"
         d="M 0,800 H 800 V 0 H 0 Z" /></clipPath><clipPath
       id="clipPath5997"
       clipPathUnits="userSpaceOnUse"><path
         id="path5995"
         d="m 594.889,596.435 h 26.103 v -31.28 h -26.103 z" /></clipPath><clipPath
       id="clipPath6013"
       clipPathUnits="userSpaceOnUse"><path
         id="path6011"
         d="m 633.527,588.169 h 26.389 v -23.102 h -26.389 z" /></clipPath><clipPath
       id="clipPath6029"
       clipPathUnits="userSpaceOnUse"><path
         id="path6027"
         d="m 560.012,588.74 h 24.024 v -17.561 h -24.024 z" /></clipPath><clipPath
       id="clipPath6045"
       clipPathUnits="userSpaceOnUse"><path
         id="path6043"
         d="m 607.396,540.273 h 19.67 v -31.58 h -19.67 z" /></clipPath><clipPath
       id="clipPath6073"
       clipPathUnits="userSpaceOnUse"><path
         id="path6071"
         d="M 0,800 H 800 V 0 H 0 Z" /></clipPath><clipPath
       id="clipPath6081"
       clipPathUnits="userSpaceOnUse"><path
         id="path6079"
         d="m 176.928,383.582 h 39.541 v -26.151 h -39.541 z" /></clipPath><clipPath
       id="clipPath6097"
       clipPathUnits="userSpaceOnUse"><path
         id="path6095"
         d="m 137.344,354.194 h 24.393 v -49.696 h -24.393 z" /></clipPath><clipPath
       id="clipPath6113"
       clipPathUnits="userSpaceOnUse"><path
         id="path6111"
         d="m 215.866,395.396 h 12.456 V 382.94 h -12.456 z" /></clipPath><clipPath
       id="clipPath6129"
       clipPathUnits="userSpaceOnUse"><path
         id="path6127"
         d="m 137.99,382.94 h 63.032 V 319.908 H 137.99 Z" /></clipPath><clipPath
       id="clipPath6145"
       clipPathUnits="userSpaceOnUse"><path
         id="path6143"
         d="m 143.375,377.555 h 72.491 v -72.491 h -72.491 z" /></clipPath><clipPath
       id="clipPath6185"
       clipPathUnits="userSpaceOnUse"><path
         id="path6183"
         d="M 0,800 H 800 V 0 H 0 Z" /></clipPath><clipPath
       id="clipPath6193"
       clipPathUnits="userSpaceOnUse"><path
         id="path6191"
         d="m 352.364,390.94 h 90.365 v -96.832 h -90.365 z" /></clipPath><clipPath
       id="clipPath6229"
       clipPathUnits="userSpaceOnUse"><path
         id="path6227"
         d="m 358.19,382.243 h 61.271 V 320.972 H 358.19 Z" /></clipPath><clipPath
       id="clipPath6245"
       clipPathUnits="userSpaceOnUse"><path
         id="path6243"
         d="m 363.421,377.012 h 71.252 v -71.251 h -71.252 z" /></clipPath><clipPath
       id="clipPath6285"
       clipPathUnits="userSpaceOnUse"><path
         id="path6283"
         d="M 0,800 H 800 V 0 H 0 Z" /></clipPath><clipPath
       id="clipPath6293"
       clipPathUnits="userSpaceOnUse"><path
         id="path6291"
         d="m 369.749,195.385 h 47.688 v -52.266 h -47.688 z" /></clipPath><clipPath
       id="clipPath6309"
       clipPathUnits="userSpaceOnUse"><path
         id="path6307"
         d="m 369.749,176.256 h 53.365 v -65.069 h -53.365 z" /></clipPath><clipPath
       id="clipPath6325"
       clipPathUnits="userSpaceOnUse"><path
         id="path6323"
         d="m 396.432,198.481 h 27.322 v -43 h -27.322 z" /></clipPath><clipPath
       id="clipPath6341"
       clipPathUnits="userSpaceOnUse"><path
         id="path6339"
         d="m 423.115,192.512 h 9.802 v -7.438 h -9.802 z" /></clipPath><clipPath
       id="clipPath6357"
       clipPathUnits="userSpaceOnUse"><path
         id="path6355"
         d="m 410.172,206.702 h 7.265 v -8.685 h -7.265 z" /></clipPath><clipPath
       id="clipPath6373"
       clipPathUnits="userSpaceOnUse"><path
         id="path6371"
         d="m 369.105,152.273 h 24.488 v -47.866 h -24.488 z" /></clipPath><clipPath
       id="clipPath6389"
       clipPathUnits="userSpaceOnUse"><path
         id="path6387"
         d="m 374.839,104.796 h 7.852 v -9.3873 h -7.852 z" /></clipPath><clipPath
       id="clipPath6405"
       clipPathUnits="userSpaceOnUse"><path
         id="path6403"
         d="m 361.115,117.795 h 8.634 v -6.607 h -8.634 z" /></clipPath><clipPath
       id="clipPath6441"
       clipPathUnits="userSpaceOnUse"><path
         id="path6439"
         d="M 0,800 H 800 V 0 H 0 Z" /></clipPath><clipPath
       id="clipPath6449"
       clipPathUnits="userSpaceOnUse"><path
         id="path6447"
         d="M 176.559,211.308 H 218.71 V 166.312 H 176.559 Z" /></clipPath><clipPath
       id="clipPath6465"
       clipPathUnits="userSpaceOnUse"><path
         id="path6463"
         d="M 135.145,136.388 H 177.32 V 89.8161 h -42.175 z" /></clipPath><clipPath
       id="clipPath6481"
       clipPathUnits="userSpaceOnUse"><path
         id="path6479"
         d="m 208.192,166.671 h 1.076 v -15.265 h -1.076 z" /></clipPath><clipPath
       id="clipPath6497"
       clipPathUnits="userSpaceOnUse"><path
         id="path6495"
         d="m 144.587,151.406 h 1.076 v -15.37 h -1.076 z" /></clipPath><clipPath
       id="clipPath6513"
       clipPathUnits="userSpaceOnUse"><path
         id="path6511"
         d="m 145.125,184.317 h 48.489 v -50.012 h -48.489 z" /></clipPath><clipPath
       id="clipPath6529"
       clipPathUnits="userSpaceOnUse"><path
         id="path6527"
         d="M 155.608,172.788 H 208.73 V 119.554 H 155.608 Z" /></clipPath><clipPath
       id="clipPath6569"
       clipPathUnits="userSpaceOnUse"><path
         id="path6567"
         d="M 0,800 H 800 V 0 H 0 Z" /></clipPath><clipPath
       id="clipPath6577"
       clipPathUnits="userSpaceOnUse"><path
         id="path6575"
         d="M 578.957,385.924 H 643.5 v -64.446 h -64.543 z" /></clipPath><clipPath
       id="clipPath6593"
       clipPathUnits="userSpaceOnUse"><path
         id="path6591"
         d="M 593.651,371.233 H 662.77 V 302.209 H 593.651 Z" /></clipPath><clipPath
       id="clipPath6609"
       clipPathUnits="userSpaceOnUse"><path
         id="path6607"
         d="m 620.94,386.88 h 42.882 V 344.002 H 620.94 Z" /></clipPath><clipPath
       id="clipPath6625"
       clipPathUnits="userSpaceOnUse"><path
         id="path6623"
         d="m 578.073,343.983 h 42.867 v -42.85 h -42.867 z" /></clipPath><clipPath
       id="clipPath6641"
       clipPathUnits="userSpaceOnUse"><path
         id="path6639"
         d="m 663.307,366.547 h 12.062 v -4.996 h -12.062 z" /></clipPath><clipPath
       id="clipPath6657"
       clipPathUnits="userSpaceOnUse"><path
         id="path6655"
         d="m 638.489,396.275 h 4.103 v -9.906 h -4.103 z" /></clipPath><clipPath
       id="clipPath6673"
       clipPathUnits="userSpaceOnUse"><path
         id="path6671"
         d="m 598.586,301.635 h 4.804 v -11.598 h -4.804 z" /></clipPath><clipPath
       id="clipPath6689"
       clipPathUnits="userSpaceOnUse"><path
         id="path6687"
         d="m 566.561,326.453 h 12.012 v -4.975 h -12.012 z" /></clipPath><clipPath
       id="clipPath6737"
       clipPathUnits="userSpaceOnUse"><path
         id="path6735"
         d="M 0,800 H 800 V 0 H 0 Z" /></clipPath><clipPath
       id="clipPath6745"
       clipPathUnits="userSpaceOnUse"><path
         id="path6743"
         d="m 577.274,196.102 h 67.932 v -64.257 h -67.932 z" /></clipPath><clipPath
       id="clipPath6761"
       clipPathUnits="userSpaceOnUse"><path
         id="path6759"
         d="m 591.339,178.514 h 72.257 v -71.803 h -72.257 z" /></clipPath><clipPath
       id="clipPath6777"
       clipPathUnits="userSpaceOnUse"><path
         id="path6775"
         d="m 620.94,196.75 h 38.846 V 173.736 H 620.94 Z" /></clipPath><clipPath
       id="clipPath6793"
       clipPathUnits="userSpaceOnUse"><path
         id="path6791"
         d="m 636.795,207.057 h 20.954 v -13.344 h -20.954 z" /></clipPath><clipPath
       id="clipPath6809"
       clipPathUnits="userSpaceOnUse"><path
         id="path6807"
         d="M 580.623,131.845 H 620.94 V 106.069 H 580.623 Z" /></clipPath><clipPath
       id="clipPath6825"
       clipPathUnits="userSpaceOnUse"><path
         id="path6823"
         d="m 583.62,109.21 h 22.994 V 94.071 H 583.62 Z" /></clipPath><clipPath
       id="clipPath6841"
       clipPathUnits="userSpaceOnUse"><path
         id="path6839"
         d="M 584.981,196.682 H 604.76 V 178.514 H 584.981 Z" /></clipPath><clipPath
       id="clipPath6857"
       clipPathUnits="userSpaceOnUse"><path
         id="path6855"
         d="m 635.186,123.168 h 21.06 v -17.079 h -21.06 z" /></clipPath><clipPath
       id="clipPath6877"
       clipPathUnits="userSpaceOnUse"><path
         id="path6875"
         d="M 0,800 H 800 V 0 H 0 Z" /></clipPath><clipPath
       id="clipPath5809-7"
       clipPathUnits="userSpaceOnUse"><path
         id="path5807-5"
         d="M 0,800 H 800 V 0 H 0 Z" /></clipPath><clipPath
       id="clipPath5817-1"
       clipPathUnits="userSpaceOnUse"><path
         id="path5815-9"
         d="m 153.323,590.286 h 23.605 v -50.575 h -23.605 z" /></clipPath><clipPath
       id="clipPath5833-6"
       clipPathUnits="userSpaceOnUse"><path
         id="path5831-0"
         d="M 121.168,572.549 H 143.92 V 540.273 H 121.168 Z" /></clipPath><clipPath
       id="clipPath5849-3"
       clipPathUnits="userSpaceOnUse"><path
         id="path5847-0"
         d="m 193.38,563.135 h 20.794 V 539.653 H 193.38 Z" /></clipPath><clipPath
       id="clipPath5893-9"
       clipPathUnits="userSpaceOnUse"><path
         id="path5891-6"
         d="M 0,800 H 800 V 0 H 0 Z" /></clipPath><clipPath
       id="clipPath5901-9"
       clipPathUnits="userSpaceOnUse"><path
         id="path5899-7"
         d="m 373.072,588.936 h 24.537 v -17.952 h -24.537 z" /></clipPath><clipPath
       id="clipPath5917-9"
       clipPathUnits="userSpaceOnUse"><path
         id="path5915-2"
         d="m 419.792,584.793 h 24.536 v -13.809 h -24.536 z" /></clipPath><clipPath
       id="clipPath5933-7"
       clipPathUnits="userSpaceOnUse"><path
         id="path5931-1"
         d="m 324.465,584.718 h 24.536 V 570.91 h -24.536 z" /></clipPath><clipPath
       id="clipPath5989-8"
       clipPathUnits="userSpaceOnUse"><path
         id="path5987-3"
         d="M 0,800 H 800 V 0 H 0 Z" /></clipPath><clipPath
       id="clipPath5997-4"
       clipPathUnits="userSpaceOnUse"><path
         id="path5995-9"
         d="m 594.889,596.435 h 26.103 v -31.28 h -26.103 z" /></clipPath><clipPath
       id="clipPath6013-8"
       clipPathUnits="userSpaceOnUse"><path
         id="path6011-8"
         d="m 633.527,588.169 h 26.389 v -23.102 h -26.389 z" /></clipPath><clipPath
       id="clipPath6029-8"
       clipPathUnits="userSpaceOnUse"><path
         id="path6027-6"
         d="m 560.012,588.74 h 24.024 v -17.561 h -24.024 z" /></clipPath><clipPath
       id="clipPath6045-1"
       clipPathUnits="userSpaceOnUse"><path
         id="path6043-9"
         d="m 607.396,540.273 h 19.67 v -31.58 h -19.67 z" /></clipPath><clipPath
       id="clipPath6073-1"
       clipPathUnits="userSpaceOnUse"><path
         id="path6071-6"
         d="M 0,800 H 800 V 0 H 0 Z" /></clipPath><clipPath
       id="clipPath6081-3"
       clipPathUnits="userSpaceOnUse"><path
         id="path6079-9"
         d="m 176.928,383.582 h 39.541 v -26.151 h -39.541 z" /></clipPath><clipPath
       id="clipPath6097-0"
       clipPathUnits="userSpaceOnUse"><path
         id="path6095-0"
         d="m 137.344,354.194 h 24.393 v -49.696 h -24.393 z" /></clipPath><clipPath
       id="clipPath6113-5"
       clipPathUnits="userSpaceOnUse"><path
         id="path6111-9"
         d="m 215.866,395.396 h 12.456 V 382.94 h -12.456 z" /></clipPath><clipPath
       id="clipPath6129-0"
       clipPathUnits="userSpaceOnUse"><path
         id="path6127-4"
         d="m 137.99,382.94 h 63.032 V 319.908 H 137.99 Z" /></clipPath><clipPath
       id="clipPath6145-7"
       clipPathUnits="userSpaceOnUse"><path
         id="path6143-6"
         d="m 143.375,377.555 h 72.491 v -72.491 h -72.491 z" /></clipPath><clipPath
       id="clipPath6185-4"
       clipPathUnits="userSpaceOnUse"><path
         id="path6183-4"
         d="M 0,800 H 800 V 0 H 0 Z" /></clipPath><clipPath
       id="clipPath6193-8"
       clipPathUnits="userSpaceOnUse"><path
         id="path6191-6"
         d="m 352.364,390.94 h 90.365 v -96.832 h -90.365 z" /></clipPath><clipPath
       id="clipPath6229-4"
       clipPathUnits="userSpaceOnUse"><path
         id="path6227-7"
         d="m 358.19,382.243 h 61.271 V 320.972 H 358.19 Z" /></clipPath><clipPath
       id="clipPath6245-0"
       clipPathUnits="userSpaceOnUse"><path
         id="path6243-4"
         d="m 363.421,377.012 h 71.252 v -71.251 h -71.252 z" /></clipPath><clipPath
       id="clipPath6285-5"
       clipPathUnits="userSpaceOnUse"><path
         id="path6283-8"
         d="M 0,800 H 800 V 0 H 0 Z" /></clipPath><clipPath
       id="clipPath6293-3"
       clipPathUnits="userSpaceOnUse"><path
         id="path6291-0"
         d="m 369.749,195.385 h 47.688 v -52.266 h -47.688 z" /></clipPath><clipPath
       id="clipPath6309-2"
       clipPathUnits="userSpaceOnUse"><path
         id="path6307-4"
         d="m 369.749,176.256 h 53.365 v -65.069 h -53.365 z" /></clipPath><clipPath
       id="clipPath6325-3"
       clipPathUnits="userSpaceOnUse"><path
         id="path6323-1"
         d="m 396.432,198.481 h 27.322 v -43 h -27.322 z" /></clipPath><clipPath
       id="clipPath6341-9"
       clipPathUnits="userSpaceOnUse"><path
         id="path6339-4"
         d="m 423.115,192.512 h 9.802 v -7.438 h -9.802 z" /></clipPath><clipPath
       id="clipPath6357-1"
       clipPathUnits="userSpaceOnUse"><path
         id="path6355-4"
         d="m 410.172,206.702 h 7.265 v -8.685 h -7.265 z" /></clipPath><clipPath
       id="clipPath6373-4"
       clipPathUnits="userSpaceOnUse"><path
         id="path6371-9"
         d="m 369.105,152.273 h 24.488 v -47.866 h -24.488 z" /></clipPath><clipPath
       id="clipPath6389-8"
       clipPathUnits="userSpaceOnUse"><path
         id="path6387-9"
         d="m 374.839,104.796 h 7.852 v -9.3873 h -7.852 z" /></clipPath><clipPath
       id="clipPath6405-5"
       clipPathUnits="userSpaceOnUse"><path
         id="path6403-0"
         d="m 361.115,117.795 h 8.634 v -6.607 h -8.634 z" /></clipPath><clipPath
       id="clipPath6441-9"
       clipPathUnits="userSpaceOnUse"><path
         id="path6439-6"
         d="M 0,800 H 800 V 0 H 0 Z" /></clipPath><clipPath
       id="clipPath6449-3"
       clipPathUnits="userSpaceOnUse"><path
         id="path6447-5"
         d="M 176.559,211.308 H 218.71 V 166.312 H 176.559 Z" /></clipPath><clipPath
       id="clipPath6465-6"
       clipPathUnits="userSpaceOnUse"><path
         id="path6463-3"
         d="M 135.145,136.388 H 177.32 V 89.8161 h -42.175 z" /></clipPath><clipPath
       id="clipPath6481-4"
       clipPathUnits="userSpaceOnUse"><path
         id="path6479-7"
         d="m 208.192,166.671 h 1.076 v -15.265 h -1.076 z" /></clipPath><clipPath
       id="clipPath6497-1"
       clipPathUnits="userSpaceOnUse"><path
         id="path6495-3"
         d="m 144.587,151.406 h 1.076 v -15.37 h -1.076 z" /></clipPath><clipPath
       id="clipPath6513-9"
       clipPathUnits="userSpaceOnUse"><path
         id="path6511-8"
         d="m 145.125,184.317 h 48.489 v -50.012 h -48.489 z" /></clipPath><clipPath
       id="clipPath6529-3"
       clipPathUnits="userSpaceOnUse"><path
         id="path6527-4"
         d="M 155.608,172.788 H 208.73 V 119.554 H 155.608 Z" /></clipPath></defs><g
     transform="translate(275.92795,430.22371)"
     id="layer4"><g
       transform="matrix(2.0232863,0,0,2.0232863,344.27345,25.242842)"
       id="g6941"><g
         id="g6415"
         transform="matrix(1.3333333,0,0,-1.3333333,-207.68262,-222.30264)"><path
           d="m 0,0 -51.184,-48.42 v -47.339 l 51.184,-48.3 51.184,48.3 v 47.339 z"
           style="fill:#2fdcff;fill-opacity:1;fill-rule:nonzero;stroke:none"
           id="path6417" /></g><g
         id="g6419"
         transform="matrix(1.3333333,0,0,-1.3333333,-250.08635,-105.76878)"><path
           d="M 0,0 V 30.635 L 31.803,60.721 63.605,30.635 V 0 L 31.803,-30.011 Z"
           style="fill:#c1fdff;fill-opacity:1;fill-rule:nonzero;stroke:none"
           id="path6421" /></g><g
         id="g6423"
         transform="matrix(1.3333333,0,0,-1.3333333,-207.68262,-222.30264)"><path
           d="m 0,0 v -26.68 l 31.802,-30.085 19.382,8.345 z"
           style="fill:#93f0ff;fill-opacity:1;fill-rule:nonzero;stroke:none"
           id="path6425" /></g><g
         id="g6427"
         transform="matrix(1.3333333,0,0,-1.3333333,-139.43769,-94.623708)"><path
           d="M 0,0 -19.381,8.359 -51.184,-21.652 V -48.3 Z"
           style="fill:#93f0ff;fill-opacity:1;fill-rule:nonzero;stroke:none"
           id="path6429" /></g><g
         id="g6431"
         transform="matrix(1.3333333,0,0,-1.3333333,-275.92755,-157.74237)"><path
           d="M 0,0 19.381,-8.345 V -38.98 L 0,-47.339 Z"
           style="fill:#93f0ff;fill-opacity:1;fill-rule:nonzero;stroke:none"
           id="path6433" /></g><g
         transform="matrix(1.3333333,0,0,-1.3333333,-443.58635,75.61202)"
         id="g6435"><g
           id="g6437"
           clip-path="url(#clipPath6441-9)"><g
             id="g6443"><g
               id="g6445" /><g
               id="g6457"><g
                 clip-path="url(#clipPath6449-3)"
                 id="g6455"><g
                   transform="translate(176.9276,211.3077)"
                   id="g6453"><path
                     d="m 0,0 c 0.101,-2.425 0.152,-4.85 0.224,-7.275 0.076,-2.426 0.092,-4.851 0.141,-7.276 l -0.114,0.265 c 2.703,-2.451 5.377,-4.933 8.034,-7.433 2.658,-2.499 5.342,-4.97 7.98,-7.491 l 7.908,-7.566 c 2.641,-2.517 5.223,-5.095 7.838,-7.64 l -0.329,0.059 c 1.673,0.695 3.359,1.359 5.042,2.028 1.683,0.672 3.366,1.342 5.059,1.989 -1.634,-0.785 -3.278,-1.546 -4.922,-2.308 -1.643,-0.762 -3.284,-1.531 -4.938,-2.268 l -0.179,-0.08 -0.15,0.139 c -2.686,2.469 -5.404,4.905 -8.063,7.403 l -7.993,7.476 c -2.663,2.494 -5.28,5.036 -7.922,7.552 -2.643,2.514 -5.27,5.046 -7.867,7.609 l -0.117,0.116 0.003,0.15 c 0.049,2.425 0.065,4.85 0.141,7.276 C -0.152,-4.85 -0.101,-2.425 0,0"
                     style="fill:#ffffff;fill-opacity:1;fill-rule:nonzero;stroke:none"
                     id="path6451" /></g></g></g></g><g
             id="g6459"><g
               id="g6461" /><g
               id="g6473"><g
                 clip-path="url(#clipPath6465-6)"
                 id="g6471"><g
                   transform="translate(135.1453,131.7314)"
                   id="g6469"><path
                     d="m 0,0 c 1.635,0.784 3.278,1.547 4.923,2.308 1.644,0.76 3.284,1.533 4.938,2.27 l 0.176,0.079 0.148,-0.136 c 2.686,-2.462 5.395,-4.901 8.063,-7.383 l 7.992,-7.459 c 2.678,-2.472 5.285,-5.018 7.93,-7.524 2.635,-2.517 5.283,-5.021 7.879,-7.578 l 0.125,-0.124 -0.003,-0.16 -0.145,-8.104 c -0.08,-2.701 -0.132,-5.403 -0.244,-8.104 -0.111,2.701 -0.163,5.403 -0.243,8.104 l -0.146,8.104 0.122,-0.283 c -2.704,2.444 -5.356,4.943 -8.022,7.427 -2.655,2.496 -5.348,4.951 -7.971,7.481 l -7.909,7.547 C 14.98,-1.016 12.389,1.548 9.775,4.087 L 10.098,4.03 C 8.426,3.332 6.739,2.671 5.057,1.997 3.375,1.322 1.692,0.651 0,0"
                     style="fill:#ffffff;fill-opacity:1;fill-rule:nonzero;stroke:none"
                     id="path6467" /></g></g></g></g><g
             id="g6475"><g
               id="g6477" /><g
               id="g6489"><g
                 clip-path="url(#clipPath6481-4)"
                 id="g6487"><g
                   transform="translate(208.7302,166.671)"
                   id="g6485"><path
                     d="M 0,0 C 0,0 0.18,-0.954 0.308,-2.385 0.444,-3.816 0.534,-5.724 0.538,-7.632 0.535,-9.54 0.446,-11.449 0.309,-12.88 0.181,-14.311 0,-15.265 0,-15.265 c 0,0 -0.181,0.954 -0.309,2.385 -0.137,1.431 -0.226,3.34 -0.229,5.248 0.004,1.908 0.094,3.816 0.23,5.247 C -0.18,-0.954 0,0 0,0"
                     style="fill:#ffffff;fill-opacity:1;fill-rule:nonzero;stroke:none"
                     id="path6483" /></g></g></g></g><g
             id="g6491"><g
               id="g6493" /><g
               id="g6505"><g
                 clip-path="url(#clipPath6497-1)"
                 id="g6503"><g
                   transform="translate(145.125,136.0356)"
                   id="g6501"><path
                     d="m 0,0 c 0,0 -0.18,0.961 -0.308,2.402 -0.136,1.441 -0.226,3.362 -0.23,5.283 0.003,1.922 0.092,3.843 0.229,5.284 C -0.181,14.41 0,15.371 0,15.371 0,15.371 0.181,14.41 0.309,12.969 0.446,11.528 0.535,9.607 0.538,7.685 0.534,5.764 0.444,3.843 0.308,2.402 0.18,0.961 0,0 0,0"
                     style="fill:#ffffff;fill-opacity:1;fill-rule:nonzero;stroke:none"
                     id="path6499" /></g></g></g></g><g
             id="g6507"><g
               id="g6509" /><g
               id="g6521"><g
                 clip-path="url(#clipPath6513-9)"
                 id="g6519"><g
                   transform="translate(190.0714,184.3168)"
                   id="g6517"><path
                     d="m 0,0 h -0.719 l -44.227,-44.227 v -4.06 l 1.827,-1.725 46.661,46.661 z"
                     style="fill:#ffffff;fill-opacity:1;fill-rule:nonzero;stroke:none"
                     id="path6515" /></g></g></g></g><g
             id="g6523"><g
               id="g6525" /><g
               id="g6537"><g
                 clip-path="url(#clipPath6529-3)"
                 id="g6535"><g
                   transform="translate(162.5847,119.5538)"
                   id="g6533"><path
                     d="m 0,0 h 1.667 l 44.478,44.479 v 2.632 L 39.674,53.234 -6.977,6.583 Z"
                     style="fill:#ffffff;fill-opacity:1;fill-rule:nonzero;stroke:none"
                     id="path6531" /></g></g></g></g></g></g></g></g></svg>