<?xml version="1.0" encoding="UTF-8" standalone="no"?>
<!-- Created with Inkscape (http://www.inkscape.org/) -->

<svg
   xmlns:dc="http://purl.org/dc/elements/1.1/"
   xmlns:cc="http://creativecommons.org/ns#"
   xmlns:rdf="http://www.w3.org/1999/02/22-rdf-syntax-ns#"
   xmlns:svg="http://www.w3.org/2000/svg"
   xmlns="http://www.w3.org/2000/svg"
   xmlns:sodipodi="http://sodipodi.sourceforge.net/DTD/sodipodi-0.dtd"
   xmlns:inkscape="http://www.inkscape.org/namespaces/inkscape"
   version="1.1"
   id="svg5775"
   xml:space="preserve"
   width="400"
   height="400"
   viewBox="0 0 399.99999 399.99999"
   sodipodi:docname="time_stone.svg"
   inkscape:version="0.92.3 (2405546, 2018-03-11)"><metadata
     id="metadata5781"><rdf:RDF><cc:Work
         rdf:about=""><dc:format>image/svg+xml</dc:format><dc:type
           rdf:resource="http://purl.org/dc/dcmitype/StillImage" /><dc:title></dc:title></cc:Work></rdf:RDF></metadata><defs
     id="defs5779"><clipPath
       clipPathUnits="userSpaceOnUse"
       id="clipPath5809"><path
         d="M 0,800 H 800 V 0 H 0 Z"
         id="path5807"
         inkscape:connector-curvature="0" /></clipPath><clipPath
       clipPathUnits="userSpaceOnUse"
       id="clipPath5817"><path
         d="m 153.323,590.286 h 23.605 v -50.575 h -23.605 z"
         id="path5815"
         inkscape:connector-curvature="0" /></clipPath><clipPath
       clipPathUnits="userSpaceOnUse"
       id="clipPath5833"><path
         d="M 121.168,572.549 H 143.92 V 540.273 H 121.168 Z"
         id="path5831"
         inkscape:connector-curvature="0" /></clipPath><clipPath
       clipPathUnits="userSpaceOnUse"
       id="clipPath5849"><path
         d="m 193.38,563.135 h 20.794 V 539.653 H 193.38 Z"
         id="path5847"
         inkscape:connector-curvature="0" /></clipPath><clipPath
       clipPathUnits="userSpaceOnUse"
       id="clipPath5893"><path
         d="M 0,800 H 800 V 0 H 0 Z"
         id="path5891"
         inkscape:connector-curvature="0" /></clipPath><clipPath
       clipPathUnits="userSpaceOnUse"
       id="clipPath5901"><path
         d="m 373.072,588.936 h 24.537 v -17.952 h -24.537 z"
         id="path5899"
         inkscape:connector-curvature="0" /></clipPath><clipPath
       clipPathUnits="userSpaceOnUse"
       id="clipPath5917"><path
         d="m 419.792,584.793 h 24.536 v -13.809 h -24.536 z"
         id="path5915"
         inkscape:connector-curvature="0" /></clipPath><clipPath
       clipPathUnits="userSpaceOnUse"
       id="clipPath5933"><path
         d="m 324.465,584.718 h 24.536 V 570.91 h -24.536 z"
         id="path5931"
         inkscape:connector-curvature="0" /></clipPath><clipPath
       clipPathUnits="userSpaceOnUse"
       id="clipPath5989"><path
         d="M 0,800 H 800 V 0 H 0 Z"
         id="path5987"
         inkscape:connector-curvature="0" /></clipPath><clipPath
       clipPathUnits="userSpaceOnUse"
       id="clipPath5997"><path
         d="m 594.889,596.435 h 26.103 v -31.28 h -26.103 z"
         id="path5995"
         inkscape:connector-curvature="0" /></clipPath><clipPath
       clipPathUnits="userSpaceOnUse"
       id="clipPath6013"><path
         d="m 633.527,588.169 h 26.389 v -23.102 h -26.389 z"
         id="path6011"
         inkscape:connector-curvature="0" /></clipPath><clipPath
       clipPathUnits="userSpaceOnUse"
       id="clipPath6029"><path
         d="m 560.012,588.74 h 24.024 v -17.561 h -24.024 z"
         id="path6027"
         inkscape:connector-curvature="0" /></clipPath><clipPath
       clipPathUnits="userSpaceOnUse"
       id="clipPath6045"><path
         d="m 607.396,540.273 h 19.67 v -31.58 h -19.67 z"
         id="path6043"
         inkscape:connector-curvature="0" /></clipPath><clipPath
       clipPathUnits="userSpaceOnUse"
       id="clipPath6073"><path
         d="M 0,800 H 800 V 0 H 0 Z"
         id="path6071"
         inkscape:connector-curvature="0" /></clipPath><clipPath
       clipPathUnits="userSpaceOnUse"
       id="clipPath6081"><path
         d="m 176.928,383.582 h 39.541 v -26.151 h -39.541 z"
         id="path6079"
         inkscape:connector-curvature="0" /></clipPath><clipPath
       clipPathUnits="userSpaceOnUse"
       id="clipPath6097"><path
         d="m 137.344,354.194 h 24.393 v -49.696 h -24.393 z"
         id="path6095"
         inkscape:connector-curvature="0" /></clipPath><clipPath
       clipPathUnits="userSpaceOnUse"
       id="clipPath6113"><path
         d="m 215.866,395.396 h 12.456 V 382.94 h -12.456 z"
         id="path6111"
         inkscape:connector-curvature="0" /></clipPath><clipPath
       clipPathUnits="userSpaceOnUse"
       id="clipPath6129"><path
         d="m 137.99,382.94 h 63.032 V 319.908 H 137.99 Z"
         id="path6127"
         inkscape:connector-curvature="0" /></clipPath><clipPath
       clipPathUnits="userSpaceOnUse"
       id="clipPath6145"><path
         d="m 143.375,377.555 h 72.491 v -72.491 h -72.491 z"
         id="path6143"
         inkscape:connector-curvature="0" /></clipPath><clipPath
       clipPathUnits="userSpaceOnUse"
       id="clipPath6185"><path
         d="M 0,800 H 800 V 0 H 0 Z"
         id="path6183"
         inkscape:connector-curvature="0" /></clipPath><clipPath
       clipPathUnits="userSpaceOnUse"
       id="clipPath6193"><path
         d="m 352.364,390.94 h 90.365 v -96.832 h -90.365 z"
         id="path6191"
         inkscape:connector-curvature="0" /></clipPath><clipPath
       clipPathUnits="userSpaceOnUse"
       id="clipPath6229"><path
         d="m 358.19,382.243 h 61.271 V 320.972 H 358.19 Z"
         id="path6227"
         inkscape:connector-curvature="0" /></clipPath><clipPath
       clipPathUnits="userSpaceOnUse"
       id="clipPath6245"><path
         d="m 363.421,377.012 h 71.252 v -71.251 h -71.252 z"
         id="path6243"
         inkscape:connector-curvature="0" /></clipPath><clipPath
       clipPathUnits="userSpaceOnUse"
       id="clipPath6285"><path
         d="M 0,800 H 800 V 0 H 0 Z"
         id="path6283"
         inkscape:connector-curvature="0" /></clipPath><clipPath
       clipPathUnits="userSpaceOnUse"
       id="clipPath6293"><path
         d="m 369.749,195.385 h 47.688 v -52.266 h -47.688 z"
         id="path6291"
         inkscape:connector-curvature="0" /></clipPath><clipPath
       clipPathUnits="userSpaceOnUse"
       id="clipPath6309"><path
         d="m 369.749,176.256 h 53.365 v -65.069 h -53.365 z"
         id="path6307"
         inkscape:connector-curvature="0" /></clipPath><clipPath
       clipPathUnits="userSpaceOnUse"
       id="clipPath6325"><path
         d="m 396.432,198.481 h 27.322 v -43 h -27.322 z"
         id="path6323"
         inkscape:connector-curvature="0" /></clipPath><clipPath
       clipPathUnits="userSpaceOnUse"
       id="clipPath6341"><path
         d="m 423.115,192.512 h 9.802 v -7.438 h -9.802 z"
         id="path6339"
         inkscape:connector-curvature="0" /></clipPath><clipPath
       clipPathUnits="userSpaceOnUse"
       id="clipPath6357"><path
         d="m 410.172,206.702 h 7.265 v -8.685 h -7.265 z"
         id="path6355"
         inkscape:connector-curvature="0" /></clipPath><clipPath
       clipPathUnits="userSpaceOnUse"
       id="clipPath6373"><path
         d="m 369.105,152.273 h 24.488 v -47.866 h -24.488 z"
         id="path6371"
         inkscape:connector-curvature="0" /></clipPath><clipPath
       clipPathUnits="userSpaceOnUse"
       id="clipPath6389"><path
         d="m 374.839,104.796 h 7.852 v -9.3873 h -7.852 z"
         id="path6387"
         inkscape:connector-curvature="0" /></clipPath><clipPath
       clipPathUnits="userSpaceOnUse"
       id="clipPath6405"><path
         d="m 361.115,117.795 h 8.634 v -6.607 h -8.634 z"
         id="path6403"
         inkscape:connector-curvature="0" /></clipPath><clipPath
       clipPathUnits="userSpaceOnUse"
       id="clipPath6441"><path
         d="M 0,800 H 800 V 0 H 0 Z"
         id="path6439"
         inkscape:connector-curvature="0" /></clipPath><clipPath
       clipPathUnits="userSpaceOnUse"
       id="clipPath6449"><path
         d="M 176.559,211.308 H 218.71 V 166.312 H 176.559 Z"
         id="path6447"
         inkscape:connector-curvature="0" /></clipPath><clipPath
       clipPathUnits="userSpaceOnUse"
       id="clipPath6465"><path
         d="M 135.145,136.388 H 177.32 V 89.8161 h -42.175 z"
         id="path6463"
         inkscape:connector-curvature="0" /></clipPath><clipPath
       clipPathUnits="userSpaceOnUse"
       id="clipPath6481"><path
         d="m 208.192,166.671 h 1.076 v -15.265 h -1.076 z"
         id="path6479"
         inkscape:connector-curvature="0" /></clipPath><clipPath
       clipPathUnits="userSpaceOnUse"
       id="clipPath6497"><path
         d="m 144.587,151.406 h 1.076 v -15.37 h -1.076 z"
         id="path6495"
         inkscape:connector-curvature="0" /></clipPath><clipPath
       clipPathUnits="userSpaceOnUse"
       id="clipPath6513"><path
         d="m 145.125,184.317 h 48.489 v -50.012 h -48.489 z"
         id="path6511"
         inkscape:connector-curvature="0" /></clipPath><clipPath
       clipPathUnits="userSpaceOnUse"
       id="clipPath6529"><path
         d="M 155.608,172.788 H 208.73 V 119.554 H 155.608 Z"
         id="path6527"
         inkscape:connector-curvature="0" /></clipPath><clipPath
       clipPathUnits="userSpaceOnUse"
       id="clipPath6569"><path
         d="M 0,800 H 800 V 0 H 0 Z"
         id="path6567"
         inkscape:connector-curvature="0" /></clipPath><clipPath
       clipPathUnits="userSpaceOnUse"
       id="clipPath6577"><path
         d="M 578.957,385.924 H 643.5 v -64.446 h -64.543 z"
         id="path6575"
         inkscape:connector-curvature="0" /></clipPath><clipPath
       clipPathUnits="userSpaceOnUse"
       id="clipPath6593"><path
         d="M 593.651,371.233 H 662.77 V 302.209 H 593.651 Z"
         id="path6591"
         inkscape:connector-curvature="0" /></clipPath><clipPath
       clipPathUnits="userSpaceOnUse"
       id="clipPath6609"><path
         d="m 620.94,386.88 h 42.882 V 344.002 H 620.94 Z"
         id="path6607"
         inkscape:connector-curvature="0" /></clipPath><clipPath
       clipPathUnits="userSpaceOnUse"
       id="clipPath6625"><path
         d="m 578.073,343.983 h 42.867 v -42.85 h -42.867 z"
         id="path6623"
         inkscape:connector-curvature="0" /></clipPath><clipPath
       clipPathUnits="userSpaceOnUse"
       id="clipPath6641"><path
         d="m 663.307,366.547 h 12.062 v -4.996 h -12.062 z"
         id="path6639"
         inkscape:connector-curvature="0" /></clipPath><clipPath
       clipPathUnits="userSpaceOnUse"
       id="clipPath6657"><path
         d="m 638.489,396.275 h 4.103 v -9.906 h -4.103 z"
         id="path6655"
         inkscape:connector-curvature="0" /></clipPath><clipPath
       clipPathUnits="userSpaceOnUse"
       id="clipPath6673"><path
         d="m 598.586,301.635 h 4.804 v -11.598 h -4.804 z"
         id="path6671"
         inkscape:connector-curvature="0" /></clipPath><clipPath
       clipPathUnits="userSpaceOnUse"
       id="clipPath6689"><path
         d="m 566.561,326.453 h 12.012 v -4.975 h -12.012 z"
         id="path6687"
         inkscape:connector-curvature="0" /></clipPath><clipPath
       clipPathUnits="userSpaceOnUse"
       id="clipPath6737"><path
         d="M 0,800 H 800 V 0 H 0 Z"
         id="path6735"
         inkscape:connector-curvature="0" /></clipPath><clipPath
       clipPathUnits="userSpaceOnUse"
       id="clipPath6745"><path
         d="m 577.274,196.102 h 67.932 v -64.257 h -67.932 z"
         id="path6743"
         inkscape:connector-curvature="0" /></clipPath><clipPath
       clipPathUnits="userSpaceOnUse"
       id="clipPath6761"><path
         d="m 591.339,178.514 h 72.257 v -71.803 h -72.257 z"
         id="path6759"
         inkscape:connector-curvature="0" /></clipPath><clipPath
       clipPathUnits="userSpaceOnUse"
       id="clipPath6777"><path
         d="m 620.94,196.75 h 38.846 V 173.736 H 620.94 Z"
         id="path6775"
         inkscape:connector-curvature="0" /></clipPath><clipPath
       clipPathUnits="userSpaceOnUse"
       id="clipPath6793"><path
         d="m 636.795,207.057 h 20.954 v -13.344 h -20.954 z"
         id="path6791"
         inkscape:connector-curvature="0" /></clipPath><clipPath
       clipPathUnits="userSpaceOnUse"
       id="clipPath6809"><path
         d="M 580.623,131.845 H 620.94 V 106.069 H 580.623 Z"
         id="path6807"
         inkscape:connector-curvature="0" /></clipPath><clipPath
       clipPathUnits="userSpaceOnUse"
       id="clipPath6825"><path
         d="m 583.62,109.21 h 22.994 V 94.071 H 583.62 Z"
         id="path6823"
         inkscape:connector-curvature="0" /></clipPath><clipPath
       clipPathUnits="userSpaceOnUse"
       id="clipPath6841"><path
         d="M 584.981,196.682 H 604.76 V 178.514 H 584.981 Z"
         id="path6839"
         inkscape:connector-curvature="0" /></clipPath><clipPath
       clipPathUnits="userSpaceOnUse"
       id="clipPath6857"><path
         d="m 635.186,123.168 h 21.06 v -17.079 h -21.06 z"
         id="path6855"
         inkscape:connector-curvature="0" /></clipPath><clipPath
       clipPathUnits="userSpaceOnUse"
       id="clipPath6877"><path
         d="M 0,800 H 800 V 0 H 0 Z"
         id="path6875"
         inkscape:connector-curvature="0" /></clipPath><clipPath
       clipPathUnits="userSpaceOnUse"
       id="clipPath5809-7"><path
         d="M 0,800 H 800 V 0 H 0 Z"
         id="path5807-5"
         inkscape:connector-curvature="0" /></clipPath><clipPath
       clipPathUnits="userSpaceOnUse"
       id="clipPath5817-1"><path
         d="m 153.323,590.286 h 23.605 v -50.575 h -23.605 z"
         id="path5815-9"
         inkscape:connector-curvature="0" /></clipPath><clipPath
       clipPathUnits="userSpaceOnUse"
       id="clipPath5833-6"><path
         d="M 121.168,572.549 H 143.92 V 540.273 H 121.168 Z"
         id="path5831-0"
         inkscape:connector-curvature="0" /></clipPath><clipPath
       clipPathUnits="userSpaceOnUse"
       id="clipPath5849-3"><path
         d="m 193.38,563.135 h 20.794 V 539.653 H 193.38 Z"
         id="path5847-0"
         inkscape:connector-curvature="0" /></clipPath><clipPath
       clipPathUnits="userSpaceOnUse"
       id="clipPath5893-9"><path
         d="M 0,800 H 800 V 0 H 0 Z"
         id="path5891-6"
         inkscape:connector-curvature="0" /></clipPath><clipPath
       clipPathUnits="userSpaceOnUse"
       id="clipPath5901-9"><path
         d="m 373.072,588.936 h 24.537 v -17.952 h -24.537 z"
         id="path5899-7"
         inkscape:connector-curvature="0" /></clipPath><clipPath
       clipPathUnits="userSpaceOnUse"
       id="clipPath5917-9"><path
         d="m 419.792,584.793 h 24.536 v -13.809 h -24.536 z"
         id="path5915-2"
         inkscape:connector-curvature="0" /></clipPath><clipPath
       clipPathUnits="userSpaceOnUse"
       id="clipPath5933-7"><path
         d="m 324.465,584.718 h 24.536 V 570.91 h -24.536 z"
         id="path5931-1"
         inkscape:connector-curvature="0" /></clipPath><clipPath
       clipPathUnits="userSpaceOnUse"
       id="clipPath5989-8"><path
         d="M 0,800 H 800 V 0 H 0 Z"
         id="path5987-3"
         inkscape:connector-curvature="0" /></clipPath><clipPath
       clipPathUnits="userSpaceOnUse"
       id="clipPath5997-4"><path
         d="m 594.889,596.435 h 26.103 v -31.28 h -26.103 z"
         id="path5995-9"
         inkscape:connector-curvature="0" /></clipPath><clipPath
       clipPathUnits="userSpaceOnUse"
       id="clipPath6013-8"><path
         d="m 633.527,588.169 h 26.389 v -23.102 h -26.389 z"
         id="path6011-8"
         inkscape:connector-curvature="0" /></clipPath><clipPath
       clipPathUnits="userSpaceOnUse"
       id="clipPath6029-8"><path
         d="m 560.012,588.74 h 24.024 v -17.561 h -24.024 z"
         id="path6027-6"
         inkscape:connector-curvature="0" /></clipPath><clipPath
       clipPathUnits="userSpaceOnUse"
       id="clipPath6045-1"><path
         d="m 607.396,540.273 h 19.67 v -31.58 h -19.67 z"
         id="path6043-9"
         inkscape:connector-curvature="0" /></clipPath></defs><sodipodi:namedview
     pagecolor="#ffffff"
     bordercolor="#666666"
     borderopacity="1"
     objecttolerance="10"
     gridtolerance="10"
     guidetolerance="10"
     inkscape:pageopacity="0"
     inkscape:pageshadow="2"
     inkscape:window-width="1920"
     inkscape:window-height="1017"
     id="namedview5777"
     showgrid="false"
     inkscape:zoom="1.2515789"
     inkscape:cx="68.171644"
     inkscape:cy="146.57001"
     inkscape:window-x="1912"
     inkscape:window-y="-8"
     inkscape:window-maximized="1"
     inkscape:current-layer="layer4" /><g
     inkscape:groupmode="layer"
     id="layer4"
     inkscape:label="105845-OMYTSO-888"
     transform="translate(360.56265,390.85643)"><g
       id="g13985"
       transform="translate(33.235044,-7.599971)"><g
         transform="matrix(2.7370955,0,0,-2.7370955,-360.27821,-87.057132)"
         id="g5943"><path
           inkscape:connector-curvature="0"
           id="path5945"
           style="fill:#64d246;fill-opacity:1;fill-rule:nonzero;stroke:none"
           d="M 0,0 V 70.293 L 60.876,105.44 121.751,70.293 V 0 L 60.876,-35.147 Z" /></g><g
         transform="matrix(2.7370955,0,0,-2.7370955,-193.6556,-375.65592)"
         id="g5947"><path
           inkscape:connector-curvature="0"
           id="path5949"
           style="fill:#a0dc50;fill-opacity:1;fill-rule:nonzero;stroke:none"
           d="M 0,0 25.072,-44.794 H 0 -25.072 Z" /></g><g
         transform="matrix(2.7370955,0,0,-2.7370955,-262.27952,-253.04963)"
         id="g5951"><path
           inkscape:connector-curvature="0"
           id="path5953"
           style="fill:#64d246;fill-opacity:1;fill-rule:nonzero;stroke:none"
           d="M 0,0 -35.804,9.648 25.072,44.794 Z" /></g><g
         transform="matrix(2.7370955,0,0,-2.7370955,-125.03168,-253.04963)"
         id="g5955"><path
           inkscape:connector-curvature="0"
           id="path5957"
           style="fill:#64d246;fill-opacity:1;fill-rule:nonzero;stroke:none"
           d="M 0,0 35.804,9.648 -25.072,44.794 Z" /></g><g
         transform="matrix(2.7370955,0,0,-2.7370955,-262.27952,-253.04963)"
         id="g5959"><path
           inkscape:connector-curvature="0"
           id="path5961"
           style="fill:#2ea051;fill-opacity:1;fill-rule:nonzero;stroke:none"
           d="M 0,0 -35.804,-60.646 V 9.648 Z" /></g><g
         transform="matrix(2.7370955,0,0,-2.7370955,-360.27821,-87.057132)"
         id="g5963"><path
           inkscape:connector-curvature="0"
           id="path5965"
           style="fill:#37c551;fill-opacity:1;fill-rule:nonzero;stroke:none"
           d="M 0,0 60.876,4.936 35.804,60.646 Z" /></g><g
         transform="matrix(2.7370955,0,0,-2.7370955,-125.03168,-253.04963)"
         id="g5967"><path
           inkscape:connector-curvature="0"
           id="path5969"
           style="fill:#37c551;fill-opacity:1;fill-rule:nonzero;stroke:none"
           d="M 0,0 35.804,-60.646 V 9.648 Z" /></g><g
         transform="matrix(2.7370955,0,0,-2.7370955,-27.032986,-87.057132)"
         id="g5971"><path
           inkscape:connector-curvature="0"
           id="path5973"
           style="fill:#2ea051;fill-opacity:1;fill-rule:nonzero;stroke:none"
           d="m 0,0 -60.876,4.936 25.072,55.71 z" /></g><g
         transform="matrix(2.7370955,0,0,-2.7370955,-193.6556,-100.5688)"
         id="g5975"><path
           inkscape:connector-curvature="0"
           id="path5977"
           style="fill:#2ea051;fill-opacity:1;fill-rule:nonzero;stroke:none"
           d="M 0,0 V -40.083 L -60.876,-4.936 Z" /></g><g
         transform="matrix(2.7370955,0,0,-2.7370955,-193.65615,-100.5688)"
         id="g5979"><path
           inkscape:connector-curvature="0"
           id="path5981"
           style="fill:#37c551;fill-opacity:1;fill-rule:nonzero;stroke:none"
           d="M 0,0 V -40.083 L 60.876,-4.936 Z" /></g><g
         id="g5983"
         transform="matrix(2.7370955,0,0,-2.7370955,-1893.369,1295.5221)"><g
           clip-path="url(#clipPath5989-8)"
           id="g5985"><g
             id="g5991"><g
               id="g5993" /><g
               id="g6005"><g
                 id="g6003"
                 clip-path="url(#clipPath5997-4)"><g
                   id="g6001"
                   transform="translate(613.0822,596.4348)"><path
                     inkscape:connector-curvature="0"
                     id="path5999"
                     style="fill:#ffffff;fill-opacity:1;fill-rule:nonzero;stroke:none"
                     d="m 0,0 c -1.293,-2.632 -2.638,-5.235 -3.987,-7.836 l -4.115,-7.763 -4.231,-7.7 c -1.395,-2.574 -2.841,-5.121 -4.298,-7.661 l -0.531,0.906 6.268,-0.049 c 2.089,-10e-4 4.178,-0.081 6.267,-0.121 2.09,-0.059 4.179,-0.078 6.269,-0.17 2.089,-0.086 4.178,-0.148 6.267,-0.269 -2.089,-0.121 -4.178,-0.183 -6.267,-0.268 -2.09,-0.093 -4.179,-0.111 -6.269,-0.17 -2.089,-0.041 -4.178,-0.121 -6.267,-0.122 l -6.268,-0.049 -1.031,-0.008 0.5,0.914 c 1.403,2.571 2.817,5.135 4.282,7.671 l 4.351,7.632 4.465,7.567 C -3.083,-4.986 -1.567,-2.479 0,0" /></g></g></g></g><g
             id="g6007"><g
               id="g6009" /><g
               id="g6021"><g
                 id="g6019"
                 clip-path="url(#clipPath6013-8)"><g
                   id="g6017"
                   transform="translate(633.5275,588.1691)"><path
                     inkscape:connector-curvature="0"
                     id="path6015"
                     style="fill:#ffffff;fill-opacity:1;fill-rule:nonzero;stroke:none"
                     d="m 0,0 c 1.187,-1.787 2.343,-3.591 3.456,-5.419 1.101,-1.835 2.242,-3.647 3.311,-5.5 2.17,-3.688 4.253,-7.424 6.293,-11.185 l -0.68,0.287 c 2.315,0.596 4.647,1.134 6.979,1.67 1.165,0.273 2.331,0.542 3.506,0.776 1.172,0.243 2.343,0.496 3.524,0.707 -1.128,-0.412 -2.266,-0.781 -3.402,-1.16 -1.134,-0.389 -2.277,-0.742 -3.421,-1.09 -2.285,-0.709 -4.572,-1.415 -6.873,-2.063 l -0.444,-0.125 -0.237,0.411 c -2.139,3.706 -4.235,7.435 -6.243,11.213 -1.021,1.88 -1.969,3.8 -2.957,5.699 C 1.836,-3.875 0.903,-1.946 0,0" /></g></g></g></g><g
             id="g6023"><g
               id="g6025" /><g
               id="g6037"><g
                 id="g6035"
                 clip-path="url(#clipPath6029-8)"><g
                   id="g6033"
                   transform="translate(581.1426,587.2889)"><path
                     inkscape:connector-curvature="0"
                     id="path6031"
                     style="fill:#ffffff;fill-opacity:1;fill-rule:nonzero;stroke:none"
                     d="m 0,0 c -0.959,-0.495 -1.926,-0.973 -2.87,-1.496 -1.896,-1.033 -3.805,-2.039 -5.69,-3.093 -3.774,-2.097 -7.498,-4.294 -11.211,-6.511 l -1.36,-0.812 1.495,-0.406 c 2.587,-0.704 5.18,-1.378 7.786,-2.006 1.302,-0.318 2.598,-0.658 3.91,-0.936 1.309,-0.289 2.614,-0.596 3.932,-0.85 -1.26,0.485 -2.532,0.917 -3.801,1.366 -1.265,0.46 -2.547,0.858 -3.823,1.279 -2.07,0.689 -4.152,1.331 -6.235,1.969 3.302,1.912 6.596,3.843 9.847,5.857 1.843,1.134 3.662,2.316 5.494,3.472 0.92,0.571 1.817,1.187 2.721,1.786 0.906,0.6 1.809,1.203 2.698,1.832 C 1.92,0.986 0.959,0.494 0,0" /></g></g></g></g><g
             id="g6039"><g
               id="g6041" /><g
               id="g6053"><g
                 id="g6051"
                 clip-path="url(#clipPath6045-1)"><g
                   id="g6049"
                   transform="translate(607.3955,540.2731)"><path
                     inkscape:connector-curvature="0"
                     id="path6047"
                     style="fill:#ffffff;fill-opacity:1;fill-rule:nonzero;stroke:none"
                     d="m 0,0 c 0.657,-1.218 1.278,-2.452 1.906,-3.683 0.635,-1.228 1.249,-2.466 1.845,-3.711 1.205,-2.485 2.429,-4.962 3.585,-7.469 1.178,-2.497 2.309,-5.016 3.448,-7.53 1.124,-2.522 2.242,-5.046 3.327,-7.585 h -1.03 c 1.048,2.233 2.15,4.443 3.223,6.665 0.53,1.114 1.101,2.21 1.661,3.311 0.558,1.101 1.119,2.201 1.706,3.29 -0.426,-1.161 -0.878,-2.311 -1.331,-3.459 -0.453,-1.149 -0.894,-2.303 -1.377,-3.439 -0.953,-2.276 -1.875,-4.566 -2.852,-6.832 l -0.491,-1.138 -0.539,1.138 c -1.181,2.496 -2.329,5.007 -3.471,7.52 -1.126,2.521 -2.263,5.037 -3.35,7.575 -1.111,2.528 -2.152,5.086 -3.213,7.636 C 2.51,-6.439 1.991,-5.159 1.493,-3.869 0.987,-2.583 0.476,-1.299 0,0" /></g></g></g></g></g></g></g></g></svg>