<?xml version="1.0" encoding="UTF-8" standalone="no"?>
<svg
   xmlns:dc="http://purl.org/dc/elements/1.1/"
   xmlns:cc="http://creativecommons.org/ns#"
   xmlns:rdf="http://www.w3.org/1999/02/22-rdf-syntax-ns#"
   xmlns:svg="http://www.w3.org/2000/svg"
   xmlns="http://www.w3.org/2000/svg"
   viewBox="0 0 399.99998 399.99999"
   height="400"
   width="400"
   xml:space="preserve"
   id="svg5775"
   version="1.1"><metadata
     id="metadata5781"><rdf:RDF><cc:Work
         rdf:about=""><dc:format>image/svg+xml</dc:format><dc:type
           rdf:resource="http://purl.org/dc/dcmitype/StillImage" /><dc:title></dc:title></cc:Work></rdf:RDF></metadata><defs
     id="defs5779"><clipPath
       id="clipPath5809"
       clipPathUnits="userSpaceOnUse"><path
         id="path5807"
         d="M 0,800 H 800 V 0 H 0 Z" /></clipPath><clipPath
       id="clipPath5817"
       clipPathUnits="userSpaceOnUse"><path
         id="path5815"
         d="m 153.323,590.286 h 23.605 v -50.575 h -23.605 z" /></clipPath><clipPath
       id="clipPath5833"
       clipPathUnits="userSpaceOnUse"><path
         id="path5831"
         d="M 121.168,572.549 H 143.92 V 540.273 H 121.168 Z" /></clipPath><clipPath
       id="clipPath5849"
       clipPathUnits="userSpaceOnUse"><path
         id="path5847"
         d="m 193.38,563.135 h 20.794 V 539.653 H 193.38 Z" /></clipPath><clipPath
       id="clipPath5893"
       clipPathUnits="userSpaceOnUse"><path
         id="path5891"
         d="M 0,800 H 800 V 0 H 0 Z" /></clipPath><clipPath
       id="clipPath5901"
       clipPathUnits="userSpaceOnUse"><path
         id="path5899"
         d="m 373.072,588.936 h 24.537 v -17.952 h -24.537 z" /></clipPath><clipPath
       id="clipPath5917"
       clipPathUnits="userSpaceOnUse"><path
         id="path5915"
         d="m 419.792,584.793 h 24.536 v -13.809 h -24.536 z" /></clipPath><clipPath
       id="clipPath5933"
       clipPathUnits="userSpaceOnUse"><path
         id="path5931"
         d="m 324.465,584.718 h 24.536 V 570.91 h -24.536 z" /></clipPath><clipPath
       id="clipPath5989"
       clipPathUnits="userSpaceOnUse"><path
         id="path5987"
         d="M 0,800 H 800 V 0 H 0 Z" /></clipPath><clipPath
       id="clipPath5997"
       clipPathUnits="userSpaceOnUse"><path
         id="path5995"
         d="m 594.889,596.435 h 26.103 v -31.28 h -26.103 z" /></clipPath><clipPath
       id="clipPath6013"
       clipPathUnits="userSpaceOnUse"><path
         id="path6011"
         d="m 633.527,588.169 h 26.389 v -23.102 h -26.389 z" /></clipPath><clipPath
       id="clipPath6029"
       clipPathUnits="userSpaceOnUse"><path
         id="path6027"
         d="m 560.012,588.74 h 24.024 v -17.561 h -24.024 z" /></clipPath><clipPath
       id="clipPath6045"
       clipPathUnits="userSpaceOnUse"><path
         id="path6043"
         d="m 607.396,540.273 h 19.67 v -31.58 h -19.67 z" /></clipPath><clipPath
       id="clipPath6073"
       clipPathUnits="userSpaceOnUse"><path
         id="path6071"
         d="M 0,800 H 800 V 0 H 0 Z" /></clipPath><clipPath
       id="clipPath6081"
       clipPathUnits="userSpaceOnUse"><path
         id="path6079"
         d="m 176.928,383.582 h 39.541 v -26.151 h -39.541 z" /></clipPath><clipPath
       id="clipPath6097"
       clipPathUnits="userSpaceOnUse"><path
         id="path6095"
         d="m 137.344,354.194 h 24.393 v -49.696 h -24.393 z" /></clipPath><clipPath
       id="clipPath6113"
       clipPathUnits="userSpaceOnUse"><path
         id="path6111"
         d="m 215.866,395.396 h 12.456 V 382.94 h -12.456 z" /></clipPath><clipPath
       id="clipPath6129"
       clipPathUnits="userSpaceOnUse"><path
         id="path6127"
         d="m 137.99,382.94 h 63.032 V 319.908 H 137.99 Z" /></clipPath><clipPath
       id="clipPath6145"
       clipPathUnits="userSpaceOnUse"><path
         id="path6143"
         d="m 143.375,377.555 h 72.491 v -72.491 h -72.491 z" /></clipPath><clipPath
       id="clipPath6185"
       clipPathUnits="userSpaceOnUse"><path
         id="path6183"
         d="M 0,800 H 800 V 0 H 0 Z" /></clipPath><clipPath
       id="clipPath6193"
       clipPathUnits="userSpaceOnUse"><path
         id="path6191"
         d="m 352.364,390.94 h 90.365 v -96.832 h -90.365 z" /></clipPath><clipPath
       id="clipPath6229"
       clipPathUnits="userSpaceOnUse"><path
         id="path6227"
         d="m 358.19,382.243 h 61.271 V 320.972 H 358.19 Z" /></clipPath><clipPath
       id="clipPath6245"
       clipPathUnits="userSpaceOnUse"><path
         id="path6243"
         d="m 363.421,377.012 h 71.252 v -71.251 h -71.252 z" /></clipPath><clipPath
       id="clipPath6285"
       clipPathUnits="userSpaceOnUse"><path
         id="path6283"
         d="M 0,800 H 800 V 0 H 0 Z" /></clipPath><clipPath
       id="clipPath6293"
       clipPathUnits="userSpaceOnUse"><path
         id="path6291"
         d="m 369.749,195.385 h 47.688 v -52.266 h -47.688 z" /></clipPath><clipPath
       id="clipPath6309"
       clipPathUnits="userSpaceOnUse"><path
         id="path6307"
         d="m 369.749,176.256 h 53.365 v -65.069 h -53.365 z" /></clipPath><clipPath
       id="clipPath6325"
       clipPathUnits="userSpaceOnUse"><path
         id="path6323"
         d="m 396.432,198.481 h 27.322 v -43 h -27.322 z" /></clipPath><clipPath
       id="clipPath6341"
       clipPathUnits="userSpaceOnUse"><path
         id="path6339"
         d="m 423.115,192.512 h 9.802 v -7.438 h -9.802 z" /></clipPath><clipPath
       id="clipPath6357"
       clipPathUnits="userSpaceOnUse"><path
         id="path6355"
         d="m 410.172,206.702 h 7.265 v -8.685 h -7.265 z" /></clipPath><clipPath
       id="clipPath6373"
       clipPathUnits="userSpaceOnUse"><path
         id="path6371"
         d="m 369.105,152.273 h 24.488 v -47.866 h -24.488 z" /></clipPath><clipPath
       id="clipPath6389"
       clipPathUnits="userSpaceOnUse"><path
         id="path6387"
         d="m 374.839,104.796 h 7.852 v -9.3873 h -7.852 z" /></clipPath><clipPath
       id="clipPath6405"
       clipPathUnits="userSpaceOnUse"><path
         id="path6403"
         d="m 361.115,117.795 h 8.634 v -6.607 h -8.634 z" /></clipPath><clipPath
       id="clipPath6441"
       clipPathUnits="userSpaceOnUse"><path
         id="path6439"
         d="M 0,800 H 800 V 0 H 0 Z" /></clipPath><clipPath
       id="clipPath6449"
       clipPathUnits="userSpaceOnUse"><path
         id="path6447"
         d="M 176.559,211.308 H 218.71 V 166.312 H 176.559 Z" /></clipPath><clipPath
       id="clipPath6465"
       clipPathUnits="userSpaceOnUse"><path
         id="path6463"
         d="M 135.145,136.388 H 177.32 V 89.8161 h -42.175 z" /></clipPath><clipPath
       id="clipPath6481"
       clipPathUnits="userSpaceOnUse"><path
         id="path6479"
         d="m 208.192,166.671 h 1.076 v -15.265 h -1.076 z" /></clipPath><clipPath
       id="clipPath6497"
       clipPathUnits="userSpaceOnUse"><path
         id="path6495"
         d="m 144.587,151.406 h 1.076 v -15.37 h -1.076 z" /></clipPath><clipPath
       id="clipPath6513"
       clipPathUnits="userSpaceOnUse"><path
         id="path6511"
         d="m 145.125,184.317 h 48.489 v -50.012 h -48.489 z" /></clipPath><clipPath
       id="clipPath6529"
       clipPathUnits="userSpaceOnUse"><path
         id="path6527"
         d="M 155.608,172.788 H 208.73 V 119.554 H 155.608 Z" /></clipPath><clipPath
       id="clipPath6569"
       clipPathUnits="userSpaceOnUse"><path
         id="path6567"
         d="M 0,800 H 800 V 0 H 0 Z" /></clipPath><clipPath
       id="clipPath6577"
       clipPathUnits="userSpaceOnUse"><path
         id="path6575"
         d="M 578.957,385.924 H 643.5 v -64.446 h -64.543 z" /></clipPath><clipPath
       id="clipPath6593"
       clipPathUnits="userSpaceOnUse"><path
         id="path6591"
         d="M 593.651,371.233 H 662.77 V 302.209 H 593.651 Z" /></clipPath><clipPath
       id="clipPath6609"
       clipPathUnits="userSpaceOnUse"><path
         id="path6607"
         d="m 620.94,386.88 h 42.882 V 344.002 H 620.94 Z" /></clipPath><clipPath
       id="clipPath6625"
       clipPathUnits="userSpaceOnUse"><path
         id="path6623"
         d="m 578.073,343.983 h 42.867 v -42.85 h -42.867 z" /></clipPath><clipPath
       id="clipPath6641"
       clipPathUnits="userSpaceOnUse"><path
         id="path6639"
         d="m 663.307,366.547 h 12.062 v -4.996 h -12.062 z" /></clipPath><clipPath
       id="clipPath6657"
       clipPathUnits="userSpaceOnUse"><path
         id="path6655"
         d="m 638.489,396.275 h 4.103 v -9.906 h -4.103 z" /></clipPath><clipPath
       id="clipPath6673"
       clipPathUnits="userSpaceOnUse"><path
         id="path6671"
         d="m 598.586,301.635 h 4.804 v -11.598 h -4.804 z" /></clipPath><clipPath
       id="clipPath6689"
       clipPathUnits="userSpaceOnUse"><path
         id="path6687"
         d="m 566.561,326.453 h 12.012 v -4.975 h -12.012 z" /></clipPath><clipPath
       id="clipPath6737"
       clipPathUnits="userSpaceOnUse"><path
         id="path6735"
         d="M 0,800 H 800 V 0 H 0 Z" /></clipPath><clipPath
       id="clipPath6745"
       clipPathUnits="userSpaceOnUse"><path
         id="path6743"
         d="m 577.274,196.102 h 67.932 v -64.257 h -67.932 z" /></clipPath><clipPath
       id="clipPath6761"
       clipPathUnits="userSpaceOnUse"><path
         id="path6759"
         d="m 591.339,178.514 h 72.257 v -71.803 h -72.257 z" /></clipPath><clipPath
       id="clipPath6777"
       clipPathUnits="userSpaceOnUse"><path
         id="path6775"
         d="m 620.94,196.75 h 38.846 V 173.736 H 620.94 Z" /></clipPath><clipPath
       id="clipPath6793"
       clipPathUnits="userSpaceOnUse"><path
         id="path6791"
         d="m 636.795,207.057 h 20.954 v -13.344 h -20.954 z" /></clipPath><clipPath
       id="clipPath6809"
       clipPathUnits="userSpaceOnUse"><path
         id="path6807"
         d="M 580.623,131.845 H 620.94 V 106.069 H 580.623 Z" /></clipPath><clipPath
       id="clipPath6825"
       clipPathUnits="userSpaceOnUse"><path
         id="path6823"
         d="m 583.62,109.21 h 22.994 V 94.071 H 583.62 Z" /></clipPath><clipPath
       id="clipPath6841"
       clipPathUnits="userSpaceOnUse"><path
         id="path6839"
         d="M 584.981,196.682 H 604.76 V 178.514 H 584.981 Z" /></clipPath><clipPath
       id="clipPath6857"
       clipPathUnits="userSpaceOnUse"><path
         id="path6855"
         d="m 635.186,123.168 h 21.06 v -17.079 h -21.06 z" /></clipPath><clipPath
       id="clipPath6877"
       clipPathUnits="userSpaceOnUse"><path
         id="path6875"
         d="M 0,800 H 800 V 0 H 0 Z" /></clipPath><clipPath
       id="clipPath5809-7"
       clipPathUnits="userSpaceOnUse"><path
         id="path5807-5"
         d="M 0,800 H 800 V 0 H 0 Z" /></clipPath><clipPath
       id="clipPath5817-1"
       clipPathUnits="userSpaceOnUse"><path
         id="path5815-9"
         d="m 153.323,590.286 h 23.605 v -50.575 h -23.605 z" /></clipPath><clipPath
       id="clipPath5833-6"
       clipPathUnits="userSpaceOnUse"><path
         id="path5831-0"
         d="M 121.168,572.549 H 143.92 V 540.273 H 121.168 Z" /></clipPath><clipPath
       id="clipPath5849-3"
       clipPathUnits="userSpaceOnUse"><path
         id="path5847-0"
         d="m 193.38,563.135 h 20.794 V 539.653 H 193.38 Z" /></clipPath><clipPath
       id="clipPath5893-9"
       clipPathUnits="userSpaceOnUse"><path
         id="path5891-6"
         d="M 0,800 H 800 V 0 H 0 Z" /></clipPath><clipPath
       id="clipPath5901-9"
       clipPathUnits="userSpaceOnUse"><path
         id="path5899-7"
         d="m 373.072,588.936 h 24.537 v -17.952 h -24.537 z" /></clipPath><clipPath
       id="clipPath5917-9"
       clipPathUnits="userSpaceOnUse"><path
         id="path5915-2"
         d="m 419.792,584.793 h 24.536 v -13.809 h -24.536 z" /></clipPath><clipPath
       id="clipPath5933-7"
       clipPathUnits="userSpaceOnUse"><path
         id="path5931-1"
         d="m 324.465,584.718 h 24.536 V 570.91 h -24.536 z" /></clipPath></defs><g
     transform="translate(191.4367,239.29093)"
     id="layer4"><g
       transform="translate(-2.99287,-8.3917648)"
       id="g5854"><g
         id="g5859"
         transform="matrix(2.7207053,0,0,-2.7207053,141.87618,-199.33667)"><path
           d="m 0,0 h -47.899 -47.9 l -24.067,-31.198 71.967,-92.621 71.967,92.621 z"
           style="fill:#fff17b;fill-opacity:1;fill-rule:nonzero;stroke:none"
           id="path5861" /></g><g
         id="g5863"
         transform="matrix(2.7207053,0,0,-2.7207053,141.87618,-199.33667)"><path
           d="m 0,0 -24.54,-31.198 -23.359,-92.621 71.967,92.621 z"
           style="fill:#ffd200;fill-opacity:1;fill-rule:nonzero;stroke:none"
           id="path5865" /></g><g
         id="g5867"
         transform="matrix(2.7207053,0,0,-2.7207053,-118.76384,-199.33667)"><path
           d="m 0,0 24.54,-31.198 23.359,-92.621 -71.967,92.621 z"
           style="fill:#ffd200;fill-opacity:1;fill-rule:nonzero;stroke:none"
           id="path5869" /></g><g
         id="g5871"
         transform="matrix(2.7207053,0,0,-2.7207053,75.111436,-114.45502)"><path
           d="M 0,0 -23.36,-92.62 48.607,0 Z"
           style="fill:#ffbc00;fill-opacity:1;fill-rule:nonzero;stroke:none"
           id="path5873" /></g><g
         id="g5875"
         transform="matrix(2.7207053,0,0,-2.7207053,75.111436,-114.45502)"><path
           d="M 0,0 V 0 L -23.36,31.198 -46.72,0 v 0 l 23.36,-92.62 v 0 0 0 0 z"
           style="fill:#ffe438;fill-opacity:1;fill-rule:nonzero;stroke:none"
           id="path5877" /></g><g
         id="g5879"
         transform="matrix(2.7207053,0,0,-2.7207053,-51.999385,-114.45502)"><path
           d="M 0,0 23.36,-92.62 -48.607,0 Z"
           style="fill:#ffbc00;fill-opacity:1;fill-rule:nonzero;stroke:none"
           id="path5881" /></g><g
         id="g5883"
         transform="matrix(2.7207053,0,0,-2.7207053,-51.999385,-114.45502)"><path
           d="M 0,0 H 46.72 L 23.36,-92.62 Z"
           style="fill:#ffd738;fill-opacity:1;fill-rule:nonzero;stroke:none"
           id="path5885" /></g><g
         transform="matrix(2.7207053,0,0,-2.7207053,-1067.0178,1439.0245)"
         id="g5887"><g
           id="g5889"
           clip-path="url(#clipPath5893-9)"><g
             id="g5895"><g
               id="g5897" /><g
               id="g5909"><g
                 clip-path="url(#clipPath5901-9)"
                 id="g5907"><g
                   transform="translate(387.2104,588.9361)"
                   id="g5905"><path
                     d="m 0,0 c -0.75,-1.172 -4.636,-6.453 -5.408,-7.602 -0.765,-1.156 -1.569,-2.271 -2.359,-3.402 -1.575,-2.265 -3.179,-4.501 -4.801,-6.718 l -0.394,1.031 c 3.893,0.03 7.787,0.04 11.68,-0.058 1.947,-0.043 3.894,-0.137 5.84,-0.203 0.973,-0.026 1.947,-0.099 2.92,-0.155 0.973,-0.057 1.947,-0.117 2.92,-0.204 -0.973,-0.088 -1.947,-0.147 -2.92,-0.204 -0.973,-0.056 -1.947,-0.129 -2.92,-0.155 -1.946,-0.066 -3.893,-0.16 -5.84,-0.203 -3.893,-0.098 -7.787,-0.088 -11.68,-0.058 l -1.177,0.009 0.784,1.022 c 1.664,2.172 3.347,4.325 5.058,6.449 0.853,1.064 1.693,2.143 2.57,3.182 C -4.856,-6.223 -0.893,-1.023 0,0"
                     style="fill:#ffffff;fill-opacity:1;fill-rule:nonzero;stroke:none"
                     id="path5903" /></g></g></g></g><g
             id="g5911"><g
               id="g5913" /><g
               id="g5925"><g
                 clip-path="url(#clipPath5917-9)"
                 id="g5923"><g
                   transform="translate(430.8278,584.7927)"
                   id="g5921"><path
                     d="m 0,0 c -0.75,-1.172 -1.533,-2.31 -2.305,-3.458 -0.766,-1.156 -1.57,-2.272 -2.36,-3.402 -1.575,-2.266 -3.179,-4.502 -4.801,-6.718 l -0.393,1.03 c 3.893,0.03 7.786,0.04 11.679,-0.058 1.947,-0.042 3.894,-0.137 5.84,-0.203 0.974,-0.025 1.947,-0.099 2.92,-0.155 0.974,-0.057 1.947,-0.116 2.921,-0.204 -0.974,-0.087 -1.947,-0.147 -2.921,-0.204 -0.973,-0.056 -1.946,-0.129 -2.92,-0.155 -1.946,-0.066 -3.893,-0.16 -5.84,-0.203 -3.893,-0.098 -7.786,-0.088 -11.679,-0.058 l -1.177,0.009 0.783,1.022 c 1.664,2.173 3.347,4.326 5.059,6.45 0.853,1.064 1.692,2.143 2.57,3.181 C -1.753,-2.08 -0.893,-1.023 0,0"
                     style="fill:#ffffff;fill-opacity:1;fill-rule:nonzero;stroke:none"
                     id="path5919" /></g></g></g></g><g
             id="g5927"><g
               id="g5929" /><g
               id="g5941"><g
                 clip-path="url(#clipPath5933-7)"
                 id="g5939"><g
                   transform="translate(335.5009,584.7182)"
                   id="g5937"><path
                     d="m 0,0 c -0.75,-1.172 -1.533,-2.309 -2.305,-3.458 -0.766,-1.156 -1.57,-2.272 -2.36,-3.402 -1.575,-2.266 -3.179,-4.502 -4.801,-6.718 l -0.393,1.031 c 3.893,0.029 7.786,0.04 11.679,-0.059 1.947,-0.042 3.894,-0.136 5.84,-0.202 0.974,-0.026 1.947,-0.099 2.92,-0.156 0.974,-0.057 1.947,-0.116 2.921,-0.204 -0.974,-0.087 -1.947,-0.147 -2.921,-0.204 -0.973,-0.056 -1.946,-0.129 -2.92,-0.155 -1.946,-0.066 -3.893,-0.16 -5.84,-0.203 -3.893,-0.098 -7.786,-0.088 -11.679,-0.058 l -1.177,0.009 0.783,1.022 c 1.664,2.173 3.347,4.326 5.059,6.45 0.853,1.064 1.692,2.143 2.57,3.182 C -1.753,-2.08 -0.893,-1.023 0,0"
                     style="fill:#ffffff;fill-opacity:1;fill-rule:nonzero;stroke:none"
                     id="path5935" /></g></g></g></g></g></g></g></g></svg>