<?xml version="1.0" encoding="UTF-8" standalone="no"?>
<svg
   xmlns:dc="http://purl.org/dc/elements/1.1/"
   xmlns:cc="http://creativecommons.org/ns#"
   xmlns:rdf="http://www.w3.org/1999/02/22-rdf-syntax-ns#"
   xmlns:svg="http://www.w3.org/2000/svg"
   xmlns="http://www.w3.org/2000/svg"
   viewBox="0 0 51.906666 72.639999"
   height="72.639999"
   width="51.906666"
   xml:space="preserve"
   id="svg2"
   version="1.1"><metadata
     id="metadata8"><rdf:RDF><cc:Work
         rdf:about=""><dc:format>image/svg+xml</dc:format><dc:type
           rdf:resource="http://purl.org/dc/dcmitype/StillImage" /><dc:title></dc:title></cc:Work></rdf:RDF></metadata><defs
     id="defs6"><clipPath
       id="clipPath20"
       clipPathUnits="userSpaceOnUse"><path
         id="path18"
         d="M 0,450 H 450 V 0 H 0 Z" /></clipPath><clipPath
       id="clipPath36"
       clipPathUnits="userSpaceOnUse"><path
         id="path34"
         d="M 77.3936,409.288 H 94.3721 V 361.184 H 77.3936 Z" /></clipPath><clipPath
       id="clipPath60"
       clipPathUnits="userSpaceOnUse"><path
         id="path58"
         d="M 38.6494,401.358 H 60.8506 V 338.514 H 38.6494 Z" /></clipPath><clipPath
       id="clipPath128"
       clipPathUnits="userSpaceOnUse"><path
         id="path126"
         d="m 148.771,413.349 h 26.643 v -79.315 h -26.643 z" /></clipPath><clipPath
       id="clipPath164"
       clipPathUnits="userSpaceOnUse"><path
         id="path162"
         d="m 268.353,385.854 h 5.457 v -51.82 h -5.457 z" /></clipPath><clipPath
       id="clipPath188"
       clipPathUnits="userSpaceOnUse"><path
         id="path186"
         d="m 268.706,391.01 h 5.104 v -10.541 h -5.104 z" /></clipPath><clipPath
       id="clipPath256"
       clipPathUnits="userSpaceOnUse"><path
         id="path254"
         d="m 361.088,368.988 h 27.447 v -35.242 h -27.447 z" /></clipPath><clipPath
       id="clipPath280"
       clipPathUnits="userSpaceOnUse"><path
         id="path278"
         d="m 334.098,393.286 h 26.471 v -50.351 h -26.471 z" /></clipPath><clipPath
       id="clipPath316"
       clipPathUnits="userSpaceOnUse"><path
         id="path314"
         d="M 45.9697,302.689 H 75.2324 V 244.163 H 45.9697 Z" /></clipPath><clipPath
       id="clipPath364"
       clipPathUnits="userSpaceOnUse"><path
         id="path362"
         d="m 145.853,294.451 h 29.561 v -50.288 h -29.561 z" /></clipPath><clipPath
       id="clipPath410"
       clipPathUnits="userSpaceOnUse"><path
         id="path408"
         d="m 256.182,305.837 h 19.289 v -61.674 h -19.289 z" /></clipPath><clipPath
       id="clipPath432"
       clipPathUnits="userSpaceOnUse"><path
         id="path430"
         d="m 344.863,281.226 h 9.284 v -37.063 h -9.284 z" /></clipPath><clipPath
       id="clipPath458"
       clipPathUnits="userSpaceOnUse"><path
         id="path456"
         d="m 365.162,281.226 h 9.285 v -37.063 h -9.285 z" /></clipPath><clipPath
       id="clipPath490"
       clipPathUnits="userSpaceOnUse"><path
         id="path488"
         d="m 385.461,281.226 h 9.285 v -37.063 h -9.285 z" /></clipPath><clipPath
       id="clipPath510"
       clipPathUnits="userSpaceOnUse"><path
         id="path508"
         d="m 55.7676,195.541 h 19.4648 v -54.48 H 55.7676 Z" /></clipPath><clipPath
       id="clipPath540"
       clipPathUnits="userSpaceOnUse"><path
         id="path538"
         d="m 155.661,195.54 h 15.004 v -54.479 h -15.004 z" /></clipPath><clipPath
       id="clipPath564"
       clipPathUnits="userSpaceOnUse"><path
         id="path562"
         d="m 273.398,180.75 h 14.766 v -39.689 h -14.766 z" /></clipPath><clipPath
       id="clipPath588"
       clipPathUnits="userSpaceOnUse"><path
         id="path586"
         d="m 252.252,179.079 h 10.475 v -28.156 h -10.475 z" /></clipPath><clipPath
       id="clipPath624"
       clipPathUnits="userSpaceOnUse"><path
         id="path622"
         d="m 351.084,187.787 h 23.363 v -46.726 h -23.363 z" /></clipPath><clipPath
       id="clipPath660"
       clipPathUnits="userSpaceOnUse"><path
         id="path658"
         d="m 344.99,90.2959 h 15.311 V 43.959 H 344.99 Z" /></clipPath><clipPath
       id="clipPath696"
       clipPathUnits="userSpaceOnUse"><path
         id="path694"
         d="m 378.74,95.0254 h 13.156 V 55.209 H 378.74 Z" /></clipPath><clipPath
       id="clipPath728"
       clipPathUnits="userSpaceOnUse"><path
         id="path726"
         d="m 243.91,99.9678 h 31.561 V 42.1543 H 243.91 Z" /></clipPath><clipPath
       id="clipPath804"
       clipPathUnits="userSpaceOnUse"><path
         id="path802"
         d="m 161.682,85.7031 h 22.952 V 43.959 h -22.952 z" /></clipPath><clipPath
       id="clipPath822"
       clipPathUnits="userSpaceOnUse"><path
         id="path820"
         d="M 143.239,74.0039 H 159.76 V 43.959 h -16.521 z" /></clipPath><clipPath
       id="clipPath866"
       clipPathUnits="userSpaceOnUse"><path
         id="path864"
         d="M 45.9727,107.854 H 76.6602 V 42.9588 H 45.9727 Z" /></clipPath></defs><g
     transform="matrix(1.3333333,0,0,-1.3333333,-74.356398,260.72133)"
     id="g10"><g
       id="g14"><g
         clip-path="url(#clipPath20)"
         id="g16"><g
           transform="translate(94.6973,195.541)"
           id="g500"><path
             id="path502"
             style="fill:#faa636;fill-opacity:1;fill-rule:nonzero;stroke:none"
             d="m 0,0 h -25.398 l -11.396,-26.783 h 7.494 l -9.63,-27.697 29.672,34.818 h -6.427 z" /></g><g
           id="g504"><g
             id="g506" /><g
             id="g518"><g
               style="opacity:0.10000598"
               id="g516"
               clip-path="url(#clipPath510)"><g
                 id="g514"
                 transform="translate(75.2324,163.9014)"><path
                   id="path512"
                   style="fill:#000000;fill-opacity:1;fill-rule:nonzero;stroke:none"
                   d="M 0,0 V 31.64 H -5.934 L -17.329,4.856 h 7.494 l -9.63,-27.697 z" /></g></g></g></g></g></g></g></svg>