<?xml version="1.0" encoding="UTF-8" standalone="no"?>
<!-- Created with Inkscape (http://www.inkscape.org/) -->

<svg
   xmlns:dc="http://purl.org/dc/elements/1.1/"
   xmlns:cc="http://creativecommons.org/ns#"
   xmlns:rdf="http://www.w3.org/1999/02/22-rdf-syntax-ns#"
   xmlns:svg="http://www.w3.org/2000/svg"
   xmlns="http://www.w3.org/2000/svg"
   xmlns:sodipodi="http://sodipodi.sourceforge.net/DTD/sodipodi-0.dtd"
   xmlns:inkscape="http://www.inkscape.org/namespaces/inkscape"
   version="1.1"
   id="svg5775"
   xml:space="preserve"
   width="148.6924"
   height="217.14613"
   viewBox="0 0 148.69239 217.14612"
   sodipodi:docname="reality_stone.svg"
   inkscape:version="0.92.3 (2405546, 2018-03-11)"><metadata
     id="metadata5781"><rdf:RDF><cc:Work
         rdf:about=""><dc:format>image/svg+xml</dc:format><dc:type
           rdf:resource="http://purl.org/dc/dcmitype/StillImage" /></cc:Work></rdf:RDF></metadata><defs
     id="defs5779"><clipPath
       clipPathUnits="userSpaceOnUse"
       id="clipPath5809"><path
         d="M 0,800 H 800 V 0 H 0 Z"
         id="path5807"
         inkscape:connector-curvature="0" /></clipPath><clipPath
       clipPathUnits="userSpaceOnUse"
       id="clipPath5817"><path
         d="m 153.323,590.286 h 23.605 v -50.575 h -23.605 z"
         id="path5815"
         inkscape:connector-curvature="0" /></clipPath><clipPath
       clipPathUnits="userSpaceOnUse"
       id="clipPath5833"><path
         d="M 121.168,572.549 H 143.92 V 540.273 H 121.168 Z"
         id="path5831"
         inkscape:connector-curvature="0" /></clipPath><clipPath
       clipPathUnits="userSpaceOnUse"
       id="clipPath5849"><path
         d="m 193.38,563.135 h 20.794 V 539.653 H 193.38 Z"
         id="path5847"
         inkscape:connector-curvature="0" /></clipPath><clipPath
       clipPathUnits="userSpaceOnUse"
       id="clipPath5893"><path
         d="M 0,800 H 800 V 0 H 0 Z"
         id="path5891"
         inkscape:connector-curvature="0" /></clipPath><clipPath
       clipPathUnits="userSpaceOnUse"
       id="clipPath5901"><path
         d="m 373.072,588.936 h 24.537 v -17.952 h -24.537 z"
         id="path5899"
         inkscape:connector-curvature="0" /></clipPath><clipPath
       clipPathUnits="userSpaceOnUse"
       id="clipPath5917"><path
         d="m 419.792,584.793 h 24.536 v -13.809 h -24.536 z"
         id="path5915"
         inkscape:connector-curvature="0" /></clipPath><clipPath
       clipPathUnits="userSpaceOnUse"
       id="clipPath5933"><path
         d="m 324.465,584.718 h 24.536 V 570.91 h -24.536 z"
         id="path5931"
         inkscape:connector-curvature="0" /></clipPath><clipPath
       clipPathUnits="userSpaceOnUse"
       id="clipPath5989"><path
         d="M 0,800 H 800 V 0 H 0 Z"
         id="path5987"
         inkscape:connector-curvature="0" /></clipPath><clipPath
       clipPathUnits="userSpaceOnUse"
       id="clipPath5997"><path
         d="m 594.889,596.435 h 26.103 v -31.28 h -26.103 z"
         id="path5995"
         inkscape:connector-curvature="0" /></clipPath><clipPath
       clipPathUnits="userSpaceOnUse"
       id="clipPath6013"><path
         d="m 633.527,588.169 h 26.389 v -23.102 h -26.389 z"
         id="path6011"
         inkscape:connector-curvature="0" /></clipPath><clipPath
       clipPathUnits="userSpaceOnUse"
       id="clipPath6029"><path
         d="m 560.012,588.74 h 24.024 v -17.561 h -24.024 z"
         id="path6027"
         inkscape:connector-curvature="0" /></clipPath><clipPath
       clipPathUnits="userSpaceOnUse"
       id="clipPath6045"><path
         d="m 607.396,540.273 h 19.67 v -31.58 h -19.67 z"
         id="path6043"
         inkscape:connector-curvature="0" /></clipPath><clipPath
       clipPathUnits="userSpaceOnUse"
       id="clipPath6073"><path
         d="M 0,800 H 800 V 0 H 0 Z"
         id="path6071"
         inkscape:connector-curvature="0" /></clipPath><clipPath
       clipPathUnits="userSpaceOnUse"
       id="clipPath6081"><path
         d="m 176.928,383.582 h 39.541 v -26.151 h -39.541 z"
         id="path6079"
         inkscape:connector-curvature="0" /></clipPath><clipPath
       clipPathUnits="userSpaceOnUse"
       id="clipPath6097"><path
         d="m 137.344,354.194 h 24.393 v -49.696 h -24.393 z"
         id="path6095"
         inkscape:connector-curvature="0" /></clipPath><clipPath
       clipPathUnits="userSpaceOnUse"
       id="clipPath6113"><path
         d="m 215.866,395.396 h 12.456 V 382.94 h -12.456 z"
         id="path6111"
         inkscape:connector-curvature="0" /></clipPath><clipPath
       clipPathUnits="userSpaceOnUse"
       id="clipPath6129"><path
         d="m 137.99,382.94 h 63.032 V 319.908 H 137.99 Z"
         id="path6127"
         inkscape:connector-curvature="0" /></clipPath><clipPath
       clipPathUnits="userSpaceOnUse"
       id="clipPath6145"><path
         d="m 143.375,377.555 h 72.491 v -72.491 h -72.491 z"
         id="path6143"
         inkscape:connector-curvature="0" /></clipPath><clipPath
       clipPathUnits="userSpaceOnUse"
       id="clipPath6185"><path
         d="M 0,800 H 800 V 0 H 0 Z"
         id="path6183"
         inkscape:connector-curvature="0" /></clipPath><clipPath
       clipPathUnits="userSpaceOnUse"
       id="clipPath6193"><path
         d="m 352.364,390.94 h 90.365 v -96.832 h -90.365 z"
         id="path6191"
         inkscape:connector-curvature="0" /></clipPath><clipPath
       clipPathUnits="userSpaceOnUse"
       id="clipPath6229"><path
         d="m 358.19,382.243 h 61.271 V 320.972 H 358.19 Z"
         id="path6227"
         inkscape:connector-curvature="0" /></clipPath><clipPath
       clipPathUnits="userSpaceOnUse"
       id="clipPath6245"><path
         d="m 363.421,377.012 h 71.252 v -71.251 h -71.252 z"
         id="path6243"
         inkscape:connector-curvature="0" /></clipPath><clipPath
       clipPathUnits="userSpaceOnUse"
       id="clipPath6285"><path
         d="M 0,800 H 800 V 0 H 0 Z"
         id="path6283"
         inkscape:connector-curvature="0" /></clipPath><clipPath
       clipPathUnits="userSpaceOnUse"
       id="clipPath6293"><path
         d="m 369.749,195.385 h 47.688 v -52.266 h -47.688 z"
         id="path6291"
         inkscape:connector-curvature="0" /></clipPath><clipPath
       clipPathUnits="userSpaceOnUse"
       id="clipPath6309"><path
         d="m 369.749,176.256 h 53.365 v -65.069 h -53.365 z"
         id="path6307"
         inkscape:connector-curvature="0" /></clipPath><clipPath
       clipPathUnits="userSpaceOnUse"
       id="clipPath6325"><path
         d="m 396.432,198.481 h 27.322 v -43 h -27.322 z"
         id="path6323"
         inkscape:connector-curvature="0" /></clipPath><clipPath
       clipPathUnits="userSpaceOnUse"
       id="clipPath6341"><path
         d="m 423.115,192.512 h 9.802 v -7.438 h -9.802 z"
         id="path6339"
         inkscape:connector-curvature="0" /></clipPath><clipPath
       clipPathUnits="userSpaceOnUse"
       id="clipPath6357"><path
         d="m 410.172,206.702 h 7.265 v -8.685 h -7.265 z"
         id="path6355"
         inkscape:connector-curvature="0" /></clipPath><clipPath
       clipPathUnits="userSpaceOnUse"
       id="clipPath6373"><path
         d="m 369.105,152.273 h 24.488 v -47.866 h -24.488 z"
         id="path6371"
         inkscape:connector-curvature="0" /></clipPath><clipPath
       clipPathUnits="userSpaceOnUse"
       id="clipPath6389"><path
         d="m 374.839,104.796 h 7.852 v -9.3873 h -7.852 z"
         id="path6387"
         inkscape:connector-curvature="0" /></clipPath><clipPath
       clipPathUnits="userSpaceOnUse"
       id="clipPath6405"><path
         d="m 361.115,117.795 h 8.634 v -6.607 h -8.634 z"
         id="path6403"
         inkscape:connector-curvature="0" /></clipPath><clipPath
       clipPathUnits="userSpaceOnUse"
       id="clipPath6441"><path
         d="M 0,800 H 800 V 0 H 0 Z"
         id="path6439"
         inkscape:connector-curvature="0" /></clipPath><clipPath
       clipPathUnits="userSpaceOnUse"
       id="clipPath6449"><path
         d="M 176.559,211.308 H 218.71 V 166.312 H 176.559 Z"
         id="path6447"
         inkscape:connector-curvature="0" /></clipPath><clipPath
       clipPathUnits="userSpaceOnUse"
       id="clipPath6465"><path
         d="M 135.145,136.388 H 177.32 V 89.8161 h -42.175 z"
         id="path6463"
         inkscape:connector-curvature="0" /></clipPath><clipPath
       clipPathUnits="userSpaceOnUse"
       id="clipPath6481"><path
         d="m 208.192,166.671 h 1.076 v -15.265 h -1.076 z"
         id="path6479"
         inkscape:connector-curvature="0" /></clipPath><clipPath
       clipPathUnits="userSpaceOnUse"
       id="clipPath6497"><path
         d="m 144.587,151.406 h 1.076 v -15.37 h -1.076 z"
         id="path6495"
         inkscape:connector-curvature="0" /></clipPath><clipPath
       clipPathUnits="userSpaceOnUse"
       id="clipPath6513"><path
         d="m 145.125,184.317 h 48.489 v -50.012 h -48.489 z"
         id="path6511"
         inkscape:connector-curvature="0" /></clipPath><clipPath
       clipPathUnits="userSpaceOnUse"
       id="clipPath6529"><path
         d="M 155.608,172.788 H 208.73 V 119.554 H 155.608 Z"
         id="path6527"
         inkscape:connector-curvature="0" /></clipPath><clipPath
       clipPathUnits="userSpaceOnUse"
       id="clipPath6569"><path
         d="M 0,800 H 800 V 0 H 0 Z"
         id="path6567"
         inkscape:connector-curvature="0" /></clipPath><clipPath
       clipPathUnits="userSpaceOnUse"
       id="clipPath6577"><path
         d="M 578.957,385.924 H 643.5 v -64.446 h -64.543 z"
         id="path6575"
         inkscape:connector-curvature="0" /></clipPath><clipPath
       clipPathUnits="userSpaceOnUse"
       id="clipPath6593"><path
         d="M 593.651,371.233 H 662.77 V 302.209 H 593.651 Z"
         id="path6591"
         inkscape:connector-curvature="0" /></clipPath><clipPath
       clipPathUnits="userSpaceOnUse"
       id="clipPath6609"><path
         d="m 620.94,386.88 h 42.882 V 344.002 H 620.94 Z"
         id="path6607"
         inkscape:connector-curvature="0" /></clipPath><clipPath
       clipPathUnits="userSpaceOnUse"
       id="clipPath6625"><path
         d="m 578.073,343.983 h 42.867 v -42.85 h -42.867 z"
         id="path6623"
         inkscape:connector-curvature="0" /></clipPath><clipPath
       clipPathUnits="userSpaceOnUse"
       id="clipPath6641"><path
         d="m 663.307,366.547 h 12.062 v -4.996 h -12.062 z"
         id="path6639"
         inkscape:connector-curvature="0" /></clipPath><clipPath
       clipPathUnits="userSpaceOnUse"
       id="clipPath6657"><path
         d="m 638.489,396.275 h 4.103 v -9.906 h -4.103 z"
         id="path6655"
         inkscape:connector-curvature="0" /></clipPath><clipPath
       clipPathUnits="userSpaceOnUse"
       id="clipPath6673"><path
         d="m 598.586,301.635 h 4.804 v -11.598 h -4.804 z"
         id="path6671"
         inkscape:connector-curvature="0" /></clipPath><clipPath
       clipPathUnits="userSpaceOnUse"
       id="clipPath6689"><path
         d="m 566.561,326.453 h 12.012 v -4.975 h -12.012 z"
         id="path6687"
         inkscape:connector-curvature="0" /></clipPath><clipPath
       clipPathUnits="userSpaceOnUse"
       id="clipPath6737"><path
         d="M 0,800 H 800 V 0 H 0 Z"
         id="path6735"
         inkscape:connector-curvature="0" /></clipPath><clipPath
       clipPathUnits="userSpaceOnUse"
       id="clipPath6745"><path
         d="m 577.274,196.102 h 67.932 v -64.257 h -67.932 z"
         id="path6743"
         inkscape:connector-curvature="0" /></clipPath><clipPath
       clipPathUnits="userSpaceOnUse"
       id="clipPath6761"><path
         d="m 591.339,178.514 h 72.257 v -71.803 h -72.257 z"
         id="path6759"
         inkscape:connector-curvature="0" /></clipPath><clipPath
       clipPathUnits="userSpaceOnUse"
       id="clipPath6777"><path
         d="m 620.94,196.75 h 38.846 V 173.736 H 620.94 Z"
         id="path6775"
         inkscape:connector-curvature="0" /></clipPath><clipPath
       clipPathUnits="userSpaceOnUse"
       id="clipPath6793"><path
         d="m 636.795,207.057 h 20.954 v -13.344 h -20.954 z"
         id="path6791"
         inkscape:connector-curvature="0" /></clipPath><clipPath
       clipPathUnits="userSpaceOnUse"
       id="clipPath6809"><path
         d="M 580.623,131.845 H 620.94 V 106.069 H 580.623 Z"
         id="path6807"
         inkscape:connector-curvature="0" /></clipPath><clipPath
       clipPathUnits="userSpaceOnUse"
       id="clipPath6825"><path
         d="m 583.62,109.21 h 22.994 V 94.071 H 583.62 Z"
         id="path6823"
         inkscape:connector-curvature="0" /></clipPath><clipPath
       clipPathUnits="userSpaceOnUse"
       id="clipPath6841"><path
         d="M 584.981,196.682 H 604.76 V 178.514 H 584.981 Z"
         id="path6839"
         inkscape:connector-curvature="0" /></clipPath><clipPath
       clipPathUnits="userSpaceOnUse"
       id="clipPath6857"><path
         d="m 635.186,123.168 h 21.06 v -17.079 h -21.06 z"
         id="path6855"
         inkscape:connector-curvature="0" /></clipPath><clipPath
       clipPathUnits="userSpaceOnUse"
       id="clipPath6877"><path
         d="M 0,800 H 800 V 0 H 0 Z"
         id="path6875"
         inkscape:connector-curvature="0" /></clipPath><clipPath
       clipPathUnits="userSpaceOnUse"
       id="clipPath5809-7"><path
         d="M 0,800 H 800 V 0 H 0 Z"
         id="path5807-5"
         inkscape:connector-curvature="0" /></clipPath><clipPath
       clipPathUnits="userSpaceOnUse"
       id="clipPath5817-1"><path
         d="m 153.323,590.286 h 23.605 v -50.575 h -23.605 z"
         id="path5815-9"
         inkscape:connector-curvature="0" /></clipPath><clipPath
       clipPathUnits="userSpaceOnUse"
       id="clipPath5833-6"><path
         d="M 121.168,572.549 H 143.92 V 540.273 H 121.168 Z"
         id="path5831-0"
         inkscape:connector-curvature="0" /></clipPath><clipPath
       clipPathUnits="userSpaceOnUse"
       id="clipPath5849-3"><path
         d="m 193.38,563.135 h 20.794 V 539.653 H 193.38 Z"
         id="path5847-0"
         inkscape:connector-curvature="0" /></clipPath></defs><sodipodi:namedview
     pagecolor="#ffffff"
     bordercolor="#666666"
     borderopacity="1"
     objecttolerance="10"
     gridtolerance="10"
     guidetolerance="10"
     inkscape:pageopacity="0"
     inkscape:pageshadow="2"
     inkscape:window-width="1280"
     inkscape:window-height="697"
     id="namedview5777"
     showgrid="false"
     inkscape:zoom="1.7699999"
     inkscape:cx="42.502705"
     inkscape:cy="101.07566"
     inkscape:window-x="-8"
     inkscape:window-y="-8"
     inkscape:window-maximized="1"
     inkscape:current-layer="layer4" /><g
     inkscape:groupmode="layer"
     id="layer4"
     inkscape:label="105845-OMYTSO-888"><g
       id="g5787"
       transform="matrix(1.3333333,0,0,-1.3333333,74.576741,1.2284274)"><path
         d="M 0,0 -55.76,-81.43 0,-162.859 55.759,-81.43 Z"
         style="fill:#ff4f66;fill-opacity:1;fill-rule:nonzero;stroke:none"
         id="path5789"
         inkscape:connector-curvature="0" /></g><g
       id="g5791"
       transform="matrix(1.3333333,0,0,-1.3333333,148.92248,109.80123)"><path
         d="m 0,0 h -111.519 l 55.76,-81.43 z"
         style="fill:#fa2542;fill-opacity:1;fill-rule:nonzero;stroke:none"
         id="path5793"
         inkscape:connector-curvature="0" /></g><g
       id="g5795"
       transform="matrix(1.3333333,0,0,-1.3333333,74.576611,1.2284274)"><path
         d="M 0,0 -22.874,-81.43 0,-162.859 22.874,-81.43 Z"
         style="fill:#ff707f;fill-opacity:1;fill-rule:nonzero;stroke:none"
         id="path5797"
         inkscape:connector-curvature="0" /></g><g
       id="g5799"
       transform="matrix(1.3333333,0,0,-1.3333333,105.07488,109.80123)"><path
         d="m 0,0 h -45.747 l 22.873,-81.43 z"
         style="fill:#ff3f5b;fill-opacity:1;fill-rule:nonzero;stroke:none"
         id="path5801"
         inkscape:connector-curvature="0" /></g><g
       transform="matrix(1.3333333,0,0,-1.3333333,-161.32725,830.16521)"
       id="g5803"><g
         id="g5805"
         clip-path="url(#clipPath5809-7)"><g
           id="g5811"><g
             id="g5813" /><g
             id="g5825"><g
               clip-path="url(#clipPath5817-1)"
               id="g5823"><g
                 transform="translate(168.1025,590.2859)"
                 id="g5821"><path
                   d="m 0,0 c -0.49,-2.111 -1.017,-4.211 -1.537,-6.313 -0.512,-2.104 -1.049,-4.202 -1.602,-6.295 -1.095,-4.189 -2.164,-8.385 -3.331,-12.554 -1.153,-4.173 -2.273,-8.355 -3.452,-12.52 l -3.591,-12.481 -0.535,0.707 c 3.812,-0.031 7.624,-0.134 11.436,-0.197 1.907,-0.026 3.813,-0.099 5.719,-0.156 1.906,-0.056 3.812,-0.116 5.718,-0.204 -1.906,-0.087 -3.812,-0.147 -5.718,-0.204 -1.906,-0.056 -3.812,-0.129 -5.719,-0.155 -3.812,-0.064 -7.624,-0.166 -11.436,-0.197 l -0.732,-0.006 0.196,0.713 3.433,12.525 c 1.162,4.17 2.384,8.324 3.573,12.486 1.174,4.167 2.446,8.306 3.693,12.453 0.618,2.074 1.252,4.145 1.911,6.208 0.65,2.065 1.293,4.133 1.974,6.19"
                   style="fill:#ffffff;fill-opacity:1;fill-rule:nonzero;stroke:none"
                   id="path5819"
                   inkscape:connector-curvature="0" /></g></g></g></g><g
           id="g5827"><g
             id="g5829" /><g
             id="g5841"><g
               clip-path="url(#clipPath5833-6)"
               id="g5839"><g
                 transform="translate(143.9196,572.5494)"
                 id="g5837"><path
                   d="m 0,0 c -0.821,-1.378 -1.675,-2.733 -2.523,-4.092 -0.84,-1.365 -1.705,-2.712 -2.58,-4.053 -1.739,-2.689 -3.471,-5.383 -5.258,-8.039 -1.775,-2.665 -3.575,-5.312 -5.389,-7.95 -1.812,-2.639 -3.646,-5.263 -5.498,-7.875 l -0.456,0.866 7.984,-0.202 c 1.33,-0.025 2.661,-0.104 3.992,-0.154 1.33,-0.054 2.661,-0.114 3.992,-0.197 -1.331,-0.084 -2.662,-0.144 -3.992,-0.197 -1.331,-0.051 -2.662,-0.13 -3.992,-0.154 l -7.984,-0.203 -1.047,-0.026 0.59,0.892 c 1.766,2.671 3.549,5.33 5.354,7.974 1.804,2.644 3.622,5.28 5.463,7.898 1.831,2.627 3.716,5.215 5.594,7.809 0.935,1.301 1.878,2.595 2.847,3.871 C -1.942,-2.55 -0.988,-1.263 0,0"
                   style="fill:#ffffff;fill-opacity:1;fill-rule:nonzero;stroke:none"
                   id="path5835"
                   inkscape:connector-curvature="0" /></g></g></g></g><g
           id="g5843"><g
             id="g5845" /><g
             id="g5857"><g
               clip-path="url(#clipPath5849-3)"
               id="g5855"><g
                 transform="translate(193.3799,563.1348)"
                 id="g5853"><path
                   d="m 0,0 c 0.353,-0.929 0.678,-1.865 1.001,-2.802 0.324,-0.937 0.66,-1.87 0.953,-2.815 0.598,-1.888 1.229,-3.766 1.801,-5.661 1.165,-3.784 2.223,-7.597 3.258,-11.418 l -0.591,0.449 c 2.395,-0.032 4.791,-0.101 7.186,-0.204 1.198,-0.047 2.395,-0.08 3.593,-0.165 1.198,-0.076 2.395,-0.137 3.593,-0.246 -1.198,-0.109 -2.395,-0.17 -3.593,-0.245 -1.198,-0.086 -2.395,-0.119 -3.593,-0.165 -2.395,-0.104 -4.791,-0.173 -7.186,-0.204 l -0.46,-0.006 -0.132,0.454 c -1.105,3.801 -2.188,7.607 -3.163,11.444 -0.499,1.916 -0.938,3.848 -1.41,5.771 C 1.015,-4.854 0.815,-3.882 0.604,-2.914 0.392,-1.945 0.182,-0.977 0,0"
                   style="fill:#ffffff;fill-opacity:1;fill-rule:nonzero;stroke:none"
                   id="path5851"
                   inkscape:connector-curvature="0" /></g></g></g></g></g></g></g></svg>