<?xml version="1.0" encoding="UTF-8" standalone="no"?>
<!-- Created with Inkscape (http://www.inkscape.org/) -->

<svg
   xmlns:dc="http://purl.org/dc/elements/1.1/"
   xmlns:cc="http://creativecommons.org/ns#"
   xmlns:rdf="http://www.w3.org/1999/02/22-rdf-syntax-ns#"
   xmlns:svg="http://www.w3.org/2000/svg"
   xmlns="http://www.w3.org/2000/svg"
   xmlns:sodipodi="http://sodipodi.sourceforge.net/DTD/sodipodi-0.dtd"
   xmlns:inkscape="http://www.inkscape.org/namespaces/inkscape"
   version="1.1"
   id="svg5775"
   xml:space="preserve"
   width="400"
   height="400"
   viewBox="0 0 399.99999 399.99999"
   sodipodi:docname="soul_stone.svg"
   inkscape:version="0.92.3 (2405546, 2018-03-11)"><metadata
     id="metadata5781"><rdf:RDF><cc:Work
         rdf:about=""><dc:format>image/svg+xml</dc:format><dc:type
           rdf:resource="http://purl.org/dc/dcmitype/StillImage" /><dc:title></dc:title></cc:Work></rdf:RDF></metadata><defs
     id="defs5779"><clipPath
       clipPathUnits="userSpaceOnUse"
       id="clipPath5809"><path
         d="M 0,800 H 800 V 0 H 0 Z"
         id="path5807"
         inkscape:connector-curvature="0" /></clipPath><clipPath
       clipPathUnits="userSpaceOnUse"
       id="clipPath5817"><path
         d="m 153.323,590.286 h 23.605 v -50.575 h -23.605 z"
         id="path5815"
         inkscape:connector-curvature="0" /></clipPath><clipPath
       clipPathUnits="userSpaceOnUse"
       id="clipPath5833"><path
         d="M 121.168,572.549 H 143.92 V 540.273 H 121.168 Z"
         id="path5831"
         inkscape:connector-curvature="0" /></clipPath><clipPath
       clipPathUnits="userSpaceOnUse"
       id="clipPath5849"><path
         d="m 193.38,563.135 h 20.794 V 539.653 H 193.38 Z"
         id="path5847"
         inkscape:connector-curvature="0" /></clipPath><clipPath
       clipPathUnits="userSpaceOnUse"
       id="clipPath5893"><path
         d="M 0,800 H 800 V 0 H 0 Z"
         id="path5891"
         inkscape:connector-curvature="0" /></clipPath><clipPath
       clipPathUnits="userSpaceOnUse"
       id="clipPath5901"><path
         d="m 373.072,588.936 h 24.537 v -17.952 h -24.537 z"
         id="path5899"
         inkscape:connector-curvature="0" /></clipPath><clipPath
       clipPathUnits="userSpaceOnUse"
       id="clipPath5917"><path
         d="m 419.792,584.793 h 24.536 v -13.809 h -24.536 z"
         id="path5915"
         inkscape:connector-curvature="0" /></clipPath><clipPath
       clipPathUnits="userSpaceOnUse"
       id="clipPath5933"><path
         d="m 324.465,584.718 h 24.536 V 570.91 h -24.536 z"
         id="path5931"
         inkscape:connector-curvature="0" /></clipPath><clipPath
       clipPathUnits="userSpaceOnUse"
       id="clipPath5989"><path
         d="M 0,800 H 800 V 0 H 0 Z"
         id="path5987"
         inkscape:connector-curvature="0" /></clipPath><clipPath
       clipPathUnits="userSpaceOnUse"
       id="clipPath5997"><path
         d="m 594.889,596.435 h 26.103 v -31.28 h -26.103 z"
         id="path5995"
         inkscape:connector-curvature="0" /></clipPath><clipPath
       clipPathUnits="userSpaceOnUse"
       id="clipPath6013"><path
         d="m 633.527,588.169 h 26.389 v -23.102 h -26.389 z"
         id="path6011"
         inkscape:connector-curvature="0" /></clipPath><clipPath
       clipPathUnits="userSpaceOnUse"
       id="clipPath6029"><path
         d="m 560.012,588.74 h 24.024 v -17.561 h -24.024 z"
         id="path6027"
         inkscape:connector-curvature="0" /></clipPath><clipPath
       clipPathUnits="userSpaceOnUse"
       id="clipPath6045"><path
         d="m 607.396,540.273 h 19.67 v -31.58 h -19.67 z"
         id="path6043"
         inkscape:connector-curvature="0" /></clipPath><clipPath
       clipPathUnits="userSpaceOnUse"
       id="clipPath6073"><path
         d="M 0,800 H 800 V 0 H 0 Z"
         id="path6071"
         inkscape:connector-curvature="0" /></clipPath><clipPath
       clipPathUnits="userSpaceOnUse"
       id="clipPath6081"><path
         d="m 176.928,383.582 h 39.541 v -26.151 h -39.541 z"
         id="path6079"
         inkscape:connector-curvature="0" /></clipPath><clipPath
       clipPathUnits="userSpaceOnUse"
       id="clipPath6097"><path
         d="m 137.344,354.194 h 24.393 v -49.696 h -24.393 z"
         id="path6095"
         inkscape:connector-curvature="0" /></clipPath><clipPath
       clipPathUnits="userSpaceOnUse"
       id="clipPath6113"><path
         d="m 215.866,395.396 h 12.456 V 382.94 h -12.456 z"
         id="path6111"
         inkscape:connector-curvature="0" /></clipPath><clipPath
       clipPathUnits="userSpaceOnUse"
       id="clipPath6129"><path
         d="m 137.99,382.94 h 63.032 V 319.908 H 137.99 Z"
         id="path6127"
         inkscape:connector-curvature="0" /></clipPath><clipPath
       clipPathUnits="userSpaceOnUse"
       id="clipPath6145"><path
         d="m 143.375,377.555 h 72.491 v -72.491 h -72.491 z"
         id="path6143"
         inkscape:connector-curvature="0" /></clipPath><clipPath
       clipPathUnits="userSpaceOnUse"
       id="clipPath6185"><path
         d="M 0,800 H 800 V 0 H 0 Z"
         id="path6183"
         inkscape:connector-curvature="0" /></clipPath><clipPath
       clipPathUnits="userSpaceOnUse"
       id="clipPath6193"><path
         d="m 352.364,390.94 h 90.365 v -96.832 h -90.365 z"
         id="path6191"
         inkscape:connector-curvature="0" /></clipPath><clipPath
       clipPathUnits="userSpaceOnUse"
       id="clipPath6229"><path
         d="m 358.19,382.243 h 61.271 V 320.972 H 358.19 Z"
         id="path6227"
         inkscape:connector-curvature="0" /></clipPath><clipPath
       clipPathUnits="userSpaceOnUse"
       id="clipPath6245"><path
         d="m 363.421,377.012 h 71.252 v -71.251 h -71.252 z"
         id="path6243"
         inkscape:connector-curvature="0" /></clipPath><clipPath
       clipPathUnits="userSpaceOnUse"
       id="clipPath6285"><path
         d="M 0,800 H 800 V 0 H 0 Z"
         id="path6283"
         inkscape:connector-curvature="0" /></clipPath><clipPath
       clipPathUnits="userSpaceOnUse"
       id="clipPath6293"><path
         d="m 369.749,195.385 h 47.688 v -52.266 h -47.688 z"
         id="path6291"
         inkscape:connector-curvature="0" /></clipPath><clipPath
       clipPathUnits="userSpaceOnUse"
       id="clipPath6309"><path
         d="m 369.749,176.256 h 53.365 v -65.069 h -53.365 z"
         id="path6307"
         inkscape:connector-curvature="0" /></clipPath><clipPath
       clipPathUnits="userSpaceOnUse"
       id="clipPath6325"><path
         d="m 396.432,198.481 h 27.322 v -43 h -27.322 z"
         id="path6323"
         inkscape:connector-curvature="0" /></clipPath><clipPath
       clipPathUnits="userSpaceOnUse"
       id="clipPath6341"><path
         d="m 423.115,192.512 h 9.802 v -7.438 h -9.802 z"
         id="path6339"
         inkscape:connector-curvature="0" /></clipPath><clipPath
       clipPathUnits="userSpaceOnUse"
       id="clipPath6357"><path
         d="m 410.172,206.702 h 7.265 v -8.685 h -7.265 z"
         id="path6355"
         inkscape:connector-curvature="0" /></clipPath><clipPath
       clipPathUnits="userSpaceOnUse"
       id="clipPath6373"><path
         d="m 369.105,152.273 h 24.488 v -47.866 h -24.488 z"
         id="path6371"
         inkscape:connector-curvature="0" /></clipPath><clipPath
       clipPathUnits="userSpaceOnUse"
       id="clipPath6389"><path
         d="m 374.839,104.796 h 7.852 v -9.3873 h -7.852 z"
         id="path6387"
         inkscape:connector-curvature="0" /></clipPath><clipPath
       clipPathUnits="userSpaceOnUse"
       id="clipPath6405"><path
         d="m 361.115,117.795 h 8.634 v -6.607 h -8.634 z"
         id="path6403"
         inkscape:connector-curvature="0" /></clipPath><clipPath
       clipPathUnits="userSpaceOnUse"
       id="clipPath6441"><path
         d="M 0,800 H 800 V 0 H 0 Z"
         id="path6439"
         inkscape:connector-curvature="0" /></clipPath><clipPath
       clipPathUnits="userSpaceOnUse"
       id="clipPath6449"><path
         d="M 176.559,211.308 H 218.71 V 166.312 H 176.559 Z"
         id="path6447"
         inkscape:connector-curvature="0" /></clipPath><clipPath
       clipPathUnits="userSpaceOnUse"
       id="clipPath6465"><path
         d="M 135.145,136.388 H 177.32 V 89.8161 h -42.175 z"
         id="path6463"
         inkscape:connector-curvature="0" /></clipPath><clipPath
       clipPathUnits="userSpaceOnUse"
       id="clipPath6481"><path
         d="m 208.192,166.671 h 1.076 v -15.265 h -1.076 z"
         id="path6479"
         inkscape:connector-curvature="0" /></clipPath><clipPath
       clipPathUnits="userSpaceOnUse"
       id="clipPath6497"><path
         d="m 144.587,151.406 h 1.076 v -15.37 h -1.076 z"
         id="path6495"
         inkscape:connector-curvature="0" /></clipPath><clipPath
       clipPathUnits="userSpaceOnUse"
       id="clipPath6513"><path
         d="m 145.125,184.317 h 48.489 v -50.012 h -48.489 z"
         id="path6511"
         inkscape:connector-curvature="0" /></clipPath><clipPath
       clipPathUnits="userSpaceOnUse"
       id="clipPath6529"><path
         d="M 155.608,172.788 H 208.73 V 119.554 H 155.608 Z"
         id="path6527"
         inkscape:connector-curvature="0" /></clipPath><clipPath
       clipPathUnits="userSpaceOnUse"
       id="clipPath6569"><path
         d="M 0,800 H 800 V 0 H 0 Z"
         id="path6567"
         inkscape:connector-curvature="0" /></clipPath><clipPath
       clipPathUnits="userSpaceOnUse"
       id="clipPath6577"><path
         d="M 578.957,385.924 H 643.5 v -64.446 h -64.543 z"
         id="path6575"
         inkscape:connector-curvature="0" /></clipPath><clipPath
       clipPathUnits="userSpaceOnUse"
       id="clipPath6593"><path
         d="M 593.651,371.233 H 662.77 V 302.209 H 593.651 Z"
         id="path6591"
         inkscape:connector-curvature="0" /></clipPath><clipPath
       clipPathUnits="userSpaceOnUse"
       id="clipPath6609"><path
         d="m 620.94,386.88 h 42.882 V 344.002 H 620.94 Z"
         id="path6607"
         inkscape:connector-curvature="0" /></clipPath><clipPath
       clipPathUnits="userSpaceOnUse"
       id="clipPath6625"><path
         d="m 578.073,343.983 h 42.867 v -42.85 h -42.867 z"
         id="path6623"
         inkscape:connector-curvature="0" /></clipPath><clipPath
       clipPathUnits="userSpaceOnUse"
       id="clipPath6641"><path
         d="m 663.307,366.547 h 12.062 v -4.996 h -12.062 z"
         id="path6639"
         inkscape:connector-curvature="0" /></clipPath><clipPath
       clipPathUnits="userSpaceOnUse"
       id="clipPath6657"><path
         d="m 638.489,396.275 h 4.103 v -9.906 h -4.103 z"
         id="path6655"
         inkscape:connector-curvature="0" /></clipPath><clipPath
       clipPathUnits="userSpaceOnUse"
       id="clipPath6673"><path
         d="m 598.586,301.635 h 4.804 v -11.598 h -4.804 z"
         id="path6671"
         inkscape:connector-curvature="0" /></clipPath><clipPath
       clipPathUnits="userSpaceOnUse"
       id="clipPath6689"><path
         d="m 566.561,326.453 h 12.012 v -4.975 h -12.012 z"
         id="path6687"
         inkscape:connector-curvature="0" /></clipPath><clipPath
       clipPathUnits="userSpaceOnUse"
       id="clipPath6737"><path
         d="M 0,800 H 800 V 0 H 0 Z"
         id="path6735"
         inkscape:connector-curvature="0" /></clipPath><clipPath
       clipPathUnits="userSpaceOnUse"
       id="clipPath6745"><path
         d="m 577.274,196.102 h 67.932 v -64.257 h -67.932 z"
         id="path6743"
         inkscape:connector-curvature="0" /></clipPath><clipPath
       clipPathUnits="userSpaceOnUse"
       id="clipPath6761"><path
         d="m 591.339,178.514 h 72.257 v -71.803 h -72.257 z"
         id="path6759"
         inkscape:connector-curvature="0" /></clipPath><clipPath
       clipPathUnits="userSpaceOnUse"
       id="clipPath6777"><path
         d="m 620.94,196.75 h 38.846 V 173.736 H 620.94 Z"
         id="path6775"
         inkscape:connector-curvature="0" /></clipPath><clipPath
       clipPathUnits="userSpaceOnUse"
       id="clipPath6793"><path
         d="m 636.795,207.057 h 20.954 v -13.344 h -20.954 z"
         id="path6791"
         inkscape:connector-curvature="0" /></clipPath><clipPath
       clipPathUnits="userSpaceOnUse"
       id="clipPath6809"><path
         d="M 580.623,131.845 H 620.94 V 106.069 H 580.623 Z"
         id="path6807"
         inkscape:connector-curvature="0" /></clipPath><clipPath
       clipPathUnits="userSpaceOnUse"
       id="clipPath6825"><path
         d="m 583.62,109.21 h 22.994 V 94.071 H 583.62 Z"
         id="path6823"
         inkscape:connector-curvature="0" /></clipPath><clipPath
       clipPathUnits="userSpaceOnUse"
       id="clipPath6841"><path
         d="M 584.981,196.682 H 604.76 V 178.514 H 584.981 Z"
         id="path6839"
         inkscape:connector-curvature="0" /></clipPath><clipPath
       clipPathUnits="userSpaceOnUse"
       id="clipPath6857"><path
         d="m 635.186,123.168 h 21.06 v -17.079 h -21.06 z"
         id="path6855"
         inkscape:connector-curvature="0" /></clipPath><clipPath
       clipPathUnits="userSpaceOnUse"
       id="clipPath6877"><path
         d="M 0,800 H 800 V 0 H 0 Z"
         id="path6875"
         inkscape:connector-curvature="0" /></clipPath><clipPath
       clipPathUnits="userSpaceOnUse"
       id="clipPath5809-7"><path
         d="M 0,800 H 800 V 0 H 0 Z"
         id="path5807-5"
         inkscape:connector-curvature="0" /></clipPath><clipPath
       clipPathUnits="userSpaceOnUse"
       id="clipPath5817-1"><path
         d="m 153.323,590.286 h 23.605 v -50.575 h -23.605 z"
         id="path5815-9"
         inkscape:connector-curvature="0" /></clipPath><clipPath
       clipPathUnits="userSpaceOnUse"
       id="clipPath5833-6"><path
         d="M 121.168,572.549 H 143.92 V 540.273 H 121.168 Z"
         id="path5831-0"
         inkscape:connector-curvature="0" /></clipPath><clipPath
       clipPathUnits="userSpaceOnUse"
       id="clipPath5849-3"><path
         d="m 193.38,563.135 h 20.794 V 539.653 H 193.38 Z"
         id="path5847-0"
         inkscape:connector-curvature="0" /></clipPath><clipPath
       clipPathUnits="userSpaceOnUse"
       id="clipPath5893-9"><path
         d="M 0,800 H 800 V 0 H 0 Z"
         id="path5891-6"
         inkscape:connector-curvature="0" /></clipPath><clipPath
       clipPathUnits="userSpaceOnUse"
       id="clipPath5901-9"><path
         d="m 373.072,588.936 h 24.537 v -17.952 h -24.537 z"
         id="path5899-7"
         inkscape:connector-curvature="0" /></clipPath><clipPath
       clipPathUnits="userSpaceOnUse"
       id="clipPath5917-9"><path
         d="m 419.792,584.793 h 24.536 v -13.809 h -24.536 z"
         id="path5915-2"
         inkscape:connector-curvature="0" /></clipPath><clipPath
       clipPathUnits="userSpaceOnUse"
       id="clipPath5933-7"><path
         d="m 324.465,584.718 h 24.536 V 570.91 h -24.536 z"
         id="path5931-1"
         inkscape:connector-curvature="0" /></clipPath><clipPath
       clipPathUnits="userSpaceOnUse"
       id="clipPath5989-8"><path
         d="M 0,800 H 800 V 0 H 0 Z"
         id="path5987-3"
         inkscape:connector-curvature="0" /></clipPath><clipPath
       clipPathUnits="userSpaceOnUse"
       id="clipPath5997-4"><path
         d="m 594.889,596.435 h 26.103 v -31.28 h -26.103 z"
         id="path5995-9"
         inkscape:connector-curvature="0" /></clipPath><clipPath
       clipPathUnits="userSpaceOnUse"
       id="clipPath6013-8"><path
         d="m 633.527,588.169 h 26.389 v -23.102 h -26.389 z"
         id="path6011-8"
         inkscape:connector-curvature="0" /></clipPath><clipPath
       clipPathUnits="userSpaceOnUse"
       id="clipPath6029-8"><path
         d="m 560.012,588.74 h 24.024 v -17.561 h -24.024 z"
         id="path6027-6"
         inkscape:connector-curvature="0" /></clipPath><clipPath
       clipPathUnits="userSpaceOnUse"
       id="clipPath6045-1"><path
         d="m 607.396,540.273 h 19.67 v -31.58 h -19.67 z"
         id="path6043-9"
         inkscape:connector-curvature="0" /></clipPath><clipPath
       clipPathUnits="userSpaceOnUse"
       id="clipPath6073-1"><path
         d="M 0,800 H 800 V 0 H 0 Z"
         id="path6071-6"
         inkscape:connector-curvature="0" /></clipPath><clipPath
       clipPathUnits="userSpaceOnUse"
       id="clipPath6081-3"><path
         d="m 176.928,383.582 h 39.541 v -26.151 h -39.541 z"
         id="path6079-9"
         inkscape:connector-curvature="0" /></clipPath><clipPath
       clipPathUnits="userSpaceOnUse"
       id="clipPath6097-0"><path
         d="m 137.344,354.194 h 24.393 v -49.696 h -24.393 z"
         id="path6095-0"
         inkscape:connector-curvature="0" /></clipPath><clipPath
       clipPathUnits="userSpaceOnUse"
       id="clipPath6113-5"><path
         d="m 215.866,395.396 h 12.456 V 382.94 h -12.456 z"
         id="path6111-9"
         inkscape:connector-curvature="0" /></clipPath><clipPath
       clipPathUnits="userSpaceOnUse"
       id="clipPath6129-0"><path
         d="m 137.99,382.94 h 63.032 V 319.908 H 137.99 Z"
         id="path6127-4"
         inkscape:connector-curvature="0" /></clipPath><clipPath
       clipPathUnits="userSpaceOnUse"
       id="clipPath6145-7"><path
         d="m 143.375,377.555 h 72.491 v -72.491 h -72.491 z"
         id="path6143-6"
         inkscape:connector-curvature="0" /></clipPath><clipPath
       clipPathUnits="userSpaceOnUse"
       id="clipPath6185-4"><path
         d="M 0,800 H 800 V 0 H 0 Z"
         id="path6183-4"
         inkscape:connector-curvature="0" /></clipPath><clipPath
       clipPathUnits="userSpaceOnUse"
       id="clipPath6193-8"><path
         d="m 352.364,390.94 h 90.365 v -96.832 h -90.365 z"
         id="path6191-6"
         inkscape:connector-curvature="0" /></clipPath><clipPath
       clipPathUnits="userSpaceOnUse"
       id="clipPath6229-4"><path
         d="m 358.19,382.243 h 61.271 V 320.972 H 358.19 Z"
         id="path6227-7"
         inkscape:connector-curvature="0" /></clipPath><clipPath
       clipPathUnits="userSpaceOnUse"
       id="clipPath6245-0"><path
         d="m 363.421,377.012 h 71.252 v -71.251 h -71.252 z"
         id="path6243-4"
         inkscape:connector-curvature="0" /></clipPath><clipPath
       clipPathUnits="userSpaceOnUse"
       id="clipPath6285-5"><path
         d="M 0,800 H 800 V 0 H 0 Z"
         id="path6283-8"
         inkscape:connector-curvature="0" /></clipPath><clipPath
       clipPathUnits="userSpaceOnUse"
       id="clipPath6293-3"><path
         d="m 369.749,195.385 h 47.688 v -52.266 h -47.688 z"
         id="path6291-0"
         inkscape:connector-curvature="0" /></clipPath><clipPath
       clipPathUnits="userSpaceOnUse"
       id="clipPath6309-2"><path
         d="m 369.749,176.256 h 53.365 v -65.069 h -53.365 z"
         id="path6307-4"
         inkscape:connector-curvature="0" /></clipPath><clipPath
       clipPathUnits="userSpaceOnUse"
       id="clipPath6325-3"><path
         d="m 396.432,198.481 h 27.322 v -43 h -27.322 z"
         id="path6323-1"
         inkscape:connector-curvature="0" /></clipPath><clipPath
       clipPathUnits="userSpaceOnUse"
       id="clipPath6341-9"><path
         d="m 423.115,192.512 h 9.802 v -7.438 h -9.802 z"
         id="path6339-4"
         inkscape:connector-curvature="0" /></clipPath><clipPath
       clipPathUnits="userSpaceOnUse"
       id="clipPath6357-1"><path
         d="m 410.172,206.702 h 7.265 v -8.685 h -7.265 z"
         id="path6355-4"
         inkscape:connector-curvature="0" /></clipPath><clipPath
       clipPathUnits="userSpaceOnUse"
       id="clipPath6373-4"><path
         d="m 369.105,152.273 h 24.488 v -47.866 h -24.488 z"
         id="path6371-9"
         inkscape:connector-curvature="0" /></clipPath><clipPath
       clipPathUnits="userSpaceOnUse"
       id="clipPath6389-8"><path
         d="m 374.839,104.796 h 7.852 v -9.3873 h -7.852 z"
         id="path6387-9"
         inkscape:connector-curvature="0" /></clipPath><clipPath
       clipPathUnits="userSpaceOnUse"
       id="clipPath6405-5"><path
         d="m 361.115,117.795 h 8.634 v -6.607 h -8.634 z"
         id="path6403-0"
         inkscape:connector-curvature="0" /></clipPath></defs><sodipodi:namedview
     pagecolor="#ffffff"
     bordercolor="#666666"
     borderopacity="1"
     objecttolerance="10"
     gridtolerance="10"
     guidetolerance="10"
     inkscape:pageopacity="0"
     inkscape:pageshadow="2"
     inkscape:window-width="1920"
     inkscape:window-height="1017"
     id="namedview5777"
     showgrid="false"
     inkscape:zoom="1.2515789"
     inkscape:cx="45.200112"
     inkscape:cy="174.25087"
     inkscape:window-x="1912"
     inkscape:window-y="-8"
     inkscape:window-maximized="1"
     inkscape:current-layer="layer4" /><g
     inkscape:groupmode="layer"
     id="layer4"
     inkscape:label="105845-OMYTSO-888"
     transform="translate(90.230977,444.76611)"><g
       id="g10961"
       transform="matrix(2.1016961,0,0,2.1016961,169.69842,32.543256)"><g
         transform="matrix(1.3333333,0,0,-1.3333333,-67.774978,-219.12491)"
         id="g6255"><path
           inkscape:connector-curvature="0"
           id="path6257"
           style="fill:#ed872c;fill-opacity:1;fill-rule:nonzero;stroke:none"
           d="m 0,0 -16.842,-16.842 v -97.085 L 0,-130.769 h 58.891 l 16.841,16.842 v 97.085 L 58.891,0 Z" /></g><g
         transform="matrix(1.3333333,0,0,-1.3333333,-46.834578,-194.09317)"
         id="g6259"><path
           inkscape:connector-curvature="0"
           id="path6261"
           style="fill:#ffbb7f;fill-opacity:1;fill-rule:nonzero;stroke:none"
           d="M 0,0 -12.943,-12.943 V -80.279 L 0,-93.221 h 27.48 l 12.943,12.942 v 67.336 L 27.48,0 Z" /></g><g
         transform="matrix(1.3333333,0,0,-1.3333333,33.201422,-196.66917)"
         id="g6263"><path
           inkscape:connector-curvature="0"
           id="path6265"
           style="fill:#ffa95d;fill-opacity:1;fill-rule:nonzero;stroke:none"
           d="M 0,0 -19.604,-14.875 V -82.21 L 0,-97.085 Z" /></g><g
         transform="matrix(1.3333333,0,0,-1.3333333,-90.230718,-196.66917)"
         id="g6267"><path
           inkscape:connector-curvature="0"
           id="path6269"
           style="fill:#ffa95d;fill-opacity:1;fill-rule:nonzero;stroke:none"
           d="M 0,0 19.604,-14.875 V -82.21 L 0,-97.085 Z" /></g><g
         transform="matrix(1.3333333,0,0,-1.3333333,10.745682,-219.12491)"
         id="g6271"><path
           inkscape:connector-curvature="0"
           id="path6273"
           style="fill:#ffa95d;fill-opacity:1;fill-rule:nonzero;stroke:none"
           d="m 0,0 -15.705,-18.774 h -27.48 L -58.891,0 Z" /></g><g
         transform="matrix(1.3333333,0,0,-1.3333333,10.745682,-44.766112)"
         id="g6275"><path
           inkscape:connector-curvature="0"
           id="path6277"
           style="fill:#ffa95d;fill-opacity:1;fill-rule:nonzero;stroke:none"
           d="m 0,0 -15.705,18.774 h -27.48 L -58.891,0 Z" /></g><g
         id="g6279"
         transform="matrix(1.3333333,0,0,-1.3333333,-557.09017,69.929618)"><g
           clip-path="url(#clipPath6285-5)"
           id="g6281"><g
             id="g6287"><g
               id="g6289" /><g
               id="g6301"><g
                 style="opacity:0.5"
                 id="g6299"
                 clip-path="url(#clipPath6293-3)"><g
                   id="g6297"
                   transform="translate(369.7485,143.1192)"><path
                     inkscape:connector-curvature="0"
                     id="path6295"
                     style="fill:#ffffff;fill-opacity:1;fill-rule:nonzero;stroke:none"
                     d="M 0,0 47.689,47.688 43.111,52.266 0,9.154 Z" /></g></g></g></g><g
             id="g6303"><g
               id="g6305" /><g
               id="g6317"><g
                 style="opacity:0.5"
                 id="g6315"
                 clip-path="url(#clipPath6309-2)"><g
                   id="g6313"
                   transform="translate(423.1143,176.256)"><path
                     inkscape:connector-curvature="0"
                     id="path6311"
                     style="fill:#ffffff;fill-opacity:1;fill-rule:nonzero;stroke:none"
                     d="m 0,0 -53.366,-53.366 v -5.095 l 6.607,-6.607 L 0,-18.31 Z" /></g></g></g></g><g
             id="g6319"><g
               id="g6321" /><g
               id="g6333"><g
                 id="g6331"
                 clip-path="url(#clipPath6325-3)"><g
                   id="g6329"
                   transform="translate(423.1143,155.4811)"><path
                     inkscape:connector-curvature="0"
                     id="path6327"
                     style="fill:#ffffff;fill-opacity:1;fill-rule:nonzero;stroke:none"
                     d="m 0,0 c -0.14,2.466 -0.202,4.932 -0.304,7.398 l -0.178,7.398 c -0.072,2.467 -0.081,4.933 -0.099,7.399 l -0.056,7.398 0.187,-0.451 c -2.17,2.146 -4.29,4.34 -6.437,6.507 l -3.211,3.261 c -1.071,1.085 -2.112,2.202 -3.169,3.301 l 0.324,-0.134 c -2.29,0.059 -4.58,0.091 -6.869,0.173 -2.291,0.094 -4.581,0.156 -6.871,0.286 2.29,0.13 4.58,0.192 6.871,0.286 2.289,0.082 4.579,0.114 6.869,0.173 l 0.18,0.005 0.145,-0.139 c 1.1,-1.058 2.216,-2.099 3.302,-3.17 l 3.26,-3.211 c 2.167,-2.147 4.362,-4.267 6.507,-6.436 L 0.64,29.853 0.638,29.593 0.582,22.195 C 0.563,19.729 0.554,17.263 0.482,14.796 L 0.304,7.398 C 0.202,4.932 0.14,2.466 0,0" /></g></g></g></g><g
             id="g6335"><g
               id="g6337" /><g
               id="g6349"><g
                 id="g6347"
                 clip-path="url(#clipPath6341-9)"><g
                   id="g6345"
                   transform="translate(423.1149,185.074)"><path
                     inkscape:connector-curvature="0"
                     id="path6343"
                     style="fill:#ffffff;fill-opacity:1;fill-rule:nonzero;stroke:none"
                     d="m 0,0 c 0,0 0.482,0.637 1.307,1.457 0.82,0.828 1.98,1.844 3.202,2.777 1.228,0.927 2.518,1.771 3.536,2.338 1.012,0.574 1.757,0.865 1.757,0.865 0,0 -0.482,-0.638 -1.307,-1.458 C 7.675,5.151 6.515,4.136 5.292,3.203 4.064,2.277 2.773,1.434 1.755,0.867 0.743,0.292 0,0 0,0" /></g></g></g></g><g
             id="g6351"><g
               id="g6353" /><g
               id="g6365"><g
                 id="g6363"
                 clip-path="url(#clipPath6357-1)"><g
                   id="g6361"
                   transform="translate(410.1719,198.0171)"><path
                     inkscape:connector-curvature="0"
                     id="path6359"
                     style="fill:#ffffff;fill-opacity:1;fill-rule:nonzero;stroke:none"
                     d="m 0,0 c 0,0 0.288,0.682 0.851,1.594 0.556,0.92 1.381,2.075 2.285,3.164 0.911,1.083 1.901,2.1 2.709,2.808 0.799,0.716 1.42,1.119 1.42,1.119 0,0 -0.287,-0.682 -0.85,-1.596 C 5.861,6.17 5.034,5.016 4.129,3.927 3.217,2.845 2.225,1.829 1.419,1.12 0.62,0.404 0,0 0,0" /></g></g></g></g><g
             id="g6367"><g
               id="g6369" /><g
               id="g6381"><g
                 id="g6379"
                 clip-path="url(#clipPath6373-4)"><g
                   id="g6377"
                   transform="translate(369.7485,152.2734)"><path
                     inkscape:connector-curvature="0"
                     id="path6375"
                     style="fill:#ffffff;fill-opacity:1;fill-rule:nonzero;stroke:none"
                     d="m 0,0 c 0.153,-2.873 0.229,-5.746 0.333,-8.62 l 0.192,-8.619 c 0.05,-2.873 0.05,-5.747 0.078,-8.62 0.011,-2.873 0.067,-5.746 0.026,-8.62 l -0.183,0.444 6.423,-6.548 c 2.151,-2.172 4.229,-4.417 6.347,-6.623 l -0.272,0.114 c 1.816,-0.033 3.633,-0.085 5.45,-0.161 1.817,-0.066 3.634,-0.126 5.451,-0.225 -1.817,-0.099 -3.634,-0.159 -5.451,-0.225 -1.817,-0.075 -3.634,-0.128 -5.45,-0.16 l -0.154,-0.003 -0.12,0.116 c -2.196,2.128 -4.433,4.216 -6.596,6.376 l -6.52,6.452 -0.179,0.177 -0.004,0.266 c -0.041,2.874 0.015,5.747 0.026,8.62 0.028,2.873 0.028,5.747 0.078,8.62 l 0.192,8.619 C -0.229,-5.746 -0.153,-2.873 0,0" /></g></g></g></g><g
             id="g6383"><g
               id="g6385" /><g
               id="g6397"><g
                 id="g6395"
                 clip-path="url(#clipPath6389-8)"><g
                   id="g6393"
                   transform="translate(382.6915,104.7955)"><path
                     inkscape:connector-curvature="0"
                     id="path6391"
                     style="fill:#ffffff;fill-opacity:1;fill-rule:nonzero;stroke:none"
                     d="m 0,0 c 0,0 -0.324,-0.725 -0.943,-1.704 -0.61,-0.985 -1.509,-2.228 -2.487,-3.405 -0.985,-1.17 -2.048,-2.275 -2.91,-3.05 -0.854,-0.781 -1.513,-1.228 -1.513,-1.228 0,0 0.324,0.727 0.942,1.705 0.61,0.986 1.51,2.228 2.489,3.404 0.985,1.17 2.049,2.274 2.912,3.049 C -0.657,-0.448 0,0 0,0" /></g></g></g></g><g
             id="g6399"><g
               id="g6401" /><g
               id="g6413"><g
                 id="g6411"
                 clip-path="url(#clipPath6405-5)"><g
                   id="g6409"
                   transform="translate(369.7485,117.7948)"><path
                     inkscape:connector-curvature="0"
                     id="path6407"
                     style="fill:#ffffff;fill-opacity:1;fill-rule:nonzero;stroke:none"
                     d="m 0,0 c 0,0 -0.408,-0.585 -1.124,-1.326 -0.71,-0.75 -1.723,-1.662 -2.799,-2.491 -1.082,-0.823 -2.226,-1.564 -3.136,-2.053 -0.903,-0.497 -1.574,-0.737 -1.574,-0.737 0,0 0.407,0.586 1.123,1.327 0.709,0.751 1.724,1.661 2.8,2.49 1.082,0.822 2.227,1.562 3.136,2.052 C -0.671,-0.241 0,0 0,0" /></g></g></g></g></g></g></g></g></svg>