<?xml version="1.0" encoding="UTF-8" standalone="no"?>
<svg
   xmlns:dc="http://purl.org/dc/elements/1.1/"
   xmlns:cc="http://creativecommons.org/ns#"
   xmlns:rdf="http://www.w3.org/1999/02/22-rdf-syntax-ns#"
   xmlns:svg="http://www.w3.org/2000/svg"
   xmlns="http://www.w3.org/2000/svg"
   viewBox="0 0 400.00001 399.99999"
   height="400"
   width="400"
   xml:space="preserve"
   id="svg5775"
   version="1.1"><metadata
     id="metadata5781"><rdf:RDF><cc:Work
         rdf:about=""><dc:format>image/svg+xml</dc:format><dc:type
           rdf:resource="http://purl.org/dc/dcmitype/StillImage" /><dc:title></dc:title></cc:Work></rdf:RDF></metadata><defs
     id="defs5779"><clipPath
       id="clipPath5809"
       clipPathUnits="userSpaceOnUse"><path
         id="path5807"
         d="M 0,800 H 800 V 0 H 0 Z" /></clipPath><clipPath
       id="clipPath5817"
       clipPathUnits="userSpaceOnUse"><path
         id="path5815"
         d="m 153.323,590.286 h 23.605 v -50.575 h -23.605 z" /></clipPath><clipPath
       id="clipPath5833"
       clipPathUnits="userSpaceOnUse"><path
         id="path5831"
         d="M 121.168,572.549 H 143.92 V 540.273 H 121.168 Z" /></clipPath><clipPath
       id="clipPath5849"
       clipPathUnits="userSpaceOnUse"><path
         id="path5847"
         d="m 193.38,563.135 h 20.794 V 539.653 H 193.38 Z" /></clipPath><clipPath
       id="clipPath5893"
       clipPathUnits="userSpaceOnUse"><path
         id="path5891"
         d="M 0,800 H 800 V 0 H 0 Z" /></clipPath><clipPath
       id="clipPath5901"
       clipPathUnits="userSpaceOnUse"><path
         id="path5899"
         d="m 373.072,588.936 h 24.537 v -17.952 h -24.537 z" /></clipPath><clipPath
       id="clipPath5917"
       clipPathUnits="userSpaceOnUse"><path
         id="path5915"
         d="m 419.792,584.793 h 24.536 v -13.809 h -24.536 z" /></clipPath><clipPath
       id="clipPath5933"
       clipPathUnits="userSpaceOnUse"><path
         id="path5931"
         d="m 324.465,584.718 h 24.536 V 570.91 h -24.536 z" /></clipPath><clipPath
       id="clipPath5989"
       clipPathUnits="userSpaceOnUse"><path
         id="path5987"
         d="M 0,800 H 800 V 0 H 0 Z" /></clipPath><clipPath
       id="clipPath5997"
       clipPathUnits="userSpaceOnUse"><path
         id="path5995"
         d="m 594.889,596.435 h 26.103 v -31.28 h -26.103 z" /></clipPath><clipPath
       id="clipPath6013"
       clipPathUnits="userSpaceOnUse"><path
         id="path6011"
         d="m 633.527,588.169 h 26.389 v -23.102 h -26.389 z" /></clipPath><clipPath
       id="clipPath6029"
       clipPathUnits="userSpaceOnUse"><path
         id="path6027"
         d="m 560.012,588.74 h 24.024 v -17.561 h -24.024 z" /></clipPath><clipPath
       id="clipPath6045"
       clipPathUnits="userSpaceOnUse"><path
         id="path6043"
         d="m 607.396,540.273 h 19.67 v -31.58 h -19.67 z" /></clipPath><clipPath
       id="clipPath6073"
       clipPathUnits="userSpaceOnUse"><path
         id="path6071"
         d="M 0,800 H 800 V 0 H 0 Z" /></clipPath><clipPath
       id="clipPath6081"
       clipPathUnits="userSpaceOnUse"><path
         id="path6079"
         d="m 176.928,383.582 h 39.541 v -26.151 h -39.541 z" /></clipPath><clipPath
       id="clipPath6097"
       clipPathUnits="userSpaceOnUse"><path
         id="path6095"
         d="m 137.344,354.194 h 24.393 v -49.696 h -24.393 z" /></clipPath><clipPath
       id="clipPath6113"
       clipPathUnits="userSpaceOnUse"><path
         id="path6111"
         d="m 215.866,395.396 h 12.456 V 382.94 h -12.456 z" /></clipPath><clipPath
       id="clipPath6129"
       clipPathUnits="userSpaceOnUse"><path
         id="path6127"
         d="m 137.99,382.94 h 63.032 V 319.908 H 137.99 Z" /></clipPath><clipPath
       id="clipPath6145"
       clipPathUnits="userSpaceOnUse"><path
         id="path6143"
         d="m 143.375,377.555 h 72.491 v -72.491 h -72.491 z" /></clipPath><clipPath
       id="clipPath6185"
       clipPathUnits="userSpaceOnUse"><path
         id="path6183"
         d="M 0,800 H 800 V 0 H 0 Z" /></clipPath><clipPath
       id="clipPath6193"
       clipPathUnits="userSpaceOnUse"><path
         id="path6191"
         d="m 352.364,390.94 h 90.365 v -96.832 h -90.365 z" /></clipPath><clipPath
       id="clipPath6229"
       clipPathUnits="userSpaceOnUse"><path
         id="path6227"
         d="m 358.19,382.243 h 61.271 V 320.972 H 358.19 Z" /></clipPath><clipPath
       id="clipPath6245"
       clipPathUnits="userSpaceOnUse"><path
         id="path6243"
         d="m 363.421,377.012 h 71.252 v -71.251 h -71.252 z" /></clipPath><clipPath
       id="clipPath6285"
       clipPathUnits="userSpaceOnUse"><path
         id="path6283"
         d="M 0,800 H 800 V 0 H 0 Z" /></clipPath><clipPath
       id="clipPath6293"
       clipPathUnits="userSpaceOnUse"><path
         id="path6291"
         d="m 369.749,195.385 h 47.688 v -52.266 h -47.688 z" /></clipPath><clipPath
       id="clipPath6309"
       clipPathUnits="userSpaceOnUse"><path
         id="path6307"
         d="m 369.749,176.256 h 53.365 v -65.069 h -53.365 z" /></clipPath><clipPath
       id="clipPath6325"
       clipPathUnits="userSpaceOnUse"><path
         id="path6323"
         d="m 396.432,198.481 h 27.322 v -43 h -27.322 z" /></clipPath><clipPath
       id="clipPath6341"
       clipPathUnits="userSpaceOnUse"><path
         id="path6339"
         d="m 423.115,192.512 h 9.802 v -7.438 h -9.802 z" /></clipPath><clipPath
       id="clipPath6357"
       clipPathUnits="userSpaceOnUse"><path
         id="path6355"
         d="m 410.172,206.702 h 7.265 v -8.685 h -7.265 z" /></clipPath><clipPath
       id="clipPath6373"
       clipPathUnits="userSpaceOnUse"><path
         id="path6371"
         d="m 369.105,152.273 h 24.488 v -47.866 h -24.488 z" /></clipPath><clipPath
       id="clipPath6389"
       clipPathUnits="userSpaceOnUse"><path
         id="path6387"
         d="m 374.839,104.796 h 7.852 v -9.3873 h -7.852 z" /></clipPath><clipPath
       id="clipPath6405"
       clipPathUnits="userSpaceOnUse"><path
         id="path6403"
         d="m 361.115,117.795 h 8.634 v -6.607 h -8.634 z" /></clipPath><clipPath
       id="clipPath6441"
       clipPathUnits="userSpaceOnUse"><path
         id="path6439"
         d="M 0,800 H 800 V 0 H 0 Z" /></clipPath><clipPath
       id="clipPath6449"
       clipPathUnits="userSpaceOnUse"><path
         id="path6447"
         d="M 176.559,211.308 H 218.71 V 166.312 H 176.559 Z" /></clipPath><clipPath
       id="clipPath6465"
       clipPathUnits="userSpaceOnUse"><path
         id="path6463"
         d="M 135.145,136.388 H 177.32 V 89.8161 h -42.175 z" /></clipPath><clipPath
       id="clipPath6481"
       clipPathUnits="userSpaceOnUse"><path
         id="path6479"
         d="m 208.192,166.671 h 1.076 v -15.265 h -1.076 z" /></clipPath><clipPath
       id="clipPath6497"
       clipPathUnits="userSpaceOnUse"><path
         id="path6495"
         d="m 144.587,151.406 h 1.076 v -15.37 h -1.076 z" /></clipPath><clipPath
       id="clipPath6513"
       clipPathUnits="userSpaceOnUse"><path
         id="path6511"
         d="m 145.125,184.317 h 48.489 v -50.012 h -48.489 z" /></clipPath><clipPath
       id="clipPath6529"
       clipPathUnits="userSpaceOnUse"><path
         id="path6527"
         d="M 155.608,172.788 H 208.73 V 119.554 H 155.608 Z" /></clipPath><clipPath
       id="clipPath6569"
       clipPathUnits="userSpaceOnUse"><path
         id="path6567"
         d="M 0,800 H 800 V 0 H 0 Z" /></clipPath><clipPath
       id="clipPath6577"
       clipPathUnits="userSpaceOnUse"><path
         id="path6575"
         d="M 578.957,385.924 H 643.5 v -64.446 h -64.543 z" /></clipPath><clipPath
       id="clipPath6593"
       clipPathUnits="userSpaceOnUse"><path
         id="path6591"
         d="M 593.651,371.233 H 662.77 V 302.209 H 593.651 Z" /></clipPath><clipPath
       id="clipPath6609"
       clipPathUnits="userSpaceOnUse"><path
         id="path6607"
         d="m 620.94,386.88 h 42.882 V 344.002 H 620.94 Z" /></clipPath><clipPath
       id="clipPath6625"
       clipPathUnits="userSpaceOnUse"><path
         id="path6623"
         d="m 578.073,343.983 h 42.867 v -42.85 h -42.867 z" /></clipPath><clipPath
       id="clipPath6641"
       clipPathUnits="userSpaceOnUse"><path
         id="path6639"
         d="m 663.307,366.547 h 12.062 v -4.996 h -12.062 z" /></clipPath><clipPath
       id="clipPath6657"
       clipPathUnits="userSpaceOnUse"><path
         id="path6655"
         d="m 638.489,396.275 h 4.103 v -9.906 h -4.103 z" /></clipPath><clipPath
       id="clipPath6673"
       clipPathUnits="userSpaceOnUse"><path
         id="path6671"
         d="m 598.586,301.635 h 4.804 v -11.598 h -4.804 z" /></clipPath><clipPath
       id="clipPath6689"
       clipPathUnits="userSpaceOnUse"><path
         id="path6687"
         d="m 566.561,326.453 h 12.012 v -4.975 h -12.012 z" /></clipPath><clipPath
       id="clipPath6737"
       clipPathUnits="userSpaceOnUse"><path
         id="path6735"
         d="M 0,800 H 800 V 0 H 0 Z" /></clipPath><clipPath
       id="clipPath6745"
       clipPathUnits="userSpaceOnUse"><path
         id="path6743"
         d="m 577.274,196.102 h 67.932 v -64.257 h -67.932 z" /></clipPath><clipPath
       id="clipPath6761"
       clipPathUnits="userSpaceOnUse"><path
         id="path6759"
         d="m 591.339,178.514 h 72.257 v -71.803 h -72.257 z" /></clipPath><clipPath
       id="clipPath6777"
       clipPathUnits="userSpaceOnUse"><path
         id="path6775"
         d="m 620.94,196.75 h 38.846 V 173.736 H 620.94 Z" /></clipPath><clipPath
       id="clipPath6793"
       clipPathUnits="userSpaceOnUse"><path
         id="path6791"
         d="m 636.795,207.057 h 20.954 v -13.344 h -20.954 z" /></clipPath><clipPath
       id="clipPath6809"
       clipPathUnits="userSpaceOnUse"><path
         id="path6807"
         d="M 580.623,131.845 H 620.94 V 106.069 H 580.623 Z" /></clipPath><clipPath
       id="clipPath6825"
       clipPathUnits="userSpaceOnUse"><path
         id="path6823"
         d="m 583.62,109.21 h 22.994 V 94.071 H 583.62 Z" /></clipPath><clipPath
       id="clipPath6841"
       clipPathUnits="userSpaceOnUse"><path
         id="path6839"
         d="M 584.981,196.682 H 604.76 V 178.514 H 584.981 Z" /></clipPath><clipPath
       id="clipPath6857"
       clipPathUnits="userSpaceOnUse"><path
         id="path6855"
         d="m 635.186,123.168 h 21.06 v -17.079 h -21.06 z" /></clipPath><clipPath
       id="clipPath6877"
       clipPathUnits="userSpaceOnUse"><path
         id="path6875"
         d="M 0,800 H 800 V 0 H 0 Z" /></clipPath><clipPath
       id="clipPath5809-7"
       clipPathUnits="userSpaceOnUse"><path
         id="path5807-5"
         d="M 0,800 H 800 V 0 H 0 Z" /></clipPath><clipPath
       id="clipPath5817-1"
       clipPathUnits="userSpaceOnUse"><path
         id="path5815-9"
         d="m 153.323,590.286 h 23.605 v -50.575 h -23.605 z" /></clipPath><clipPath
       id="clipPath5833-6"
       clipPathUnits="userSpaceOnUse"><path
         id="path5831-0"
         d="M 121.168,572.549 H 143.92 V 540.273 H 121.168 Z" /></clipPath><clipPath
       id="clipPath5849-3"
       clipPathUnits="userSpaceOnUse"><path
         id="path5847-0"
         d="m 193.38,563.135 h 20.794 V 539.653 H 193.38 Z" /></clipPath><clipPath
       id="clipPath5893-9"
       clipPathUnits="userSpaceOnUse"><path
         id="path5891-6"
         d="M 0,800 H 800 V 0 H 0 Z" /></clipPath><clipPath
       id="clipPath5901-9"
       clipPathUnits="userSpaceOnUse"><path
         id="path5899-7"
         d="m 373.072,588.936 h 24.537 v -17.952 h -24.537 z" /></clipPath><clipPath
       id="clipPath5917-9"
       clipPathUnits="userSpaceOnUse"><path
         id="path5915-2"
         d="m 419.792,584.793 h 24.536 v -13.809 h -24.536 z" /></clipPath><clipPath
       id="clipPath5933-7"
       clipPathUnits="userSpaceOnUse"><path
         id="path5931-1"
         d="m 324.465,584.718 h 24.536 V 570.91 h -24.536 z" /></clipPath><clipPath
       id="clipPath5989-8"
       clipPathUnits="userSpaceOnUse"><path
         id="path5987-3"
         d="M 0,800 H 800 V 0 H 0 Z" /></clipPath><clipPath
       id="clipPath5997-4"
       clipPathUnits="userSpaceOnUse"><path
         id="path5995-9"
         d="m 594.889,596.435 h 26.103 v -31.28 h -26.103 z" /></clipPath><clipPath
       id="clipPath6013-8"
       clipPathUnits="userSpaceOnUse"><path
         id="path6011-8"
         d="m 633.527,588.169 h 26.389 v -23.102 h -26.389 z" /></clipPath><clipPath
       id="clipPath6029-8"
       clipPathUnits="userSpaceOnUse"><path
         id="path6027-6"
         d="m 560.012,588.74 h 24.024 v -17.561 h -24.024 z" /></clipPath><clipPath
       id="clipPath6045-1"
       clipPathUnits="userSpaceOnUse"><path
         id="path6043-9"
         d="m 607.396,540.273 h 19.67 v -31.58 h -19.67 z" /></clipPath><clipPath
       id="clipPath6073-1"
       clipPathUnits="userSpaceOnUse"><path
         id="path6071-6"
         d="M 0,800 H 800 V 0 H 0 Z" /></clipPath><clipPath
       id="clipPath6081-3"
       clipPathUnits="userSpaceOnUse"><path
         id="path6079-9"
         d="m 176.928,383.582 h 39.541 v -26.151 h -39.541 z" /></clipPath><clipPath
       id="clipPath6097-0"
       clipPathUnits="userSpaceOnUse"><path
         id="path6095-0"
         d="m 137.344,354.194 h 24.393 v -49.696 h -24.393 z" /></clipPath><clipPath
       id="clipPath6113-5"
       clipPathUnits="userSpaceOnUse"><path
         id="path6111-9"
         d="m 215.866,395.396 h 12.456 V 382.94 h -12.456 z" /></clipPath><clipPath
       id="clipPath6129-0"
       clipPathUnits="userSpaceOnUse"><path
         id="path6127-4"
         d="m 137.99,382.94 h 63.032 V 319.908 H 137.99 Z" /></clipPath><clipPath
       id="clipPath6145-7"
       clipPathUnits="userSpaceOnUse"><path
         id="path6143-6"
         d="m 143.375,377.555 h 72.491 v -72.491 h -72.491 z" /></clipPath></defs><g
     transform="translate(140.60687,446.21998)"
     id="layer4"><g
       transform="matrix(2.255986,0,0,2.255986,191.46789,43.184323)"
       id="g11969"><path
         d="M 23.518593,-46.220382 H -140.60674 V -210.34571 H 23.518593 Z"
         style="fill:#0073f2;fill-opacity:1;fill-rule:nonzero;stroke:none;stroke-width:1.33333325"
         id="path6055" /><path
         d="M -6.6267372,-76.365712 H -110.46141 V -180.20038 H -6.6267372 Z"
         style="fill:#68acf9;fill-opacity:1;fill-rule:nonzero;stroke:none;stroke-width:1.33333325"
         id="path6057" /><g
         id="g6059"
         transform="matrix(1.3333333,0,0,-1.3333333,23.518193,-210.34531)"><path
           d="m 0,0 -22.609,-22.609 v -77.876 L 0,-123.094 Z"
           style="fill:#2093ff;fill-opacity:1;fill-rule:nonzero;stroke:none"
           id="path6061" /></g><g
         id="g6063"
         transform="matrix(1.3333333,0,0,-1.3333333,-140.60687,-210.34531)"><path
           d="m 0,0 22.609,-22.609 v -77.876 L 0,-123.094 Z"
           style="fill:#2093ff;fill-opacity:1;fill-rule:nonzero;stroke:none"
           id="path6065" /></g><g
         transform="matrix(1.3333333,0,0,-1.3333333,-294.44807,330.38628)"
         id="g6067"><g
           id="g6069"
           clip-path="url(#clipPath6073-1)"><g
             id="g6075"><g
               id="g6077" /><g
               id="g6089"><g
                 clip-path="url(#clipPath6081-3)"
                 id="g6087"><g
                   transform="translate(176.9279,382.9397)"
                   id="g6085"><path
                     d="m 0,0 c 1.622,0.086 3.245,0.145 4.867,0.201 1.622,0.053 3.245,0.13 4.867,0.154 3.245,0.065 6.49,0.159 9.735,0.199 l 9.734,0.071 c 3.245,0.045 6.49,-0.009 9.735,-0.026 L 39.541,0.596 39.537,0 39.49,-6.377 39.361,-12.755 c -0.053,-2.125 -0.076,-4.251 -0.167,-6.377 -0.08,-2.126 -0.141,-4.251 -0.256,-6.377 -0.115,2.126 -0.177,4.251 -0.257,6.377 -0.091,2.126 -0.113,4.252 -0.167,6.377 L 38.386,-6.377 38.339,0 38.938,-0.599 c -3.245,-0.017 -6.49,-0.071 -9.735,-0.026 l -9.734,0.071 c -3.245,0.04 -6.49,0.134 -9.735,0.198 C 8.112,-0.331 6.489,-0.254 4.867,-0.201 3.245,-0.146 1.622,-0.086 0,0"
                     style="fill:#ffffff;fill-opacity:1;fill-rule:nonzero;stroke:none"
                     id="path6083" /></g></g></g></g><g
             id="g6091"><g
               id="g6093" /><g
               id="g6105"><g
                 clip-path="url(#clipPath6097-0)"
                 id="g6103"><g
                   transform="translate(137.9899,354.1938)"
                   id="g6101"><path
                     d="m 0,0 c 0.097,-2.047 0.157,-4.094 0.221,-6.141 0.072,-2.047 0.129,-4.094 0.159,-6.142 0.07,-4.094 0.189,-8.188 0.19,-12.282 L 0.645,-36.847 0.566,-49.13 0,-48.564 c 3.958,0 7.916,-0.131 11.874,-0.192 1.979,-0.029 3.957,-0.091 5.937,-0.158 1.978,-0.062 3.957,-0.122 5.936,-0.216 -1.979,-0.094 -3.958,-0.154 -5.936,-0.216 -1.98,-0.067 -3.958,-0.128 -5.937,-0.158 C 7.916,-49.565 3.958,-49.696 0,-49.696 h -0.562 l -0.004,0.566 -0.08,12.283 0.076,12.282 c 0.002,4.094 0.12,8.188 0.19,12.282 0.031,2.048 0.087,4.095 0.159,6.142 C -0.157,-4.094 -0.096,-2.047 0,0"
                     style="fill:#ffffff;fill-opacity:1;fill-rule:nonzero;stroke:none"
                     id="path6099" /></g></g></g></g><g
             id="g6107"><g
               id="g6109" /><g
               id="g6121"><g
                 clip-path="url(#clipPath6113-5)"
                 id="g6119"><g
                   transform="translate(215.8657,382.9397)"
                   id="g6117"><path
                     d="m 0,0 c 0,0 0.626,0.932 1.685,2.208 1.051,1.284 2.532,2.917 4.086,4.478 1.56,1.554 3.192,3.035 4.476,4.087 1.277,1.059 2.209,1.683 2.209,1.683 0,0 -0.624,-0.932 -1.683,-2.209 C 9.722,8.963 8.24,7.331 6.686,5.771 5.125,4.217 3.492,2.737 2.208,1.685 0.932,0.625 0,0 0,0"
                     style="fill:#ffffff;fill-opacity:1;fill-rule:nonzero;stroke:none"
                     id="path6115" /></g></g></g></g><g
             id="g6123"><g
               id="g6125" /><g
               id="g6137"><g
                 clip-path="url(#clipPath6129-0)"
                 id="g6135"
                 style="opacity:0.5"><g
                   transform="translate(137.9899,319.908)"
                   id="g6133"><path
                     d="M 0,0 63.032,63.032 H 53.878 L 0,9.154 Z"
                     style="fill:#ffffff;fill-opacity:1;fill-rule:nonzero;stroke:none"
                     id="path6131" /></g></g></g></g><g
             id="g6139"><g
               id="g6141" /><g
               id="g6153"><g
                 clip-path="url(#clipPath6145-7)"
                 id="g6151"
                 style="opacity:0.5"><g
                   transform="translate(161.6847,305.064)"
                   id="g6149"><path
                     d="m 0,0 54.181,54.181 v 18.31 L -18.31,0 Z"
                     style="fill:#ffffff;fill-opacity:1;fill-rule:nonzero;stroke:none"
                     id="path6147" /></g></g></g></g></g></g></g></g></svg>