<?xml version="1.0" encoding="UTF-8" standalone="no"?>
<svg
   xmlns:dc="http://purl.org/dc/elements/1.1/"
   xmlns:cc="http://creativecommons.org/ns#"
   xmlns:rdf="http://www.w3.org/1999/02/22-rdf-syntax-ns#"
   xmlns:svg="http://www.w3.org/2000/svg"
   xmlns="http://www.w3.org/2000/svg"
   viewBox="0 0 399.99999 400"
   height="400"
   width="400"
   xml:space="preserve"
   id="svg5775"
   version="1.1"><metadata
     id="metadata5781"><rdf:RDF><cc:Work
         rdf:about=""><dc:format>image/svg+xml</dc:format><dc:type
           rdf:resource="http://purl.org/dc/dcmitype/StillImage" /><dc:title></dc:title></cc:Work></rdf:RDF></metadata><defs
     id="defs5779"><clipPath
       id="clipPath5809"
       clipPathUnits="userSpaceOnUse"><path
         id="path5807"
         d="M 0,800 H 800 V 0 H 0 Z" /></clipPath><clipPath
       id="clipPath5817"
       clipPathUnits="userSpaceOnUse"><path
         id="path5815"
         d="m 153.323,590.286 h 23.605 v -50.575 h -23.605 z" /></clipPath><clipPath
       id="clipPath5833"
       clipPathUnits="userSpaceOnUse"><path
         id="path5831"
         d="M 121.168,572.549 H 143.92 V 540.273 H 121.168 Z" /></clipPath><clipPath
       id="clipPath5849"
       clipPathUnits="userSpaceOnUse"><path
         id="path5847"
         d="m 193.38,563.135 h 20.794 V 539.653 H 193.38 Z" /></clipPath><clipPath
       id="clipPath5893"
       clipPathUnits="userSpaceOnUse"><path
         id="path5891"
         d="M 0,800 H 800 V 0 H 0 Z" /></clipPath><clipPath
       id="clipPath5901"
       clipPathUnits="userSpaceOnUse"><path
         id="path5899"
         d="m 373.072,588.936 h 24.537 v -17.952 h -24.537 z" /></clipPath><clipPath
       id="clipPath5917"
       clipPathUnits="userSpaceOnUse"><path
         id="path5915"
         d="m 419.792,584.793 h 24.536 v -13.809 h -24.536 z" /></clipPath><clipPath
       id="clipPath5933"
       clipPathUnits="userSpaceOnUse"><path
         id="path5931"
         d="m 324.465,584.718 h 24.536 V 570.91 h -24.536 z" /></clipPath><clipPath
       id="clipPath5989"
       clipPathUnits="userSpaceOnUse"><path
         id="path5987"
         d="M 0,800 H 800 V 0 H 0 Z" /></clipPath><clipPath
       id="clipPath5997"
       clipPathUnits="userSpaceOnUse"><path
         id="path5995"
         d="m 594.889,596.435 h 26.103 v -31.28 h -26.103 z" /></clipPath><clipPath
       id="clipPath6013"
       clipPathUnits="userSpaceOnUse"><path
         id="path6011"
         d="m 633.527,588.169 h 26.389 v -23.102 h -26.389 z" /></clipPath><clipPath
       id="clipPath6029"
       clipPathUnits="userSpaceOnUse"><path
         id="path6027"
         d="m 560.012,588.74 h 24.024 v -17.561 h -24.024 z" /></clipPath><clipPath
       id="clipPath6045"
       clipPathUnits="userSpaceOnUse"><path
         id="path6043"
         d="m 607.396,540.273 h 19.67 v -31.58 h -19.67 z" /></clipPath><clipPath
       id="clipPath6073"
       clipPathUnits="userSpaceOnUse"><path
         id="path6071"
         d="M 0,800 H 800 V 0 H 0 Z" /></clipPath><clipPath
       id="clipPath6081"
       clipPathUnits="userSpaceOnUse"><path
         id="path6079"
         d="m 176.928,383.582 h 39.541 v -26.151 h -39.541 z" /></clipPath><clipPath
       id="clipPath6097"
       clipPathUnits="userSpaceOnUse"><path
         id="path6095"
         d="m 137.344,354.194 h 24.393 v -49.696 h -24.393 z" /></clipPath><clipPath
       id="clipPath6113"
       clipPathUnits="userSpaceOnUse"><path
         id="path6111"
         d="m 215.866,395.396 h 12.456 V 382.94 h -12.456 z" /></clipPath><clipPath
       id="clipPath6129"
       clipPathUnits="userSpaceOnUse"><path
         id="path6127"
         d="m 137.99,382.94 h 63.032 V 319.908 H 137.99 Z" /></clipPath><clipPath
       id="clipPath6145"
       clipPathUnits="userSpaceOnUse"><path
         id="path6143"
         d="m 143.375,377.555 h 72.491 v -72.491 h -72.491 z" /></clipPath><clipPath
       id="clipPath6185"
       clipPathUnits="userSpaceOnUse"><path
         id="path6183"
         d="M 0,800 H 800 V 0 H 0 Z" /></clipPath><clipPath
       id="clipPath6193"
       clipPathUnits="userSpaceOnUse"><path
         id="path6191"
         d="m 352.364,390.94 h 90.365 v -96.832 h -90.365 z" /></clipPath><clipPath
       id="clipPath6229"
       clipPathUnits="userSpaceOnUse"><path
         id="path6227"
         d="m 358.19,382.243 h 61.271 V 320.972 H 358.19 Z" /></clipPath><clipPath
       id="clipPath6245"
       clipPathUnits="userSpaceOnUse"><path
         id="path6243"
         d="m 363.421,377.012 h 71.252 v -71.251 h -71.252 z" /></clipPath><clipPath
       id="clipPath6285"
       clipPathUnits="userSpaceOnUse"><path
         id="path6283"
         d="M 0,800 H 800 V 0 H 0 Z" /></clipPath><clipPath
       id="clipPath6293"
       clipPathUnits="userSpaceOnUse"><path
         id="path6291"
         d="m 369.749,195.385 h 47.688 v -52.266 h -47.688 z" /></clipPath><clipPath
       id="clipPath6309"
       clipPathUnits="userSpaceOnUse"><path
         id="path6307"
         d="m 369.749,176.256 h 53.365 v -65.069 h -53.365 z" /></clipPath><clipPath
       id="clipPath6325"
       clipPathUnits="userSpaceOnUse"><path
         id="path6323"
         d="m 396.432,198.481 h 27.322 v -43 h -27.322 z" /></clipPath><clipPath
       id="clipPath6341"
       clipPathUnits="userSpaceOnUse"><path
         id="path6339"
         d="m 423.115,192.512 h 9.802 v -7.438 h -9.802 z" /></clipPath><clipPath
       id="clipPath6357"
       clipPathUnits="userSpaceOnUse"><path
         id="path6355"
         d="m 410.172,206.702 h 7.265 v -8.685 h -7.265 z" /></clipPath><clipPath
       id="clipPath6373"
       clipPathUnits="userSpaceOnUse"><path
         id="path6371"
         d="m 369.105,152.273 h 24.488 v -47.866 h -24.488 z" /></clipPath><clipPath
       id="clipPath6389"
       clipPathUnits="userSpaceOnUse"><path
         id="path6387"
         d="m 374.839,104.796 h 7.852 v -9.3873 h -7.852 z" /></clipPath><clipPath
       id="clipPath6405"
       clipPathUnits="userSpaceOnUse"><path
         id="path6403"
         d="m 361.115,117.795 h 8.634 v -6.607 h -8.634 z" /></clipPath><clipPath
       id="clipPath6441"
       clipPathUnits="userSpaceOnUse"><path
         id="path6439"
         d="M 0,800 H 800 V 0 H 0 Z" /></clipPath><clipPath
       id="clipPath6449"
       clipPathUnits="userSpaceOnUse"><path
         id="path6447"
         d="M 176.559,211.308 H 218.71 V 166.312 H 176.559 Z" /></clipPath><clipPath
       id="clipPath6465"
       clipPathUnits="userSpaceOnUse"><path
         id="path6463"
         d="M 135.145,136.388 H 177.32 V 89.8161 h -42.175 z" /></clipPath><clipPath
       id="clipPath6481"
       clipPathUnits="userSpaceOnUse"><path
         id="path6479"
         d="m 208.192,166.671 h 1.076 v -15.265 h -1.076 z" /></clipPath><clipPath
       id="clipPath6497"
       clipPathUnits="userSpaceOnUse"><path
         id="path6495"
         d="m 144.587,151.406 h 1.076 v -15.37 h -1.076 z" /></clipPath><clipPath
       id="clipPath6513"
       clipPathUnits="userSpaceOnUse"><path
         id="path6511"
         d="m 145.125,184.317 h 48.489 v -50.012 h -48.489 z" /></clipPath><clipPath
       id="clipPath6529"
       clipPathUnits="userSpaceOnUse"><path
         id="path6527"
         d="M 155.608,172.788 H 208.73 V 119.554 H 155.608 Z" /></clipPath><clipPath
       id="clipPath6569"
       clipPathUnits="userSpaceOnUse"><path
         id="path6567"
         d="M 0,800 H 800 V 0 H 0 Z" /></clipPath><clipPath
       id="clipPath6577"
       clipPathUnits="userSpaceOnUse"><path
         id="path6575"
         d="M 578.957,385.924 H 643.5 v -64.446 h -64.543 z" /></clipPath><clipPath
       id="clipPath6593"
       clipPathUnits="userSpaceOnUse"><path
         id="path6591"
         d="M 593.651,371.233 H 662.77 V 302.209 H 593.651 Z" /></clipPath><clipPath
       id="clipPath6609"
       clipPathUnits="userSpaceOnUse"><path
         id="path6607"
         d="m 620.94,386.88 h 42.882 V 344.002 H 620.94 Z" /></clipPath><clipPath
       id="clipPath6625"
       clipPathUnits="userSpaceOnUse"><path
         id="path6623"
         d="m 578.073,343.983 h 42.867 v -42.85 h -42.867 z" /></clipPath><clipPath
       id="clipPath6641"
       clipPathUnits="userSpaceOnUse"><path
         id="path6639"
         d="m 663.307,366.547 h 12.062 v -4.996 h -12.062 z" /></clipPath><clipPath
       id="clipPath6657"
       clipPathUnits="userSpaceOnUse"><path
         id="path6655"
         d="m 638.489,396.275 h 4.103 v -9.906 h -4.103 z" /></clipPath><clipPath
       id="clipPath6673"
       clipPathUnits="userSpaceOnUse"><path
         id="path6671"
         d="m 598.586,301.635 h 4.804 v -11.598 h -4.804 z" /></clipPath><clipPath
       id="clipPath6689"
       clipPathUnits="userSpaceOnUse"><path
         id="path6687"
         d="m 566.561,326.453 h 12.012 v -4.975 h -12.012 z" /></clipPath><clipPath
       id="clipPath6737"
       clipPathUnits="userSpaceOnUse"><path
         id="path6735"
         d="M 0,800 H 800 V 0 H 0 Z" /></clipPath><clipPath
       id="clipPath6745"
       clipPathUnits="userSpaceOnUse"><path
         id="path6743"
         d="m 577.274,196.102 h 67.932 v -64.257 h -67.932 z" /></clipPath><clipPath
       id="clipPath6761"
       clipPathUnits="userSpaceOnUse"><path
         id="path6759"
         d="m 591.339,178.514 h 72.257 v -71.803 h -72.257 z" /></clipPath><clipPath
       id="clipPath6777"
       clipPathUnits="userSpaceOnUse"><path
         id="path6775"
         d="m 620.94,196.75 h 38.846 V 173.736 H 620.94 Z" /></clipPath><clipPath
       id="clipPath6793"
       clipPathUnits="userSpaceOnUse"><path
         id="path6791"
         d="m 636.795,207.057 h 20.954 v -13.344 h -20.954 z" /></clipPath><clipPath
       id="clipPath6809"
       clipPathUnits="userSpaceOnUse"><path
         id="path6807"
         d="M 580.623,131.845 H 620.94 V 106.069 H 580.623 Z" /></clipPath><clipPath
       id="clipPath6825"
       clipPathUnits="userSpaceOnUse"><path
         id="path6823"
         d="m 583.62,109.21 h 22.994 V 94.071 H 583.62 Z" /></clipPath><clipPath
       id="clipPath6841"
       clipPathUnits="userSpaceOnUse"><path
         id="path6839"
         d="M 584.981,196.682 H 604.76 V 178.514 H 584.981 Z" /></clipPath><clipPath
       id="clipPath6857"
       clipPathUnits="userSpaceOnUse"><path
         id="path6855"
         d="m 635.186,123.168 h 21.06 v -17.079 h -21.06 z" /></clipPath><clipPath
       id="clipPath6877"
       clipPathUnits="userSpaceOnUse"><path
         id="path6875"
         d="M 0,800 H 800 V 0 H 0 Z" /></clipPath><clipPath
       id="clipPath5809-7"
       clipPathUnits="userSpaceOnUse"><path
         id="path5807-5"
         d="M 0,800 H 800 V 0 H 0 Z" /></clipPath><clipPath
       id="clipPath5817-1"
       clipPathUnits="userSpaceOnUse"><path
         id="path5815-9"
         d="m 153.323,590.286 h 23.605 v -50.575 h -23.605 z" /></clipPath><clipPath
       id="clipPath5833-6"
       clipPathUnits="userSpaceOnUse"><path
         id="path5831-0"
         d="M 121.168,572.549 H 143.92 V 540.273 H 121.168 Z" /></clipPath><clipPath
       id="clipPath5849-3"
       clipPathUnits="userSpaceOnUse"><path
         id="path5847-0"
         d="m 193.38,563.135 h 20.794 V 539.653 H 193.38 Z" /></clipPath><clipPath
       id="clipPath5893-9"
       clipPathUnits="userSpaceOnUse"><path
         id="path5891-6"
         d="M 0,800 H 800 V 0 H 0 Z" /></clipPath><clipPath
       id="clipPath5901-9"
       clipPathUnits="userSpaceOnUse"><path
         id="path5899-7"
         d="m 373.072,588.936 h 24.537 v -17.952 h -24.537 z" /></clipPath><clipPath
       id="clipPath5917-9"
       clipPathUnits="userSpaceOnUse"><path
         id="path5915-2"
         d="m 419.792,584.793 h 24.536 v -13.809 h -24.536 z" /></clipPath><clipPath
       id="clipPath5933-7"
       clipPathUnits="userSpaceOnUse"><path
         id="path5931-1"
         d="m 324.465,584.718 h 24.536 V 570.91 h -24.536 z" /></clipPath><clipPath
       id="clipPath5989-8"
       clipPathUnits="userSpaceOnUse"><path
         id="path5987-3"
         d="M 0,800 H 800 V 0 H 0 Z" /></clipPath><clipPath
       id="clipPath5997-4"
       clipPathUnits="userSpaceOnUse"><path
         id="path5995-9"
         d="m 594.889,596.435 h 26.103 v -31.28 h -26.103 z" /></clipPath><clipPath
       id="clipPath6013-8"
       clipPathUnits="userSpaceOnUse"><path
         id="path6011-8"
         d="m 633.527,588.169 h 26.389 v -23.102 h -26.389 z" /></clipPath><clipPath
       id="clipPath6029-8"
       clipPathUnits="userSpaceOnUse"><path
         id="path6027-6"
         d="m 560.012,588.74 h 24.024 v -17.561 h -24.024 z" /></clipPath><clipPath
       id="clipPath6045-1"
       clipPathUnits="userSpaceOnUse"><path
         id="path6043-9"
         d="m 607.396,540.273 h 19.67 v -31.58 h -19.67 z" /></clipPath><clipPath
       id="clipPath6073-1"
       clipPathUnits="userSpaceOnUse"><path
         id="path6071-6"
         d="M 0,800 H 800 V 0 H 0 Z" /></clipPath><clipPath
       id="clipPath6081-3"
       clipPathUnits="userSpaceOnUse"><path
         id="path6079-9"
         d="m 176.928,383.582 h 39.541 v -26.151 h -39.541 z" /></clipPath><clipPath
       id="clipPath6097-0"
       clipPathUnits="userSpaceOnUse"><path
         id="path6095-0"
         d="m 137.344,354.194 h 24.393 v -49.696 h -24.393 z" /></clipPath><clipPath
       id="clipPath6113-5"
       clipPathUnits="userSpaceOnUse"><path
         id="path6111-9"
         d="m 215.866,395.396 h 12.456 V 382.94 h -12.456 z" /></clipPath><clipPath
       id="clipPath6129-0"
       clipPathUnits="userSpaceOnUse"><path
         id="path6127-4"
         d="m 137.99,382.94 h 63.032 V 319.908 H 137.99 Z" /></clipPath><clipPath
       id="clipPath6145-7"
       clipPathUnits="userSpaceOnUse"><path
         id="path6143-6"
         d="m 143.375,377.555 h 72.491 v -72.491 h -72.491 z" /></clipPath><clipPath
       id="clipPath6185-4"
       clipPathUnits="userSpaceOnUse"><path
         id="path6183-4"
         d="M 0,800 H 800 V 0 H 0 Z" /></clipPath><clipPath
       id="clipPath6193-8"
       clipPathUnits="userSpaceOnUse"><path
         id="path6191-6"
         d="m 352.364,390.94 h 90.365 v -96.832 h -90.365 z" /></clipPath><clipPath
       id="clipPath6229-4"
       clipPathUnits="userSpaceOnUse"><path
         id="path6227-7"
         d="m 358.19,382.243 h 61.271 V 320.972 H 358.19 Z" /></clipPath><clipPath
       id="clipPath6245-0"
       clipPathUnits="userSpaceOnUse"><path
         id="path6243-4"
         d="m 363.421,377.012 h 71.252 v -71.251 h -71.252 z" /></clipPath><clipPath
       id="clipPath6285-5"
       clipPathUnits="userSpaceOnUse"><path
         id="path6283-8"
         d="M 0,800 H 800 V 0 H 0 Z" /></clipPath><clipPath
       id="clipPath6293-3"
       clipPathUnits="userSpaceOnUse"><path
         id="path6291-0"
         d="m 369.749,195.385 h 47.688 v -52.266 h -47.688 z" /></clipPath><clipPath
       id="clipPath6309-2"
       clipPathUnits="userSpaceOnUse"><path
         id="path6307-4"
         d="m 369.749,176.256 h 53.365 v -65.069 h -53.365 z" /></clipPath><clipPath
       id="clipPath6325-3"
       clipPathUnits="userSpaceOnUse"><path
         id="path6323-1"
         d="m 396.432,198.481 h 27.322 v -43 h -27.322 z" /></clipPath><clipPath
       id="clipPath6341-9"
       clipPathUnits="userSpaceOnUse"><path
         id="path6339-4"
         d="m 423.115,192.512 h 9.802 v -7.438 h -9.802 z" /></clipPath><clipPath
       id="clipPath6357-1"
       clipPathUnits="userSpaceOnUse"><path
         id="path6355-4"
         d="m 410.172,206.702 h 7.265 v -8.685 h -7.265 z" /></clipPath><clipPath
       id="clipPath6373-4"
       clipPathUnits="userSpaceOnUse"><path
         id="path6371-9"
         d="m 369.105,152.273 h 24.488 v -47.866 h -24.488 z" /></clipPath><clipPath
       id="clipPath6389-8"
       clipPathUnits="userSpaceOnUse"><path
         id="path6387-9"
         d="m 374.839,104.796 h 7.852 v -9.3873 h -7.852 z" /></clipPath><clipPath
       id="clipPath6405-5"
       clipPathUnits="userSpaceOnUse"><path
         id="path6403-0"
         d="m 361.115,117.795 h 8.634 v -6.607 h -8.634 z" /></clipPath><clipPath
       id="clipPath6441-9"
       clipPathUnits="userSpaceOnUse"><path
         id="path6439-6"
         d="M 0,800 H 800 V 0 H 0 Z" /></clipPath><clipPath
       id="clipPath6449-3"
       clipPathUnits="userSpaceOnUse"><path
         id="path6447-5"
         d="M 176.559,211.308 H 218.71 V 166.312 H 176.559 Z" /></clipPath><clipPath
       id="clipPath6465-6"
       clipPathUnits="userSpaceOnUse"><path
         id="path6463-3"
         d="M 135.145,136.388 H 177.32 V 89.8161 h -42.175 z" /></clipPath><clipPath
       id="clipPath6481-4"
       clipPathUnits="userSpaceOnUse"><path
         id="path6479-7"
         d="m 208.192,166.671 h 1.076 v -15.265 h -1.076 z" /></clipPath><clipPath
       id="clipPath6497-1"
       clipPathUnits="userSpaceOnUse"><path
         id="path6495-3"
         d="m 144.587,151.406 h 1.076 v -15.37 h -1.076 z" /></clipPath><clipPath
       id="clipPath6513-9"
       clipPathUnits="userSpaceOnUse"><path
         id="path6511-8"
         d="m 145.125,184.317 h 48.489 v -50.012 h -48.489 z" /></clipPath><clipPath
       id="clipPath6529-3"
       clipPathUnits="userSpaceOnUse"><path
         id="path6527-4"
         d="M 155.608,172.788 H 208.73 V 119.554 H 155.608 Z" /></clipPath><clipPath
       id="clipPath6737-0"
       clipPathUnits="userSpaceOnUse"><path
         id="path6735-7"
         d="M 0,800 H 800 V 0 H 0 Z" /></clipPath><clipPath
       id="clipPath6745-3"
       clipPathUnits="userSpaceOnUse"><path
         id="path6743-2"
         d="m 577.274,196.102 h 67.932 v -64.257 h -67.932 z" /></clipPath><clipPath
       id="clipPath6761-2"
       clipPathUnits="userSpaceOnUse"><path
         id="path6759-4"
         d="m 591.339,178.514 h 72.257 v -71.803 h -72.257 z" /></clipPath><clipPath
       id="clipPath6777-8"
       clipPathUnits="userSpaceOnUse"><path
         id="path6775-2"
         d="m 620.94,196.75 h 38.846 V 173.736 H 620.94 Z" /></clipPath><clipPath
       id="clipPath6793-0"
       clipPathUnits="userSpaceOnUse"><path
         id="path6791-9"
         d="m 636.795,207.057 h 20.954 v -13.344 h -20.954 z" /></clipPath><clipPath
       id="clipPath6809-4"
       clipPathUnits="userSpaceOnUse"><path
         id="path6807-3"
         d="M 580.623,131.845 H 620.94 V 106.069 H 580.623 Z" /></clipPath><clipPath
       id="clipPath6825-9"
       clipPathUnits="userSpaceOnUse"><path
         id="path6823-3"
         d="m 583.62,109.21 h 22.994 V 94.071 H 583.62 Z" /></clipPath><clipPath
       id="clipPath6841-4"
       clipPathUnits="userSpaceOnUse"><path
         id="path6839-4"
         d="M 584.981,196.682 H 604.76 V 178.514 H 584.981 Z" /></clipPath><clipPath
       id="clipPath6857-9"
       clipPathUnits="userSpaceOnUse"><path
         id="path6855-9"
         d="m 635.186,123.168 h 21.06 v -17.079 h -21.06 z" /></clipPath></defs><g
     transform="translate(96.679859,419.03611)"
     id="layer4"><g
       transform="matrix(1.9549011,0,0,1.9549011,127.28917,8.7386247)"
       id="g15162"><g
         id="g6699"
         transform="matrix(1.3333333,0,0,-1.3333333,72.157871,-67.77531)"><path
           d="m 0,0 v 73.109 l -63.314,36.554 -63.314,-36.554 V 0 l 63.314,-36.554 z"
           style="fill:#577abd;fill-opacity:1;fill-rule:nonzero;stroke:none"
           id="path6701" /></g><g
         id="g6703"
         transform="matrix(1.3333333,0,0,-1.3333333,-46.666799,-176.10877)"><path
           d="M 0,0 H 51.609 L 77.414,-44.696 51.609,-89.391 h -51.61 l -25.805,44.695 z"
           style="fill:#6f8bc3;fill-opacity:1;fill-rule:nonzero;stroke:none"
           id="path6705" /></g><g
         id="g6707"
         transform="matrix(1.3333333,0,0,-1.3333333,-12.261059,-213.99331)"><path
           d="m 0,0 25.805,-28.413 37.509,-8.142 z"
           style="fill:#476081;fill-opacity:1;fill-rule:nonzero;stroke:none"
           id="path6709" /></g><g
         id="g6711"
         transform="matrix(1.3333333,0,0,-1.3333333,72.157871,-165.25371)"><path
           d="M 0,0 -11.704,-36.555 0,-73.109 Z"
           style="fill:#476081;fill-opacity:1;fill-rule:nonzero;stroke:none"
           id="path6713" /></g><g
         id="g6715"
         transform="matrix(1.3333333,0,0,-1.3333333,72.157871,-67.77531)"><path
           d="M 0,0 -37.509,-8.141 -63.314,-36.554 Z"
           style="fill:#476081;fill-opacity:1;fill-rule:nonzero;stroke:none"
           id="path6717" /></g><g
         id="g6719"
         transform="matrix(1.3333333,0,0,-1.3333333,-12.261059,-213.99331)"><path
           d="m 0,0 -25.804,-28.413 -37.51,-8.142 z"
           style="fill:#476081;fill-opacity:1;fill-rule:nonzero;stroke:none"
           id="path6721" /></g><g
         id="g6723"
         transform="matrix(1.3333333,0,0,-1.3333333,-12.261059,-19.03611)"><path
           d="m 0,0 -25.805,28.413 -37.509,8.141 z"
           style="fill:#476081;fill-opacity:1;fill-rule:nonzero;stroke:none"
           id="path6725" /></g><g
         id="g6727"
         transform="matrix(1.3333333,0,0,-1.3333333,-96.679859,-67.77531)"><path
           d="M 0,0 11.704,36.554 0,73.109 Z"
           style="fill:#476081;fill-opacity:1;fill-rule:nonzero;stroke:none"
           id="path6729" /></g><g
         transform="matrix(1.3333333,0,0,-1.3333333,-840.18051,85.36042)"
         id="g6731"><g
           id="g6733"
           clip-path="url(#clipPath6737-0)"><g
             id="g6739"><g
               id="g6741" /><g
               id="g6753"><g
                 clip-path="url(#clipPath6745-3)"
                 id="g6751"><g
                   transform="translate(580.623,131.8451)"
                   id="g6749"><path
                     d="M 0,0 64.583,64.257 H 55.405 L -3.349,5.801 Z"
                     style="fill:#ffffff;fill-opacity:1;fill-rule:nonzero;stroke:none"
                     id="path6747" /></g></g></g></g><g
             id="g6755"><g
               id="g6757" /><g
               id="g6769"><g
                 clip-path="url(#clipPath6761-2)"
                 id="g6767"><g
                   transform="translate(656.8984,178.5142)"
                   id="g6765"><path
                     d="m 0,0 -65.56,-65.229 3.796,-6.574 h 7.952 l 60.51,60.202 z"
                     style="fill:#ffffff;fill-opacity:1;fill-rule:nonzero;stroke:none"
                     id="path6763" /></g></g></g></g><g
             id="g6771"><g
               id="g6773" /><g
               id="g6785"><g
                 clip-path="url(#clipPath6777-8)"
                 id="g6783"><g
                   transform="translate(620.9396,196.1017)"
                   id="g6781"><path
                     d="m 0,0 c 4.301,0.266 8.602,0.392 12.903,0.495 4.3,0.119 8.601,0.136 12.902,0.152 l 0.372,0.001 0.187,-0.322 c 2.161,-3.735 4.32,-7.471 6.393,-11.258 l 3.104,-5.682 c 0.994,-1.918 2.026,-3.814 2.986,-5.751 -1.214,1.789 -2.355,3.621 -3.535,5.431 l -3.417,5.5 c -2.275,3.669 -4.463,7.388 -6.649,11.108 l 0.559,-0.321 C 21.504,-0.63 17.203,-0.613 12.903,-0.495 8.602,-0.392 4.301,-0.266 0,0"
                     style="fill:#ffffff;fill-opacity:1;fill-rule:nonzero;stroke:none"
                     id="path6779" /></g></g></g></g><g
             id="g6787"><g
               id="g6789" /><g
               id="g6801"><g
                 clip-path="url(#clipPath6793-0)"
                 id="g6799"><g
                   transform="translate(657.7494,193.7133)"
                   id="g6797"><path
                     d="m 0,0 c -1.881,0.184 -3.746,0.44 -5.601,0.742 -1.853,0.308 -3.701,0.645 -5.538,1.03 l -0.189,0.04 -0.144,0.153 c -1.689,1.798 -3.309,3.658 -4.912,5.534 -0.788,0.95 -1.577,1.9 -2.34,2.872 -0.753,0.983 -1.518,1.954 -2.23,2.973 0.946,-0.807 1.839,-1.662 2.744,-2.505 0.895,-0.854 1.764,-1.73 2.634,-2.606 1.714,-1.775 3.411,-3.567 5.038,-5.42 l -0.333,0.192 C -9.04,2.594 -7.219,2.134 -5.404,1.646 -3.591,1.152 -1.788,0.612 0,0"
                     style="fill:#ffffff;fill-opacity:1;fill-rule:nonzero;stroke:none"
                     id="path6795" /></g></g></g></g><g
             id="g6803"><g
               id="g6805" /><g
               id="g6817"><g
                 clip-path="url(#clipPath6809-4)"
                 id="g6815"><g
                   transform="translate(580.623,131.8451)"
                   id="g6813"><path
                     d="m 0,0 c 1.341,-2.018 2.611,-4.078 3.913,-6.119 l 3.79,-6.19 c 2.508,-4.138 4.952,-8.311 7.363,-12.505 l -0.555,0.32 c 4.301,-0.018 8.602,-0.039 12.903,-0.163 2.151,-0.06 4.301,-0.103 6.452,-0.177 2.15,-0.1 4.301,-0.162 6.451,-0.3 -2.15,-0.138 -4.301,-0.201 -6.451,-0.301 -2.151,-0.074 -4.301,-0.116 -6.452,-0.176 -4.301,-0.124 -8.602,-0.146 -12.903,-0.164 l -0.367,-0.001 -0.188,0.321 c -2.426,4.185 -4.818,8.389 -7.148,12.63 L 3.343,-6.448 C 2.226,-4.3 1.077,-2.171 0,0"
                     style="fill:#ffffff;fill-opacity:1;fill-rule:nonzero;stroke:none"
                     id="path6811" /></g></g></g></g><g
             id="g6819"><g
               id="g6821" /><g
               id="g6833"><g
                 clip-path="url(#clipPath6825-9)"
                 id="g6831"><g
                   transform="translate(583.6203,109.2098)"
                   id="g6829"><path
                     d="m 0,0 c 1.964,-0.213 3.911,-0.495 5.852,-0.812 1.939,-0.328 3.87,-0.685 5.794,-1.076 l 0.189,-0.039 0.142,-0.152 c 1.94,-2.083 3.839,-4.202 5.688,-6.367 1.847,-2.166 3.636,-4.386 5.329,-6.693 -2.134,1.907 -4.172,3.9 -6.151,5.947 -1.978,2.048 -3.904,4.142 -5.792,6.273 l 0.33,-0.191 C 9.468,-2.668 7.562,-2.192 5.662,-1.687 3.765,-1.171 1.875,-0.62 0,0"
                     style="fill:#ffffff;fill-opacity:1;fill-rule:nonzero;stroke:none"
                     id="path6827" /></g></g></g></g><g
             id="g6835"><g
               id="g6837" /><g
               id="g6849"><g
                 clip-path="url(#clipPath6841-4)"
                 id="g6847"><g
                   transform="translate(604.7597,196.1018)"
                   id="g6845"><path
                     d="M 0,0 C -1.604,-0.166 -3.208,-0.283 -4.812,-0.378 -6.416,-0.471 -8.02,-0.534 -9.625,-0.572 l 0.496,0.286 c -1.61,-2.979 -3.306,-5.908 -5.065,-8.801 -0.876,-1.448 -1.779,-2.881 -2.705,-4.301 -0.923,-1.421 -1.886,-2.82 -2.88,-4.2 0.698,1.552 1.428,3.084 2.198,4.594 0.766,1.512 1.555,3.01 2.371,4.494 1.626,2.969 3.316,5.902 5.09,8.786 L -9.939,0.58 -9.625,0.572 C -8.02,0.534 -6.416,0.471 -4.812,0.378 -3.208,0.283 -1.604,0.166 0,0"
                     style="fill:#ffffff;fill-opacity:1;fill-rule:nonzero;stroke:none"
                     id="path6843" /></g></g></g></g><g
             id="g6851"><g
               id="g6853" /><g
               id="g6865"><g
                 clip-path="url(#clipPath6857-9)"
                 id="g6863"><g
                   transform="translate(656.246,123.1675)"
                   id="g6861"><path
                     d="m 0,0 c -0.65,-1.453 -1.349,-2.879 -2.056,-4.299 -0.712,-1.417 -1.452,-2.818 -2.206,-4.212 -1.498,-2.792 -3.092,-5.528 -4.706,-8.253 l -0.187,-0.315 -0.346,0.007 c -1.927,0.038 -3.854,0.093 -5.78,0.188 -0.963,0.055 -1.926,0.099 -2.889,0.181 -0.963,0.076 -1.926,0.137 -2.89,0.246 0.964,0.11 1.927,0.171 2.89,0.247 0.963,0.082 1.926,0.126 2.889,0.18 1.926,0.095 3.853,0.151 5.78,0.189 l -0.533,-0.308 c 1.553,2.76 3.125,5.51 4.794,8.203 0.83,1.349 1.673,2.691 2.546,4.016 0.875,1.323 1.76,2.641 2.694,3.93"
                     style="fill:#ffffff;fill-opacity:1;fill-rule:nonzero;stroke:none"
                     id="path6859" /></g></g></g></g></g></g></g></g></svg>