<?xml version="1.0" encoding="UTF-8" standalone="no"?>
<svg
   xmlns:dc="http://purl.org/dc/elements/1.1/"
   xmlns:cc="http://creativecommons.org/ns#"
   xmlns:rdf="http://www.w3.org/1999/02/22-rdf-syntax-ns#"
   xmlns:svg="http://www.w3.org/2000/svg"
   xmlns="http://www.w3.org/2000/svg"
   viewBox="0 0 400.00001 400"
   height="400"
   width="400"
   xml:space="preserve"
   id="svg5775"
   version="1.1"><metadata
     id="metadata5781"><rdf:RDF><cc:Work
         rdf:about=""><dc:format>image/svg+xml</dc:format><dc:type
           rdf:resource="http://purl.org/dc/dcmitype/StillImage" /><dc:title></dc:title></cc:Work></rdf:RDF></metadata><defs
     id="defs5779"><clipPath
       id="clipPath5809"
       clipPathUnits="userSpaceOnUse"><path
         id="path5807"
         d="M 0,800 H 800 V 0 H 0 Z" /></clipPath><clipPath
       id="clipPath5817"
       clipPathUnits="userSpaceOnUse"><path
         id="path5815"
         d="m 153.323,590.286 h 23.605 v -50.575 h -23.605 z" /></clipPath><clipPath
       id="clipPath5833"
       clipPathUnits="userSpaceOnUse"><path
         id="path5831"
         d="M 121.168,572.549 H 143.92 V 540.273 H 121.168 Z" /></clipPath><clipPath
       id="clipPath5849"
       clipPathUnits="userSpaceOnUse"><path
         id="path5847"
         d="m 193.38,563.135 h 20.794 V 539.653 H 193.38 Z" /></clipPath><clipPath
       id="clipPath5893"
       clipPathUnits="userSpaceOnUse"><path
         id="path5891"
         d="M 0,800 H 800 V 0 H 0 Z" /></clipPath><clipPath
       id="clipPath5901"
       clipPathUnits="userSpaceOnUse"><path
         id="path5899"
         d="m 373.072,588.936 h 24.537 v -17.952 h -24.537 z" /></clipPath><clipPath
       id="clipPath5917"
       clipPathUnits="userSpaceOnUse"><path
         id="path5915"
         d="m 419.792,584.793 h 24.536 v -13.809 h -24.536 z" /></clipPath><clipPath
       id="clipPath5933"
       clipPathUnits="userSpaceOnUse"><path
         id="path5931"
         d="m 324.465,584.718 h 24.536 V 570.91 h -24.536 z" /></clipPath><clipPath
       id="clipPath5989"
       clipPathUnits="userSpaceOnUse"><path
         id="path5987"
         d="M 0,800 H 800 V 0 H 0 Z" /></clipPath><clipPath
       id="clipPath5997"
       clipPathUnits="userSpaceOnUse"><path
         id="path5995"
         d="m 594.889,596.435 h 26.103 v -31.28 h -26.103 z" /></clipPath><clipPath
       id="clipPath6013"
       clipPathUnits="userSpaceOnUse"><path
         id="path6011"
         d="m 633.527,588.169 h 26.389 v -23.102 h -26.389 z" /></clipPath><clipPath
       id="clipPath6029"
       clipPathUnits="userSpaceOnUse"><path
         id="path6027"
         d="m 560.012,588.74 h 24.024 v -17.561 h -24.024 z" /></clipPath><clipPath
       id="clipPath6045"
       clipPathUnits="userSpaceOnUse"><path
         id="path6043"
         d="m 607.396,540.273 h 19.67 v -31.58 h -19.67 z" /></clipPath><clipPath
       id="clipPath6073"
       clipPathUnits="userSpaceOnUse"><path
         id="path6071"
         d="M 0,800 H 800 V 0 H 0 Z" /></clipPath><clipPath
       id="clipPath6081"
       clipPathUnits="userSpaceOnUse"><path
         id="path6079"
         d="m 176.928,383.582 h 39.541 v -26.151 h -39.541 z" /></clipPath><clipPath
       id="clipPath6097"
       clipPathUnits="userSpaceOnUse"><path
         id="path6095"
         d="m 137.344,354.194 h 24.393 v -49.696 h -24.393 z" /></clipPath><clipPath
       id="clipPath6113"
       clipPathUnits="userSpaceOnUse"><path
         id="path6111"
         d="m 215.866,395.396 h 12.456 V 382.94 h -12.456 z" /></clipPath><clipPath
       id="clipPath6129"
       clipPathUnits="userSpaceOnUse"><path
         id="path6127"
         d="m 137.99,382.94 h 63.032 V 319.908 H 137.99 Z" /></clipPath><clipPath
       id="clipPath6145"
       clipPathUnits="userSpaceOnUse"><path
         id="path6143"
         d="m 143.375,377.555 h 72.491 v -72.491 h -72.491 z" /></clipPath><clipPath
       id="clipPath6185"
       clipPathUnits="userSpaceOnUse"><path
         id="path6183"
         d="M 0,800 H 800 V 0 H 0 Z" /></clipPath><clipPath
       id="clipPath6193"
       clipPathUnits="userSpaceOnUse"><path
         id="path6191"
         d="m 352.364,390.94 h 90.365 v -96.832 h -90.365 z" /></clipPath><clipPath
       id="clipPath6229"
       clipPathUnits="userSpaceOnUse"><path
         id="path6227"
         d="m 358.19,382.243 h 61.271 V 320.972 H 358.19 Z" /></clipPath><clipPath
       id="clipPath6245"
       clipPathUnits="userSpaceOnUse"><path
         id="path6243"
         d="m 363.421,377.012 h 71.252 v -71.251 h -71.252 z" /></clipPath><clipPath
       id="clipPath6285"
       clipPathUnits="userSpaceOnUse"><path
         id="path6283"
         d="M 0,800 H 800 V 0 H 0 Z" /></clipPath><clipPath
       id="clipPath6293"
       clipPathUnits="userSpaceOnUse"><path
         id="path6291"
         d="m 369.749,195.385 h 47.688 v -52.266 h -47.688 z" /></clipPath><clipPath
       id="clipPath6309"
       clipPathUnits="userSpaceOnUse"><path
         id="path6307"
         d="m 369.749,176.256 h 53.365 v -65.069 h -53.365 z" /></clipPath><clipPath
       id="clipPath6325"
       clipPathUnits="userSpaceOnUse"><path
         id="path6323"
         d="m 396.432,198.481 h 27.322 v -43 h -27.322 z" /></clipPath><clipPath
       id="clipPath6341"
       clipPathUnits="userSpaceOnUse"><path
         id="path6339"
         d="m 423.115,192.512 h 9.802 v -7.438 h -9.802 z" /></clipPath><clipPath
       id="clipPath6357"
       clipPathUnits="userSpaceOnUse"><path
         id="path6355"
         d="m 410.172,206.702 h 7.265 v -8.685 h -7.265 z" /></clipPath><clipPath
       id="clipPath6373"
       clipPathUnits="userSpaceOnUse"><path
         id="path6371"
         d="m 369.105,152.273 h 24.488 v -47.866 h -24.488 z" /></clipPath><clipPath
       id="clipPath6389"
       clipPathUnits="userSpaceOnUse"><path
         id="path6387"
         d="m 374.839,104.796 h 7.852 v -9.3873 h -7.852 z" /></clipPath><clipPath
       id="clipPath6405"
       clipPathUnits="userSpaceOnUse"><path
         id="path6403"
         d="m 361.115,117.795 h 8.634 v -6.607 h -8.634 z" /></clipPath><clipPath
       id="clipPath6441"
       clipPathUnits="userSpaceOnUse"><path
         id="path6439"
         d="M 0,800 H 800 V 0 H 0 Z" /></clipPath><clipPath
       id="clipPath6449"
       clipPathUnits="userSpaceOnUse"><path
         id="path6447"
         d="M 176.559,211.308 H 218.71 V 166.312 H 176.559 Z" /></clipPath><clipPath
       id="clipPath6465"
       clipPathUnits="userSpaceOnUse"><path
         id="path6463"
         d="M 135.145,136.388 H 177.32 V 89.8161 h -42.175 z" /></clipPath><clipPath
       id="clipPath6481"
       clipPathUnits="userSpaceOnUse"><path
         id="path6479"
         d="m 208.192,166.671 h 1.076 v -15.265 h -1.076 z" /></clipPath><clipPath
       id="clipPath6497"
       clipPathUnits="userSpaceOnUse"><path
         id="path6495"
         d="m 144.587,151.406 h 1.076 v -15.37 h -1.076 z" /></clipPath><clipPath
       id="clipPath6513"
       clipPathUnits="userSpaceOnUse"><path
         id="path6511"
         d="m 145.125,184.317 h 48.489 v -50.012 h -48.489 z" /></clipPath><clipPath
       id="clipPath6529"
       clipPathUnits="userSpaceOnUse"><path
         id="path6527"
         d="M 155.608,172.788 H 208.73 V 119.554 H 155.608 Z" /></clipPath><clipPath
       id="clipPath6569"
       clipPathUnits="userSpaceOnUse"><path
         id="path6567"
         d="M 0,800 H 800 V 0 H 0 Z" /></clipPath><clipPath
       id="clipPath6577"
       clipPathUnits="userSpaceOnUse"><path
         id="path6575"
         d="M 578.957,385.924 H 643.5 v -64.446 h -64.543 z" /></clipPath><clipPath
       id="clipPath6593"
       clipPathUnits="userSpaceOnUse"><path
         id="path6591"
         d="M 593.651,371.233 H 662.77 V 302.209 H 593.651 Z" /></clipPath><clipPath
       id="clipPath6609"
       clipPathUnits="userSpaceOnUse"><path
         id="path6607"
         d="m 620.94,386.88 h 42.882 V 344.002 H 620.94 Z" /></clipPath><clipPath
       id="clipPath6625"
       clipPathUnits="userSpaceOnUse"><path
         id="path6623"
         d="m 578.073,343.983 h 42.867 v -42.85 h -42.867 z" /></clipPath><clipPath
       id="clipPath6641"
       clipPathUnits="userSpaceOnUse"><path
         id="path6639"
         d="m 663.307,366.547 h 12.062 v -4.996 h -12.062 z" /></clipPath><clipPath
       id="clipPath6657"
       clipPathUnits="userSpaceOnUse"><path
         id="path6655"
         d="m 638.489,396.275 h 4.103 v -9.906 h -4.103 z" /></clipPath><clipPath
       id="clipPath6673"
       clipPathUnits="userSpaceOnUse"><path
         id="path6671"
         d="m 598.586,301.635 h 4.804 v -11.598 h -4.804 z" /></clipPath><clipPath
       id="clipPath6689"
       clipPathUnits="userSpaceOnUse"><path
         id="path6687"
         d="m 566.561,326.453 h 12.012 v -4.975 h -12.012 z" /></clipPath><clipPath
       id="clipPath6737"
       clipPathUnits="userSpaceOnUse"><path
         id="path6735"
         d="M 0,800 H 800 V 0 H 0 Z" /></clipPath><clipPath
       id="clipPath6745"
       clipPathUnits="userSpaceOnUse"><path
         id="path6743"
         d="m 577.274,196.102 h 67.932 v -64.257 h -67.932 z" /></clipPath><clipPath
       id="clipPath6761"
       clipPathUnits="userSpaceOnUse"><path
         id="path6759"
         d="m 591.339,178.514 h 72.257 v -71.803 h -72.257 z" /></clipPath><clipPath
       id="clipPath6777"
       clipPathUnits="userSpaceOnUse"><path
         id="path6775"
         d="m 620.94,196.75 h 38.846 V 173.736 H 620.94 Z" /></clipPath><clipPath
       id="clipPath6793"
       clipPathUnits="userSpaceOnUse"><path
         id="path6791"
         d="m 636.795,207.057 h 20.954 v -13.344 h -20.954 z" /></clipPath><clipPath
       id="clipPath6809"
       clipPathUnits="userSpaceOnUse"><path
         id="path6807"
         d="M 580.623,131.845 H 620.94 V 106.069 H 580.623 Z" /></clipPath><clipPath
       id="clipPath6825"
       clipPathUnits="userSpaceOnUse"><path
         id="path6823"
         d="m 583.62,109.21 h 22.994 V 94.071 H 583.62 Z" /></clipPath><clipPath
       id="clipPath6841"
       clipPathUnits="userSpaceOnUse"><path
         id="path6839"
         d="M 584.981,196.682 H 604.76 V 178.514 H 584.981 Z" /></clipPath><clipPath
       id="clipPath6857"
       clipPathUnits="userSpaceOnUse"><path
         id="path6855"
         d="m 635.186,123.168 h 21.06 v -17.079 h -21.06 z" /></clipPath><clipPath
       id="clipPath6877"
       clipPathUnits="userSpaceOnUse"><path
         id="path6875"
         d="M 0,800 H 800 V 0 H 0 Z" /></clipPath><clipPath
       id="clipPath5809-7"
       clipPathUnits="userSpaceOnUse"><path
         id="path5807-5"
         d="M 0,800 H 800 V 0 H 0 Z" /></clipPath><clipPath
       id="clipPath5817-1"
       clipPathUnits="userSpaceOnUse"><path
         id="path5815-9"
         d="m 153.323,590.286 h 23.605 v -50.575 h -23.605 z" /></clipPath><clipPath
       id="clipPath5833-6"
       clipPathUnits="userSpaceOnUse"><path
         id="path5831-0"
         d="M 121.168,572.549 H 143.92 V 540.273 H 121.168 Z" /></clipPath><clipPath
       id="clipPath5849-3"
       clipPathUnits="userSpaceOnUse"><path
         id="path5847-0"
         d="m 193.38,563.135 h 20.794 V 539.653 H 193.38 Z" /></clipPath><clipPath
       id="clipPath5893-9"
       clipPathUnits="userSpaceOnUse"><path
         id="path5891-6"
         d="M 0,800 H 800 V 0 H 0 Z" /></clipPath><clipPath
       id="clipPath5901-9"
       clipPathUnits="userSpaceOnUse"><path
         id="path5899-7"
         d="m 373.072,588.936 h 24.537 v -17.952 h -24.537 z" /></clipPath><clipPath
       id="clipPath5917-9"
       clipPathUnits="userSpaceOnUse"><path
         id="path5915-2"
         d="m 419.792,584.793 h 24.536 v -13.809 h -24.536 z" /></clipPath><clipPath
       id="clipPath5933-7"
       clipPathUnits="userSpaceOnUse"><path
         id="path5931-1"
         d="m 324.465,584.718 h 24.536 V 570.91 h -24.536 z" /></clipPath><clipPath
       id="clipPath5989-8"
       clipPathUnits="userSpaceOnUse"><path
         id="path5987-3"
         d="M 0,800 H 800 V 0 H 0 Z" /></clipPath><clipPath
       id="clipPath5997-4"
       clipPathUnits="userSpaceOnUse"><path
         id="path5995-9"
         d="m 594.889,596.435 h 26.103 v -31.28 h -26.103 z" /></clipPath><clipPath
       id="clipPath6013-8"
       clipPathUnits="userSpaceOnUse"><path
         id="path6011-8"
         d="m 633.527,588.169 h 26.389 v -23.102 h -26.389 z" /></clipPath><clipPath
       id="clipPath6029-8"
       clipPathUnits="userSpaceOnUse"><path
         id="path6027-6"
         d="m 560.012,588.74 h 24.024 v -17.561 h -24.024 z" /></clipPath><clipPath
       id="clipPath6045-1"
       clipPathUnits="userSpaceOnUse"><path
         id="path6043-9"
         d="m 607.396,540.273 h 19.67 v -31.58 h -19.67 z" /></clipPath><clipPath
       id="clipPath6073-1"
       clipPathUnits="userSpaceOnUse"><path
         id="path6071-6"
         d="M 0,800 H 800 V 0 H 0 Z" /></clipPath><clipPath
       id="clipPath6081-3"
       clipPathUnits="userSpaceOnUse"><path
         id="path6079-9"
         d="m 176.928,383.582 h 39.541 v -26.151 h -39.541 z" /></clipPath><clipPath
       id="clipPath6097-0"
       clipPathUnits="userSpaceOnUse"><path
         id="path6095-0"
         d="m 137.344,354.194 h 24.393 v -49.696 h -24.393 z" /></clipPath><clipPath
       id="clipPath6113-5"
       clipPathUnits="userSpaceOnUse"><path
         id="path6111-9"
         d="m 215.866,395.396 h 12.456 V 382.94 h -12.456 z" /></clipPath><clipPath
       id="clipPath6129-0"
       clipPathUnits="userSpaceOnUse"><path
         id="path6127-4"
         d="m 137.99,382.94 h 63.032 V 319.908 H 137.99 Z" /></clipPath><clipPath
       id="clipPath6145-7"
       clipPathUnits="userSpaceOnUse"><path
         id="path6143-6"
         d="m 143.375,377.555 h 72.491 v -72.491 h -72.491 z" /></clipPath><clipPath
       id="clipPath6185-4"
       clipPathUnits="userSpaceOnUse"><path
         id="path6183-4"
         d="M 0,800 H 800 V 0 H 0 Z" /></clipPath><clipPath
       id="clipPath6193-8"
       clipPathUnits="userSpaceOnUse"><path
         id="path6191-6"
         d="m 352.364,390.94 h 90.365 v -96.832 h -90.365 z" /></clipPath><clipPath
       id="clipPath6229-4"
       clipPathUnits="userSpaceOnUse"><path
         id="path6227-7"
         d="m 358.19,382.243 h 61.271 V 320.972 H 358.19 Z" /></clipPath><clipPath
       id="clipPath6245-0"
       clipPathUnits="userSpaceOnUse"><path
         id="path6243-4"
         d="m 363.421,377.012 h 71.252 v -71.251 h -71.252 z" /></clipPath></defs><g
     transform="translate(329.7343,436.06662)"
     id="layer4"><g
       transform="translate(11.271898,-11.272204)"
       id="g7946"><g
         id="g6155"
         transform="matrix(3.0664062,0,0,-3.0664062,-329.7343,-94.62424)"><path
           d="m 0,0 19.096,-19.096 h 84.901 L 123.094,0 v 84.901 l -19.097,19.096 H 19.096 L 0,84.901 Z"
           style="fill:#7d32ff;fill-opacity:1;fill-rule:nonzero;stroke:none"
           id="path6157" /></g><g
         id="g6159"
         transform="matrix(3.0664062,0,0,-3.0664062,-23.742821,-124.22673)"><path
           d="M 0,0 -5.444,-5.444 H -71.038 L -76.483,0 v 65.593 l 5.445,5.445 H -5.444 L 0,65.593 Z"
           style="fill:#af6eff;fill-opacity:1;fill-rule:nonzero;stroke:none"
           id="path6161" /></g><g
         id="g6163"
         transform="matrix(3.0664062,0,0,-3.0664062,-271.17667,-413.52222)"><path
           d="M 0,0 9.654,-23.306 H 75.247 L 84.901,0 Z"
           style="fill:#a046ff;fill-opacity:1;fill-rule:nonzero;stroke:none"
           id="path6165" /></g><g
         id="g6167"
         transform="matrix(3.0664062,0,0,-3.0664062,47.72161,-354.96459)"><path
           d="M 0,0 -23.306,-9.654 V -75.247 L 0,-84.901 Z"
           style="fill:#a046ff;fill-opacity:1;fill-rule:nonzero;stroke:none"
           id="path6169" /></g><g
         id="g6171"
         transform="matrix(3.0664062,0,0,-3.0664062,-10.836018,-36.066612)"><path
           d="M 0,0 -9.654,23.306 H -75.247 L -84.901,0 Z"
           style="fill:#a046ff;fill-opacity:1;fill-rule:nonzero;stroke:none"
           id="path6173" /></g><g
         id="g6175"
         transform="matrix(3.0664062,0,0,-3.0664062,-329.7343,-94.62424)"><path
           d="M 0,0 23.306,9.654 V 75.247 L 0,84.901 Z"
           style="fill:#a046ff;fill-opacity:1;fill-rule:nonzero;stroke:none"
           id="path6177" /></g><g
         transform="matrix(3.0664062,0,0,-3.0664062,-1356.6268,830.05484)"
         id="g6179"><g
           id="g6181"
           clip-path="url(#clipPath6185-4)"><g
             id="g6187"><g
               id="g6189" /><g
               id="g6221"><g
                 clip-path="url(#clipPath6193-8)"
                 id="g6219"><g
                   transform="translate(358.1903,344.0018)"
                   id="g6197"><path
                     d="m 0,0 c 0.103,-1.366 0.164,-2.733 0.234,-4.1 0.08,-1.366 0.124,-2.733 0.162,-4.099 0.089,-2.733 0.177,-5.466 0.204,-8.199 0.064,-5.467 0.059,-10.933 -0.057,-16.399 l -0.007,-0.372 -0.306,-0.12 -2.998,-1.179 c -0.498,-0.199 -1.015,-0.361 -1.521,-0.543 -0.507,-0.181 -1.018,-0.354 -1.537,-0.508 0.451,0.3 0.912,0.58 1.376,0.853 0.465,0.271 0.92,0.563 1.392,0.818 l 2.828,1.543 -0.313,-0.492 c -0.116,5.466 -0.12,10.932 -0.057,16.399 0.028,2.733 0.115,5.466 0.204,8.199 0.038,1.366 0.083,2.733 0.162,4.099 0.07,1.367 0.131,2.734 0.234,4.1"
                     style="fill:#ffffff;fill-opacity:1;fill-rule:nonzero;stroke:none"
                     id="path6195" /></g><g
                   transform="translate(358.1906,311.2049)"
                   id="g6201"><path
                     d="M 0,0 5.902,-4.986 5.444,-4.797 38.241,-5.444 5.444,-6.092 5.152,-6.097 4.986,-5.902 Z"
                     style="fill:#ffffff;fill-opacity:1;fill-rule:nonzero;stroke:none"
                     id="path6199" /></g><g
                   transform="translate(363.6348,305.7607)"
                   id="g6205"><path
                     d="m 0,0 c 0,0 -0.102,-0.811 -0.413,-1.962 -0.3,-1.156 -0.804,-2.654 -1.403,-4.112 -0.607,-1.455 -1.309,-2.871 -1.913,-3.9 -0.595,-1.034 -1.098,-1.679 -1.098,-1.679 0,0 0.101,0.812 0.411,1.963 0.3,1.156 0.805,2.653 1.405,4.111 0.608,1.455 1.311,2.87 1.915,3.9 C -0.502,-0.645 0,0 0,0"
                     style="fill:#ffffff;fill-opacity:1;fill-rule:nonzero;stroke:none"
                     id="path6203" /></g><g
                   transform="translate(442.7295,380.1359)"
                   id="g6209"><path
                     d="m 0,0 -7.809,-3.935 0.4,0.598 -0.648,-24.547 -0.647,24.547 -0.012,0.462 0.411,0.136 z"
                     style="fill:#ffffff;fill-opacity:1;fill-rule:nonzero;stroke:none"
                     id="path6207" /></g><g
                   transform="translate(432.8309,390.9396)"
                   id="g6213"><path
                     d="m 0,0 c -0.448,-1.513 -0.946,-3.005 -1.458,-4.491 -0.514,-1.485 -1.059,-2.957 -1.62,-4.423 l -0.13,-0.338 -0.395,-0.012 C -5.31,-9.316 -7.018,-9.33 -8.726,-9.34 c -1.708,0.007 -3.416,0.003 -5.124,0.054 -1.708,0.035 -3.415,0.1 -5.123,0.192 -1.708,0.089 -3.416,0.225 -5.124,0.397 1.708,0.173 3.416,0.308 5.124,0.397 1.708,0.093 3.415,0.157 5.123,0.192 1.708,0.051 3.416,0.047 5.124,0.055 1.708,-0.011 3.416,-0.024 5.123,-0.076 l -0.523,-0.35 c 0.639,1.433 1.294,2.859 1.981,4.273 C -1.456,-2.793 -0.753,-1.386 0,0"
                     style="fill:#ffffff;fill-opacity:1;fill-rule:nonzero;stroke:none"
                     id="path6211" /></g><g
                   transform="translate(434.6722,376.1513)"
                   id="g6217"><path
                     d="m 0,0 c -0.166,0 -0.331,0.063 -0.458,0.19 l -5.443,5.444 c -0.253,0.253 -0.253,0.663 0,0.916 0.253,0.252 0.663,0.252 0.915,0 L 0.458,1.105 C 0.711,0.852 0.711,0.443 0.458,0.19 0.331,0.063 0.166,0 0,0"
                     style="fill:#ffffff;fill-opacity:1;fill-rule:nonzero;stroke:none"
                     id="path6215" /></g></g></g></g><g
             id="g6223"><g
               id="g6225" /><g
               id="g6237"><g
                 clip-path="url(#clipPath6229-4)"
                 id="g6235"
                 style="opacity:0.5"><g
                   transform="translate(358.1903,320.9719)"
                   id="g6233"><path
                     d="M 0,0 61.271,61.271 H 52.117 L 0,9.154 Z"
                     style="fill:#ffffff;fill-opacity:1;fill-rule:nonzero;stroke:none"
                     id="path6231" /></g></g></g></g><g
             id="g6239"><g
               id="g6241" /><g
               id="g6253"><g
                 clip-path="url(#clipPath6245-0)"
                 id="g6251"
                 style="opacity:0.5"><g
                   transform="translate(434.6731,376.7984)"
                   id="g6249"><path
                     d="m 0,0 -0.214,0.214 -71.038,-71.038 0.214,-0.214 h 17.883 L 0,-17.883 Z"
                     style="fill:#ffffff;fill-opacity:1;fill-rule:nonzero;stroke:none"
                     id="path6247" /></g></g></g></g></g></g></g></g></svg>