<?xml version="1.0" encoding="UTF-8" standalone="no"?>
<svg
   xmlns:dc="http://purl.org/dc/elements/1.1/"
   xmlns:cc="http://creativecommons.org/ns#"
   xmlns:rdf="http://www.w3.org/1999/02/22-rdf-syntax-ns#"
   xmlns:svg="http://www.w3.org/2000/svg"
   xmlns="http://www.w3.org/2000/svg"
   viewBox="0 0 399.99999 399.99999"
   height="400"
   width="400"
   xml:space="preserve"
   id="svg5775"
   version="1.1"><metadata
     id="metadata5781"><rdf:RDF><cc:Work
         rdf:about=""><dc:format>image/svg+xml</dc:format><dc:type
           rdf:resource="http://purl.org/dc/dcmitype/StillImage" /><dc:title></dc:title></cc:Work></rdf:RDF></metadata><defs
     id="defs5779"><clipPath
       id="clipPath5809"
       clipPathUnits="userSpaceOnUse"><path
         id="path5807"
         d="M 0,800 H 800 V 0 H 0 Z" /></clipPath><clipPath
       id="clipPath5817"
       clipPathUnits="userSpaceOnUse"><path
         id="path5815"
         d="m 153.323,590.286 h 23.605 v -50.575 h -23.605 z" /></clipPath><clipPath
       id="clipPath5833"
       clipPathUnits="userSpaceOnUse"><path
         id="path5831"
         d="M 121.168,572.549 H 143.92 V 540.273 H 121.168 Z" /></clipPath><clipPath
       id="clipPath5849"
       clipPathUnits="userSpaceOnUse"><path
         id="path5847"
         d="m 193.38,563.135 h 20.794 V 539.653 H 193.38 Z" /></clipPath><clipPath
       id="clipPath5893"
       clipPathUnits="userSpaceOnUse"><path
         id="path5891"
         d="M 0,800 H 800 V 0 H 0 Z" /></clipPath><clipPath
       id="clipPath5901"
       clipPathUnits="userSpaceOnUse"><path
         id="path5899"
         d="m 373.072,588.936 h 24.537 v -17.952 h -24.537 z" /></clipPath><clipPath
       id="clipPath5917"
       clipPathUnits="userSpaceOnUse"><path
         id="path5915"
         d="m 419.792,584.793 h 24.536 v -13.809 h -24.536 z" /></clipPath><clipPath
       id="clipPath5933"
       clipPathUnits="userSpaceOnUse"><path
         id="path5931"
         d="m 324.465,584.718 h 24.536 V 570.91 h -24.536 z" /></clipPath><clipPath
       id="clipPath5989"
       clipPathUnits="userSpaceOnUse"><path
         id="path5987"
         d="M 0,800 H 800 V 0 H 0 Z" /></clipPath><clipPath
       id="clipPath5997"
       clipPathUnits="userSpaceOnUse"><path
         id="path5995"
         d="m 594.889,596.435 h 26.103 v -31.28 h -26.103 z" /></clipPath><clipPath
       id="clipPath6013"
       clipPathUnits="userSpaceOnUse"><path
         id="path6011"
         d="m 633.527,588.169 h 26.389 v -23.102 h -26.389 z" /></clipPath><clipPath
       id="clipPath6029"
       clipPathUnits="userSpaceOnUse"><path
         id="path6027"
         d="m 560.012,588.74 h 24.024 v -17.561 h -24.024 z" /></clipPath><clipPath
       id="clipPath6045"
       clipPathUnits="userSpaceOnUse"><path
         id="path6043"
         d="m 607.396,540.273 h 19.67 v -31.58 h -19.67 z" /></clipPath><clipPath
       id="clipPath6073"
       clipPathUnits="userSpaceOnUse"><path
         id="path6071"
         d="M 0,800 H 800 V 0 H 0 Z" /></clipPath><clipPath
       id="clipPath6081"
       clipPathUnits="userSpaceOnUse"><path
         id="path6079"
         d="m 176.928,383.582 h 39.541 v -26.151 h -39.541 z" /></clipPath><clipPath
       id="clipPath6097"
       clipPathUnits="userSpaceOnUse"><path
         id="path6095"
         d="m 137.344,354.194 h 24.393 v -49.696 h -24.393 z" /></clipPath><clipPath
       id="clipPath6113"
       clipPathUnits="userSpaceOnUse"><path
         id="path6111"
         d="m 215.866,395.396 h 12.456 V 382.94 h -12.456 z" /></clipPath><clipPath
       id="clipPath6129"
       clipPathUnits="userSpaceOnUse"><path
         id="path6127"
         d="m 137.99,382.94 h 63.032 V 319.908 H 137.99 Z" /></clipPath><clipPath
       id="clipPath6145"
       clipPathUnits="userSpaceOnUse"><path
         id="path6143"
         d="m 143.375,377.555 h 72.491 v -72.491 h -72.491 z" /></clipPath><clipPath
       id="clipPath6185"
       clipPathUnits="userSpaceOnUse"><path
         id="path6183"
         d="M 0,800 H 800 V 0 H 0 Z" /></clipPath><clipPath
       id="clipPath6193"
       clipPathUnits="userSpaceOnUse"><path
         id="path6191"
         d="m 352.364,390.94 h 90.365 v -96.832 h -90.365 z" /></clipPath><clipPath
       id="clipPath6229"
       clipPathUnits="userSpaceOnUse"><path
         id="path6227"
         d="m 358.19,382.243 h 61.271 V 320.972 H 358.19 Z" /></clipPath><clipPath
       id="clipPath6245"
       clipPathUnits="userSpaceOnUse"><path
         id="path6243"
         d="m 363.421,377.012 h 71.252 v -71.251 h -71.252 z" /></clipPath><clipPath
       id="clipPath6285"
       clipPathUnits="userSpaceOnUse"><path
         id="path6283"
         d="M 0,800 H 800 V 0 H 0 Z" /></clipPath><clipPath
       id="clipPath6293"
       clipPathUnits="userSpaceOnUse"><path
         id="path6291"
         d="m 369.749,195.385 h 47.688 v -52.266 h -47.688 z" /></clipPath><clipPath
       id="clipPath6309"
       clipPathUnits="userSpaceOnUse"><path
         id="path6307"
         d="m 369.749,176.256 h 53.365 v -65.069 h -53.365 z" /></clipPath><clipPath
       id="clipPath6325"
       clipPathUnits="userSpaceOnUse"><path
         id="path6323"
         d="m 396.432,198.481 h 27.322 v -43 h -27.322 z" /></clipPath><clipPath
       id="clipPath6341"
       clipPathUnits="userSpaceOnUse"><path
         id="path6339"
         d="m 423.115,192.512 h 9.802 v -7.438 h -9.802 z" /></clipPath><clipPath
       id="clipPath6357"
       clipPathUnits="userSpaceOnUse"><path
         id="path6355"
         d="m 410.172,206.702 h 7.265 v -8.685 h -7.265 z" /></clipPath><clipPath
       id="clipPath6373"
       clipPathUnits="userSpaceOnUse"><path
         id="path6371"
         d="m 369.105,152.273 h 24.488 v -47.866 h -24.488 z" /></clipPath><clipPath
       id="clipPath6389"
       clipPathUnits="userSpaceOnUse"><path
         id="path6387"
         d="m 374.839,104.796 h 7.852 v -9.3873 h -7.852 z" /></clipPath><clipPath
       id="clipPath6405"
       clipPathUnits="userSpaceOnUse"><path
         id="path6403"
         d="m 361.115,117.795 h 8.634 v -6.607 h -8.634 z" /></clipPath><clipPath
       id="clipPath6441"
       clipPathUnits="userSpaceOnUse"><path
         id="path6439"
         d="M 0,800 H 800 V 0 H 0 Z" /></clipPath><clipPath
       id="clipPath6449"
       clipPathUnits="userSpaceOnUse"><path
         id="path6447"
         d="M 176.559,211.308 H 218.71 V 166.312 H 176.559 Z" /></clipPath><clipPath
       id="clipPath6465"
       clipPathUnits="userSpaceOnUse"><path
         id="path6463"
         d="M 135.145,136.388 H 177.32 V 89.8161 h -42.175 z" /></clipPath><clipPath
       id="clipPath6481"
       clipPathUnits="userSpaceOnUse"><path
         id="path6479"
         d="m 208.192,166.671 h 1.076 v -15.265 h -1.076 z" /></clipPath><clipPath
       id="clipPath6497"
       clipPathUnits="userSpaceOnUse"><path
         id="path6495"
         d="m 144.587,151.406 h 1.076 v -15.37 h -1.076 z" /></clipPath><clipPath
       id="clipPath6513"
       clipPathUnits="userSpaceOnUse"><path
         id="path6511"
         d="m 145.125,184.317 h 48.489 v -50.012 h -48.489 z" /></clipPath><clipPath
       id="clipPath6529"
       clipPathUnits="userSpaceOnUse"><path
         id="path6527"
         d="M 155.608,172.788 H 208.73 V 119.554 H 155.608 Z" /></clipPath><clipPath
       id="clipPath6569"
       clipPathUnits="userSpaceOnUse"><path
         id="path6567"
         d="M 0,800 H 800 V 0 H 0 Z" /></clipPath><clipPath
       id="clipPath6577"
       clipPathUnits="userSpaceOnUse"><path
         id="path6575"
         d="M 578.957,385.924 H 643.5 v -64.446 h -64.543 z" /></clipPath><clipPath
       id="clipPath6593"
       clipPathUnits="userSpaceOnUse"><path
         id="path6591"
         d="M 593.651,371.233 H 662.77 V 302.209 H 593.651 Z" /></clipPath><clipPath
       id="clipPath6609"
       clipPathUnits="userSpaceOnUse"><path
         id="path6607"
         d="m 620.94,386.88 h 42.882 V 344.002 H 620.94 Z" /></clipPath><clipPath
       id="clipPath6625"
       clipPathUnits="userSpaceOnUse"><path
         id="path6623"
         d="m 578.073,343.983 h 42.867 v -42.85 h -42.867 z" /></clipPath><clipPath
       id="clipPath6641"
       clipPathUnits="userSpaceOnUse"><path
         id="path6639"
         d="m 663.307,366.547 h 12.062 v -4.996 h -12.062 z" /></clipPath><clipPath
       id="clipPath6657"
       clipPathUnits="userSpaceOnUse"><path
         id="path6655"
         d="m 638.489,396.275 h 4.103 v -9.906 h -4.103 z" /></clipPath><clipPath
       id="clipPath6673"
       clipPathUnits="userSpaceOnUse"><path
         id="path6671"
         d="m 598.586,301.635 h 4.804 v -11.598 h -4.804 z" /></clipPath><clipPath
       id="clipPath6689"
       clipPathUnits="userSpaceOnUse"><path
         id="path6687"
         d="m 566.561,326.453 h 12.012 v -4.975 h -12.012 z" /></clipPath><clipPath
       id="clipPath6737"
       clipPathUnits="userSpaceOnUse"><path
         id="path6735"
         d="M 0,800 H 800 V 0 H 0 Z" /></clipPath><clipPath
       id="clipPath6745"
       clipPathUnits="userSpaceOnUse"><path
         id="path6743"
         d="m 577.274,196.102 h 67.932 v -64.257 h -67.932 z" /></clipPath><clipPath
       id="clipPath6761"
       clipPathUnits="userSpaceOnUse"><path
         id="path6759"
         d="m 591.339,178.514 h 72.257 v -71.803 h -72.257 z" /></clipPath><clipPath
       id="clipPath6777"
       clipPathUnits="userSpaceOnUse"><path
         id="path6775"
         d="m 620.94,196.75 h 38.846 V 173.736 H 620.94 Z" /></clipPath><clipPath
       id="clipPath6793"
       clipPathUnits="userSpaceOnUse"><path
         id="path6791"
         d="m 636.795,207.057 h 20.954 v -13.344 h -20.954 z" /></clipPath><clipPath
       id="clipPath6809"
       clipPathUnits="userSpaceOnUse"><path
         id="path6807"
         d="M 580.623,131.845 H 620.94 V 106.069 H 580.623 Z" /></clipPath><clipPath
       id="clipPath6825"
       clipPathUnits="userSpaceOnUse"><path
         id="path6823"
         d="m 583.62,109.21 h 22.994 V 94.071 H 583.62 Z" /></clipPath><clipPath
       id="clipPath6841"
       clipPathUnits="userSpaceOnUse"><path
         id="path6839"
         d="M 584.981,196.682 H 604.76 V 178.514 H 584.981 Z" /></clipPath><clipPath
       id="clipPath6857"
       clipPathUnits="userSpaceOnUse"><path
         id="path6855"
         d="m 635.186,123.168 h 21.06 v -17.079 h -21.06 z" /></clipPath><clipPath
       id="clipPath6877"
       clipPathUnits="userSpaceOnUse"><path
         id="path6875"
         d="M 0,800 H 800 V 0 H 0 Z" /></clipPath><clipPath
       id="clipPath5809-7"
       clipPathUnits="userSpaceOnUse"><path
         id="path5807-5"
         d="M 0,800 H 800 V 0 H 0 Z" /></clipPath><clipPath
       id="clipPath5817-1"
       clipPathUnits="userSpaceOnUse"><path
         id="path5815-9"
         d="m 153.323,590.286 h 23.605 v -50.575 h -23.605 z" /></clipPath><clipPath
       id="clipPath5833-6"
       clipPathUnits="userSpaceOnUse"><path
         id="path5831-0"
         d="M 121.168,572.549 H 143.92 V 540.273 H 121.168 Z" /></clipPath><clipPath
       id="clipPath5849-3"
       clipPathUnits="userSpaceOnUse"><path
         id="path5847-0"
         d="m 193.38,563.135 h 20.794 V 539.653 H 193.38 Z" /></clipPath><clipPath
       id="clipPath5893-9"
       clipPathUnits="userSpaceOnUse"><path
         id="path5891-6"
         d="M 0,800 H 800 V 0 H 0 Z" /></clipPath><clipPath
       id="clipPath5901-9"
       clipPathUnits="userSpaceOnUse"><path
         id="path5899-7"
         d="m 373.072,588.936 h 24.537 v -17.952 h -24.537 z" /></clipPath><clipPath
       id="clipPath5917-9"
       clipPathUnits="userSpaceOnUse"><path
         id="path5915-2"
         d="m 419.792,584.793 h 24.536 v -13.809 h -24.536 z" /></clipPath><clipPath
       id="clipPath5933-7"
       clipPathUnits="userSpaceOnUse"><path
         id="path5931-1"
         d="m 324.465,584.718 h 24.536 V 570.91 h -24.536 z" /></clipPath><clipPath
       id="clipPath5989-8"
       clipPathUnits="userSpaceOnUse"><path
         id="path5987-3"
         d="M 0,800 H 800 V 0 H 0 Z" /></clipPath><clipPath
       id="clipPath5997-4"
       clipPathUnits="userSpaceOnUse"><path
         id="path5995-9"
         d="m 594.889,596.435 h 26.103 v -31.28 h -26.103 z" /></clipPath><clipPath
       id="clipPath6013-8"
       clipPathUnits="userSpaceOnUse"><path
         id="path6011-8"
         d="m 633.527,588.169 h 26.389 v -23.102 h -26.389 z" /></clipPath><clipPath
       id="clipPath6029-8"
       clipPathUnits="userSpaceOnUse"><path
         id="path6027-6"
         d="m 560.012,588.74 h 24.024 v -17.561 h -24.024 z" /></clipPath><clipPath
       id="clipPath6045-1"
       clipPathUnits="userSpaceOnUse"><path
         id="path6043-9"
         d="m 607.396,540.273 h 19.67 v -31.58 h -19.67 z" /></clipPath></defs><g
     transform="translate(360.56265,390.85643)"
     id="layer4"><g
       transform="translate(33.235044,-7.599971)"
       id="g13985"><g
         id="g5943"
         transform="matrix(2.7370955,0,0,-2.7370955,-360.27821,-87.057132)"><path
           d="M 0,0 V 70.293 L 60.876,105.44 121.751,70.293 V 0 L 60.876,-35.147 Z"
           style="fill:#64d246;fill-opacity:1;fill-rule:nonzero;stroke:none"
           id="path5945" /></g><g
         id="g5947"
         transform="matrix(2.7370955,0,0,-2.7370955,-193.6556,-375.65592)"><path
           d="M 0,0 25.072,-44.794 H 0 -25.072 Z"
           style="fill:#a0dc50;fill-opacity:1;fill-rule:nonzero;stroke:none"
           id="path5949" /></g><g
         id="g5951"
         transform="matrix(2.7370955,0,0,-2.7370955,-262.27952,-253.04963)"><path
           d="M 0,0 -35.804,9.648 25.072,44.794 Z"
           style="fill:#64d246;fill-opacity:1;fill-rule:nonzero;stroke:none"
           id="path5953" /></g><g
         id="g5955"
         transform="matrix(2.7370955,0,0,-2.7370955,-125.03168,-253.04963)"><path
           d="M 0,0 35.804,9.648 -25.072,44.794 Z"
           style="fill:#64d246;fill-opacity:1;fill-rule:nonzero;stroke:none"
           id="path5957" /></g><g
         id="g5959"
         transform="matrix(2.7370955,0,0,-2.7370955,-262.27952,-253.04963)"><path
           d="M 0,0 -35.804,-60.646 V 9.648 Z"
           style="fill:#2ea051;fill-opacity:1;fill-rule:nonzero;stroke:none"
           id="path5961" /></g><g
         id="g5963"
         transform="matrix(2.7370955,0,0,-2.7370955,-360.27821,-87.057132)"><path
           d="M 0,0 60.876,4.936 35.804,60.646 Z"
           style="fill:#37c551;fill-opacity:1;fill-rule:nonzero;stroke:none"
           id="path5965" /></g><g
         id="g5967"
         transform="matrix(2.7370955,0,0,-2.7370955,-125.03168,-253.04963)"><path
           d="M 0,0 35.804,-60.646 V 9.648 Z"
           style="fill:#37c551;fill-opacity:1;fill-rule:nonzero;stroke:none"
           id="path5969" /></g><g
         id="g5971"
         transform="matrix(2.7370955,0,0,-2.7370955,-27.032986,-87.057132)"><path
           d="m 0,0 -60.876,4.936 25.072,55.71 z"
           style="fill:#2ea051;fill-opacity:1;fill-rule:nonzero;stroke:none"
           id="path5973" /></g><g
         id="g5975"
         transform="matrix(2.7370955,0,0,-2.7370955,-193.6556,-100.5688)"><path
           d="M 0,0 V -40.083 L -60.876,-4.936 Z"
           style="fill:#2ea051;fill-opacity:1;fill-rule:nonzero;stroke:none"
           id="path5977" /></g><g
         id="g5979"
         transform="matrix(2.7370955,0,0,-2.7370955,-193.65615,-100.5688)"><path
           d="M 0,0 V -40.083 L 60.876,-4.936 Z"
           style="fill:#37c551;fill-opacity:1;fill-rule:nonzero;stroke:none"
           id="path5981" /></g><g
         transform="matrix(2.7370955,0,0,-2.7370955,-1893.369,1295.5221)"
         id="g5983"><g
           id="g5985"
           clip-path="url(#clipPath5989-8)"><g
             id="g5991"><g
               id="g5993" /><g
               id="g6005"><g
                 clip-path="url(#clipPath5997-4)"
                 id="g6003"><g
                   transform="translate(613.0822,596.4348)"
                   id="g6001"><path
                     d="m 0,0 c -1.293,-2.632 -2.638,-5.235 -3.987,-7.836 l -4.115,-7.763 -4.231,-7.7 c -1.395,-2.574 -2.841,-5.121 -4.298,-7.661 l -0.531,0.906 6.268,-0.049 c 2.089,-10e-4 4.178,-0.081 6.267,-0.121 2.09,-0.059 4.179,-0.078 6.269,-0.17 2.089,-0.086 4.178,-0.148 6.267,-0.269 -2.089,-0.121 -4.178,-0.183 -6.267,-0.268 -2.09,-0.093 -4.179,-0.111 -6.269,-0.17 -2.089,-0.041 -4.178,-0.121 -6.267,-0.122 l -6.268,-0.049 -1.031,-0.008 0.5,0.914 c 1.403,2.571 2.817,5.135 4.282,7.671 l 4.351,7.632 4.465,7.567 C -3.083,-4.986 -1.567,-2.479 0,0"
                     style="fill:#ffffff;fill-opacity:1;fill-rule:nonzero;stroke:none"
                     id="path5999" /></g></g></g></g><g
             id="g6007"><g
               id="g6009" /><g
               id="g6021"><g
                 clip-path="url(#clipPath6013-8)"
                 id="g6019"><g
                   transform="translate(633.5275,588.1691)"
                   id="g6017"><path
                     d="m 0,0 c 1.187,-1.787 2.343,-3.591 3.456,-5.419 1.101,-1.835 2.242,-3.647 3.311,-5.5 2.17,-3.688 4.253,-7.424 6.293,-11.185 l -0.68,0.287 c 2.315,0.596 4.647,1.134 6.979,1.67 1.165,0.273 2.331,0.542 3.506,0.776 1.172,0.243 2.343,0.496 3.524,0.707 -1.128,-0.412 -2.266,-0.781 -3.402,-1.16 -1.134,-0.389 -2.277,-0.742 -3.421,-1.09 -2.285,-0.709 -4.572,-1.415 -6.873,-2.063 l -0.444,-0.125 -0.237,0.411 c -2.139,3.706 -4.235,7.435 -6.243,11.213 -1.021,1.88 -1.969,3.8 -2.957,5.699 C 1.836,-3.875 0.903,-1.946 0,0"
                     style="fill:#ffffff;fill-opacity:1;fill-rule:nonzero;stroke:none"
                     id="path6015" /></g></g></g></g><g
             id="g6023"><g
               id="g6025" /><g
               id="g6037"><g
                 clip-path="url(#clipPath6029-8)"
                 id="g6035"><g
                   transform="translate(581.1426,587.2889)"
                   id="g6033"><path
                     d="m 0,0 c -0.959,-0.495 -1.926,-0.973 -2.87,-1.496 -1.896,-1.033 -3.805,-2.039 -5.69,-3.093 -3.774,-2.097 -7.498,-4.294 -11.211,-6.511 l -1.36,-0.812 1.495,-0.406 c 2.587,-0.704 5.18,-1.378 7.786,-2.006 1.302,-0.318 2.598,-0.658 3.91,-0.936 1.309,-0.289 2.614,-0.596 3.932,-0.85 -1.26,0.485 -2.532,0.917 -3.801,1.366 -1.265,0.46 -2.547,0.858 -3.823,1.279 -2.07,0.689 -4.152,1.331 -6.235,1.969 3.302,1.912 6.596,3.843 9.847,5.857 1.843,1.134 3.662,2.316 5.494,3.472 0.92,0.571 1.817,1.187 2.721,1.786 0.906,0.6 1.809,1.203 2.698,1.832 C 1.92,0.986 0.959,0.494 0,0"
                     style="fill:#ffffff;fill-opacity:1;fill-rule:nonzero;stroke:none"
                     id="path6031" /></g></g></g></g><g
             id="g6039"><g
               id="g6041" /><g
               id="g6053"><g
                 clip-path="url(#clipPath6045-1)"
                 id="g6051"><g
                   transform="translate(607.3955,540.2731)"
                   id="g6049"><path
                     d="m 0,0 c 0.657,-1.218 1.278,-2.452 1.906,-3.683 0.635,-1.228 1.249,-2.466 1.845,-3.711 1.205,-2.485 2.429,-4.962 3.585,-7.469 1.178,-2.497 2.309,-5.016 3.448,-7.53 1.124,-2.522 2.242,-5.046 3.327,-7.585 h -1.03 c 1.048,2.233 2.15,4.443 3.223,6.665 0.53,1.114 1.101,2.21 1.661,3.311 0.558,1.101 1.119,2.201 1.706,3.29 -0.426,-1.161 -0.878,-2.311 -1.331,-3.459 -0.453,-1.149 -0.894,-2.303 -1.377,-3.439 -0.953,-2.276 -1.875,-4.566 -2.852,-6.832 l -0.491,-1.138 -0.539,1.138 c -1.181,2.496 -2.329,5.007 -3.471,7.52 -1.126,2.521 -2.263,5.037 -3.35,7.575 -1.111,2.528 -2.152,5.086 -3.213,7.636 C 2.51,-6.439 1.991,-5.159 1.493,-3.869 0.987,-2.583 0.476,-1.299 0,0"
                     style="fill:#ffffff;fill-opacity:1;fill-rule:nonzero;stroke:none"
                     id="path6047" /></g></g></g></g></g></g></g></g></svg>