<?xml version="1.0" encoding="UTF-8" standalone="no"?>
<svg
   xmlns:dc="http://purl.org/dc/elements/1.1/"
   xmlns:cc="http://creativecommons.org/ns#"
   xmlns:rdf="http://www.w3.org/1999/02/22-rdf-syntax-ns#"
   xmlns:svg="http://www.w3.org/2000/svg"
   xmlns="http://www.w3.org/2000/svg"
   enable-background="new"
   id="svg4781"
   version="1.1"
   viewBox="0 0 132.29167 132.29167"
   height="132.29167mm"
   width="132.29167mm">
  <defs
     id="defs4775" />
  <metadata
     id="metadata4778">
    <rdf:RDF>
      <cc:Work
         rdf:about="">
        <dc:format>image/svg+xml</dc:format>
        <dc:type
           rdf:resource="http://purl.org/dc/dcmitype/StillImage" />
        <dc:title></dc:title>
      </cc:Work>
    </rdf:RDF>
  </metadata>
  <g
     style="display:inline"
     id="layer2">
    <circle
       transform="rotate(25)"
       r="58.914276"
       cy="31.994047"
       cx="87.902924"
       id="path5428"
       style="display:inline;opacity:1;fill:none;fill-opacity:1;stroke:#d32f2f;stroke-width:7.17;stroke-linejoin:round;stroke-miterlimit:4;stroke-dasharray:none;stroke-opacity:1;paint-order:markers stroke fill" />
    <path
       id="path6480"
       d="m 17.491711,76.704018 c 2.024025,10.114325 7.481197,19.514731 15.423375,26.122042 1.079832,0.99638 2.335116,1.77654 3.495676,2.67344 3.073595,-5.32344 6.147187,-10.646864 9.220782,-15.970296 -3.201148,-5.596262 -6.402297,-11.192525 -9.603443,-16.788785 -6.367335,0 -12.734669,0 -19.102003,0 0.188538,1.321199 0.377075,2.642399 0.565613,3.963599 z"
       style="display:inline;opacity:1;fill:#d32f2f;fill-opacity:1;stroke:none;stroke-width:5.58978939;stroke-linejoin:round;stroke-miterlimit:4;stroke-dasharray:none;stroke-opacity:1;paint-order:markers stroke fill" />
    <path
       id="path6459"
       d="m 40.418205,108.93136 c 6.394261,4.23024 13.922845,6.66539 21.565762,7.12823 -4.260171,-7.44803 -8.520341,-14.89605 -12.78051,-22.344084 -2.928418,5.071949 -5.856836,10.143904 -8.785252,15.215854 z"
       style="display:inline;opacity:1;fill:#d32f2f;fill-opacity:1;stroke:none;stroke-width:5.47564554;stroke-linejoin:round;stroke-miterlimit:4;stroke-dasharray:none;stroke-opacity:1;paint-order:markers stroke fill" />
    <path
       id="path6434"
       d="m 21.161894,46.836207 c -3.081967,6.777841 -4.425671,14.306417 -3.84621,21.7307 5.89625,0 11.792501,0 17.68875,0 -4.388014,-7.671378 -8.776026,-15.342754 -13.164038,-23.014131 -0.226167,0.42781 -0.452335,0.855622 -0.678502,1.283431 z"
       style="display:inline;opacity:1;fill:#d32f2f;fill-opacity:1;stroke:none;stroke-width:5.30062342;stroke-linejoin:round;stroke-miterlimit:4;stroke-dasharray:none;stroke-opacity:1;paint-order:markers stroke fill" />
    <path
       id="path6501"
       d="m 70.658736,115.59088 c 7.713197,-0.37524 15.277913,-2.90334 21.728439,-7.13598 -2.914929,-5.0486 -5.829858,-10.097187 -8.744787,-15.145776 -4.327885,7.427256 -8.655767,14.854506 -12.983652,22.281756 z"
       style="display:inline;opacity:1;fill:#d32f2f;fill-opacity:1;stroke:none;stroke-width:5.3283577;stroke-linejoin:round;stroke-miterlimit:4;stroke-dasharray:none;stroke-opacity:1;paint-order:markers stroke fill" />
    <path
       id="path6462"
       d="m 86.787355,89.095127 c 3.122987,5.408868 6.245977,10.817726 9.368966,16.226603 8.783809,-6.079444 15.402709,-15.309716 17.979179,-25.709341 0.55597,-2.206691 0.95479,-4.465683 1.2125,-6.728143 -6.37133,0 -12.74266,0 -19.113989,0 -3.148886,5.403628 -6.297773,10.807254 -9.446656,16.210881 z"
       style="display:inline;opacity:1;fill:#d32f2f;fill-opacity:1;stroke:none;stroke-width:5.56289101;stroke-linejoin:round;stroke-miterlimit:4;stroke-dasharray:none;stroke-opacity:1;paint-order:markers stroke fill" />
    <path
       id="path6432"
       d="m 98.453302,68.01618 c 5.492228,0 10.984458,0 16.476678,0 0.57887,-7.275194 -0.83866,-14.692451 -4.11179,-21.218518 -4.12163,7.07284 -8.24326,14.145678 -12.364888,21.218518 z"
       style="display:inline;opacity:1;fill:#d32f2f;fill-opacity:1;stroke:none;stroke-width:4.92212152;stroke-linejoin:round;stroke-miterlimit:4;stroke-dasharray:none;stroke-opacity:1;paint-order:markers stroke fill" />
    <path
       id="path6572"
       d="M 66.299167,86.709657 C 72.236014,76.521685 78.172864,66.333713 84.109711,56.145742 72.318144,56.098261 60.526579,56.050779 48.73501,56.003301 c 5.854718,10.23545 11.709438,20.470903 17.564157,30.706356 z"
       style="display:inline;opacity:1;fill:#d32f2f;fill-opacity:1;stroke:none;stroke-width:5.61658716;stroke-linejoin:round;stroke-miterlimit:4;stroke-dasharray:none;stroke-opacity:1;paint-order:markers stroke fill" />
    <path
       id="path6483"
       d="m 81.516693,37.947243 c 8.436275,0.03398 16.872552,0.06796 25.308827,0.101945 -4.0829,-6.39462 -9.9181,-11.618502 -16.66295,-15.076947 -2.881959,4.991668 -5.763919,9.983335 -8.645877,14.975002 z"
       style="display:inline;opacity:1;fill:#d32f2f;fill-opacity:1;stroke:none;stroke-width:5.26479101;stroke-linejoin:round;stroke-miterlimit:4;stroke-dasharray:none;stroke-opacity:1;paint-order:markers stroke fill" />
    <path
       id="path6504"
       d="m 38.689848,24.240505 c -5.37725,3.402397 -10.05702,7.898789 -13.551331,13.223965 8.587645,0.03454 17.17529,0.06908 25.762934,0.103621 -2.927806,-5.071129 -5.855615,-10.142255 -8.783421,-15.213384 -1.142728,0.6286 -2.285455,1.257198 -3.428182,1.885798 z"
       style="display:inline;opacity:1;fill:#d32f2f;fill-opacity:1;stroke:none;stroke-width:5.35133886;stroke-linejoin:round;stroke-miterlimit:4;stroke-dasharray:none;stroke-opacity:1;paint-order:markers stroke fill" />
    <path
       id="path5428-2"
       d="m 59.881108,17.005903 c -4.519463,0.689791 -8.921841,2.002041 -13.074662,3.914587 3.09085,5.353261 6.181703,10.706522 9.272553,16.059781 6.599608,0.02666 13.19922,0.05334 19.798829,0.08 3.092419,-5.356078 6.18484,-10.712164 9.277259,-16.068248 -7.822006,-3.719844 -16.682712,-5.131658 -25.273979,-3.98612 z"
       style="display:inline;opacity:1;fill:#d32f2f;fill-opacity:1;stroke:none;stroke-width:5.49279165;stroke-linejoin:round;stroke-miterlimit:4;stroke-dasharray:none;stroke-opacity:1;paint-order:markers stroke fill" />
    <path
       id="path6584"
       d="m 27.631014,43.2241 76.743646,0.0039 -16.725731,9.821463 c 0,0 -42.781533,0.09448 -43.196495,-0.0167 C 44.037469,52.92155 27.631014,43.2241 27.631014,43.2241 Z"
       style="fill:#d32f2f;fill-opacity:1;stroke:none;stroke-width:0.26458332px;stroke-linecap:butt;stroke-linejoin:miter;stroke-opacity:1" />
    <path
       id="path6584-9"
       d="M 64.883847,111.19894 26.515401,44.735049 43.383902,54.309224 c 0,0 21.47259,37.002656 21.583786,37.417614 0.11117,0.414976 -0.08384,19.472102 -0.08384,19.472102 z"
       style="display:inline;fill:#d32f2f;fill-opacity:1;stroke:none;stroke-width:0.26458332px;stroke-linecap:butt;stroke-linejoin:miter;stroke-opacity:1" />
    <path
       id="path6584-4"
       d="M 105.4946,45.05645 67.119392,111.51644 66.97662,92.120808 c 0,0 21.308945,-37.097135 21.612711,-37.400913 0.303795,-0.303765 16.905259,-9.663447 16.905259,-9.663447 z"
       style="display:inline;fill:#d32f2f;fill-opacity:1;stroke:none;stroke-width:0.26458332px;stroke-linecap:butt;stroke-linejoin:miter;stroke-opacity:1" />
  </g>
</svg>
