<?xml version="1.0" encoding="UTF-8" standalone="no"?>
<svg
   xmlns:dc="http://purl.org/dc/elements/1.1/"
   xmlns:cc="http://creativecommons.org/ns#"
   xmlns:rdf="http://www.w3.org/1999/02/22-rdf-syntax-ns#"
   xmlns:svg="http://www.w3.org/2000/svg"
   xmlns="http://www.w3.org/2000/svg"
   viewBox="0 0 169.62534 169.62534"
   height="169.62534"
   width="169.62534"
   xml:space="preserve"
   id="svg2"
   version="1.1"><metadata
     id="metadata8"><rdf:RDF><cc:Work
         rdf:about=""><dc:format>image/svg+xml</dc:format><dc:type
           rdf:resource="http://purl.org/dc/dcmitype/StillImage" /><dc:title></dc:title></cc:Work></rdf:RDF></metadata><defs
     id="defs6"><clipPath
       id="clipPath20"
       clipPathUnits="userSpaceOnUse"><path
         id="path18"
         d="M 0,500 H 500 V 0 H 0 Z" /></clipPath><clipPath
       id="clipPath84"
       clipPathUnits="userSpaceOnUse"><path
         id="path82"
         d="M 0,500 H 500 V 0 H 0 Z" /></clipPath></defs><g
     transform="matrix(1.3333333,0,0,-1.3333333,-214.56409,431.12946)"
     id="g10"><g
       transform="translate(201.58207,259.1831)"
       id="g58"><path
         id="path60"
         style="fill:#4d4d4d;fill-opacity:1;fill-rule:nonzero;stroke:none"
         d="m 0,0 c 0.054,-0.593 0.115,-1.147 0.184,-1.677 -0.199,-0.017 -0.391,-0.106 -0.535,-0.245 -0.162,0.006 -0.691,0.292 -0.871,0.398 -0.316,0.187 -0.402,0.535 -0.536,0.855 -0.191,1.139 -0.248,2.42 -0.295,2.593 -0.186,0.689 -0.337,1.529 -0.711,2.146 -1.391,2.294 -1.35,8.478 2.612,5.875 C -0.311,6.611 -0.296,3.26 0,0 M 44.982,9.947 C 48.94,12.544 48.981,6.364 47.59,4.07 47.216,3.453 47.065,2.613 46.879,1.924 46.833,1.751 46.776,0.47 46.584,-0.669 46.45,-0.989 46.365,-1.337 46.048,-1.524 45.868,-1.63 45.34,-1.916 45.177,-1.922 c -0.142,0.138 -0.333,0.228 -0.531,0.246 0.069,0.53 0.13,1.084 0.184,1.676 0.296,3.261 0.311,6.612 0.152,9.947 M 62.337,-45.22 c -0.068,0.083 -0.134,0.172 -0.204,0.255 -2.642,3.145 -5.31,8.03 -9.201,9.734 -4.271,1.871 -8.428,3.706 -12.592,5.772 -2.927,1.453 -5.095,2.727 -5.05,6.451 0.026,2.147 -0.246,4.26 -0.246,6.407 0,0.129 -0.025,0.241 -0.069,0.337 2.056,1.829 4.048,3.784 5.763,5.804 2.125,2.502 3.092,4.506 3.623,7.099 1.101,-0.602 2.617,0.215 3.397,1.097 0.624,0.705 0.701,1.767 0.658,2.652 -0.079,1.627 0.692,2.728 1.179,4.199 0.917,2.764 0.521,6.176 -1.257,7.333 0.684,1.885 0.555,4.291 0.553,6.162 -0.004,3.563 -0.16,7.048 -0.517,10.594 -0.333,3.313 -1.492,5.804 -3.243,8.566 -2.222,3.504 -2.514,7.83 -2.61,11.91 -0.015,0.651 -0.88,1.108 -1.356,0.562 -2.44,-2.797 -4.656,-5.365 -7.635,-7.236 0.082,0.732 0.09,1.496 0.01,2.309 -0.216,2.2 -0.559,5.92 -2.365,7.443 -0.3,0.253 -0.838,0.359 -1.123,0 -1.63,-2.053 -3.104,-4.009 -5.148,-5.681 -1.077,-0.881 -2.239,-1.641 -3.39,-2.41 0.243,2.159 0.101,4.431 -0.839,6.167 -0.283,0.524 -1.084,0.509 -1.372,0 C 14.517,41.824 4.598,39.767 -1.059,32.321 -3.03,29.726 -3.917,26.136 -4.265,22.957 -4.4,21.729 -4.35,12.538 -3.29,12.051 -5.257,11.044 -5.723,7.464 -4.769,4.587 c 0.487,-1.471 1.259,-2.572 1.18,-4.199 -0.043,-0.885 0.033,-1.947 0.657,-2.652 0.78,-0.883 2.299,-1.701 3.4,-1.095 0.531,-2.594 1.499,-4.598 3.623,-7.101 1.715,-2.02 3.708,-3.975 5.763,-5.804 -0.043,-0.096 -0.068,-0.208 -0.068,-0.337 0,-2.147 -0.272,-4.26 -0.246,-6.407 0.045,-3.724 -2.123,-4.998 -5.051,-6.451 -4.163,-2.066 -8.32,-3.901 -12.591,-5.772 -3.777,-1.654 -6.401,-6.292 -8.968,-9.44 -12.507,11.079 -20.411,27.243 -20.411,45.226 0,33.321 27.11,60.431 60.431,60.431 33.322,0 60.432,-27.11 60.432,-60.431 0,-18.284 -8.173,-34.684 -21.045,-45.775 m -68.331,-6.896 c -0.008,-0.117 -0.016,-0.232 -0.024,-0.349 -3.498,1.919 -6.783,4.177 -9.819,6.725 0.408,0.499 0.811,1.005 1.23,1.481 1.848,2.1 3.54,4.351 5.341,6.496 0.887,1.057 2.559,1.659 4.173,2.166 -0.137,-5.511 -0.523,-11.021 -0.901,-16.519 m 56.817,0 c -0.377,5.498 -0.763,11.008 -0.9,16.519 1.613,-0.507 3.286,-1.109 4.173,-2.166 1.801,-2.145 3.493,-4.396 5.341,-6.496 0.57,-0.648 1.132,-1.315 1.689,-1.991 -3.162,-2.585 -6.594,-4.847 -10.24,-6.756 -0.02,0.298 -0.042,0.591 -0.063,0.89 M 5.801,-9.841 C 2.143,-6.67 1.541,-2.611 1.495,2.01 1.447,6.815 1.424,11.582 1.971,16.362 c 0.045,0.068 0.091,0.138 0.116,0.231 1.494,5.542 7.662,10.378 12.997,5.873 2.336,-1.972 3.665,-3.122 6.265,-3.515 0.121,-0.092 0.267,-0.161 0.462,-0.161 h 0.066 c 0.011,0 0.018,0.006 0.029,0.006 0.205,0.006 0.377,0.028 0.568,0.04 0.191,-0.012 0.362,-0.034 0.567,-0.04 0.011,0 0.018,-0.006 0.03,-0.006 h 0.065 c 0.195,0 0.342,0.069 0.462,0.161 2.601,0.393 3.93,1.543 6.265,3.515 5.301,4.476 11.42,-0.271 12.963,-5.768 0.589,-4.893 0.558,-9.77 0.509,-14.688 -0.046,-4.621 -0.648,-8.68 -4.306,-11.851 -4.948,-4.29 -9.906,-11.612 -16.614,-13.292 -6.709,1.68 -11.666,9.002 -16.614,13.292 M 7.39,-29.787 c 0.577,0.385 1.141,0.782 1.671,1.207 1.662,1.335 2.041,2.053 2.077,4.187 0.039,2.28 0.175,4.55 0.212,6.828 0.577,-0.488 1.156,-0.978 1.733,-1.438 2.508,-2.003 4.975,-4.295 7.998,-5.371 0.015,-0.039 1.334,-0.4 1.334,-0.4 0,0 1.318,0.361 1.333,0.4 3.023,1.076 5.491,3.368 7.999,5.371 0.577,0.46 1.155,0.95 1.733,1.438 0.037,-2.278 0.173,-4.548 0.212,-6.828 0.036,-2.134 0.415,-2.852 2.077,-4.187 0.53,-0.425 1.094,-0.822 1.671,-1.207 0.519,-2.765 0.274,-5.32 0.354,-8.087 0.094,-3.216 -2.201,-5.231 -4.892,-6.477 -3.344,-1.549 -6.944,-1.345 -10.487,-1.473 -3.543,0.128 -7.143,-0.076 -10.488,1.473 -2.69,1.246 -4.985,3.261 -4.892,6.477 0.081,2.767 -0.164,5.322 0.355,8.087 m 15.56,93.951 c -35.074,0 -63.609,-28.535 -63.609,-63.609 0,-35.075 28.535,-63.61 63.609,-63.61 35.075,0 63.61,28.535 63.61,63.61 0,35.074 -28.535,63.609 -63.61,63.609" /></g></g></svg>